  0
SECTION
  2
HEADER
  9
$ACADVER
  1
AC1009
  9
$DWGCODEPAGE
  3
ansi_1252
  9
$INSBASE
 10
0.0
 20
0.0
 30
0.0
  9
$EXTMIN
 10
1.000000000000000E+20
 20
1.000000000000000E+20
 30
1.000000000000000E+20
  9
$EXTMAX
 10
-1.000000000000000E+20
 20
-1.000000000000000E+20
 30
-1.000000000000000E+20
  9
$LIMMIN
 10
0.0
 20
0.0
  9
$LIMMAX
 10
420.0
 20
297.0
  9
$ORTHOMODE
 70
     0
  9
$REGENMODE
 70
     1
  9
$FILLMODE
 70
     1
  9
$QTEXTMODE
 70
     0
  9
$MIRRTEXT
 70
     0
  9
$DRAGMODE
 70
     2
  9
$LTSCALE
 40
1.0
  9
$OSMODE
 70
   511
  9
$ATTMODE
 70
     1
  9
$TEXTSIZE
 40
2.5
  9
$TRACEWID
 40
1.0
  9
$TEXTSTYLE
  7
STANDARD
  9
$CLAYER
  8
0
  9
$CELTYPE
  6
BYLAYER
  9
$CECOLOR
 62
   256
  9
$DIMSCALE
 40
1.0
  9
$DIMASZ
 40
2.5
  9
$DIMEXO
 40
0.625
  9
$DIMDLI
 40
3.75
  9
$DIMRND
 40
0.0
  9
$DIMDLE
 40
0.0
  9
$DIMEXE
 40
1.25
  9
$DIMTP
 40
0.0
  9
$DIMTM
 40
0.0
  9
$DIMTXT
 40
2.5
  9
$DIMCEN
 40
2.5
  9
$DIMTSZ
 40
0.0
  9
$DIMTOL
 70
     0
  9
$DIMLIM
 70
     0
  9
$DIMTIH
 70
     0
  9
$DIMTOH
 70
     0
  9
$DIMSE1
 70
     0
  9
$DIMSE2
 70
     0
  9
$DIMTAD
 70
     1
  9
$DIMZIN
 70
     8
  9
$DIMBLK
  1

  9
$DIMASO
 70
     1
  9
$DIMSHO
 70
     1
  9
$DIMPOST
  1

  9
$DIMAPOST
  1

  9
$DIMALT
 70
     0
  9
$DIMALTD
 70
     3
  9
$DIMALTF
 40
0.03937007874016
  9
$DIMLFAC
 40
1.0
  9
$DIMTOFL
 70
     1
  9
$DIMTVP
 40
0.0
  9
$DIMTIX
 70
     0
  9
$DIMSOXD
 70
     0
  9
$DIMSAH
 70
     0
  9
$DIMBLK1
  1

  9
$DIMBLK2
  1

  9
$DIMSTYLE
  2
ISO-25
  9
$DIMCLRD
 70
     0
  9
$DIMCLRE
 70
     0
  9
$DIMCLRT
 70
     0
  9
$DIMTFAC
 40
1.0
  9
$DIMGAP
 40
0.625
  9
$LUNITS
 70
     2
  9
$LUPREC
 70
     3
  9
$SKETCHINC
 40
1.0
  9
$FILLETRAD
 40
10.0
  9
$AUNITS
 70
     0
  9
$AUPREC
 70
     0
  9
$MENU
  1
.
  9
$ELEVATION
 40
0.0
  9
$PELEVATION
 40
0.0
  9
$THICKNESS
 40
0.0
  9
$LIMCHECK
 70
     0
  9
$CHAMFERA
 40
10.0
  9
$CHAMFERB
 40
10.0
  9
$SKPOLY
 70
     0
  9
$TDCREATE
 40
2455022.67902618
  9
$TDUPDATE
 40
2457232.918391204
  9
$TDINDWG
 40
0.0
  9
$TDUSRTIMER
 40
2457232.875428241
  9
$USRTIMER
 70
     1
  9
$ANGBASE
 50
0.0
  9
$ANGDIR
 70
     0
  9
$PDMODE
 70
     0
  9
$PDSIZE
 40
0.0
  9
$PLINEWID
 40
0.0
  9
$COORDS
 70
     1
  9
$SPLFRAME
 70
     0
  9
$SPLINETYPE
 70
     6
  9
$SPLINESEGS
 70
     8
  9
$ATTDIA
 70
     0
  9
$ATTREQ
 70
     1
  9
$HANDLING
 70
     1
  9
$HANDSEED
  5
89F
  9
$SURFTAB1
 70
     6
  9
$SURFTAB2
 70
     6
  9
$SURFTYPE
 70
     6
  9
$SURFU
 70
     6
  9
$SURFV
 70
     6
  9
$UCSNAME
  2

  9
$UCSORG
 10
0.0
 20
0.0
 30
0.0
  9
$UCSXDIR
 10
1.0
 20
0.0
 30
0.0
  9
$UCSYDIR
 10
0.0
 20
1.0
 30
0.0
  9
$PUCSNAME
  2

  9
$PUCSORG
 10
0.0
 20
0.0
 30
0.0
  9
$PUCSXDIR
 10
1.0
 20
0.0
 30
0.0
  9
$PUCSYDIR
 10
0.0
 20
1.0
 30
0.0
  9
$USERI1
 70
     0
  9
$USERI2
 70
     0
  9
$USERI3
 70
     0
  9
$USERI4
 70
     0
  9
$USERI5
 70
     0
  9
$USERR1
 40
0.0
  9
$USERR2
 40
0.0
  9
$USERR3
 40
0.0
  9
$USERR4
 40
0.0
  9
$USERR5
 40
0.0
  9
$WORLDVIEW
 70
     1
  9
$SHADEDGE
 70
     3
  9
$SHADEDIF
 70
    70
  9
$TILEMODE
 70
     1
  9
$MAXACTVP
 70
    64
  9
$PLIMCHECK
 70
     0
  9
$PEXTMIN
 10
1.000000000000000E+20
 20
1.000000000000000E+20
 30
1.000000000000000E+20
  9
$PEXTMAX
 10
-1.000000000000000E+20
 20
-1.000000000000000E+20
 30
-1.000000000000000E+20
  9
$PLIMMIN
 10
0.0
 20
0.0
  9
$PLIMMAX
 10
0.0
 20
0.0
  9
$UNITMODE
 70
     0
  9
$VISRETAIN
 70
     1
  9
$PLINEGEN
 70
     0
  9
$PSLTSCALE
 70
     1
  0
ENDSEC
  0
SECTION
  2
TABLES
  0
TABLE
  2
VPORT
 70
     1
  0
VPORT
  2
*ACTIVE
 70
     0
 10
0.0
 20
0.0
 11
1.0
 21
1.0
 12
337.466802685029
 22
341.1610380894163
 13
0.0
 23
0.0
 14
10.0
 24
10.0
 15
10.0
 25
10.0
 16
0.0
 26
0.0
 36
1.0
 17
-134.1869158878504
 27
0.0
 37
0.0
 40
940.4296874999997
 41
1.865284974093264
 42
50.0
 43
0.0
 44
0.0
 50
0.0
 51
0.0
 71
    16
 72
  1000
 73
     1
 74
     3
 75
     0
 76
     0
 77
     0
 78
     0
  0
ENDTAB
  0
TABLE
  2
LTYPE
 70
     1
  0
LTYPE
  2
CONTINUOUS
 70
     0
  3
Solid line
 72
    65
 73
     0
 40
0.0
  0
ENDTAB
  0
TABLE
  2
LAYER
 70
     1
  0
LAYER
  2
0
 70
     0
 62
     7
  6
CONTINUOUS
  0
ENDTAB
  0
TABLE
  2
STYLE
 70
     1
  0
STYLE
  2
STANDARD
 70
     0
 40
0.0
 41
1.0
 50
0.0
 71
     0
 42
2.5
  3
arial.ttf
  4

  0
ENDTAB
  0
TABLE
  2
VIEW
 70
     0
  0
ENDTAB
  0
TABLE
  2
UCS
 70
     0
  0
ENDTAB
  0
TABLE
  2
APPID
 70
     2
  0
APPID
  2
ACAD
 70
     0
  0
APPID
  2
PE_URL
 70
     0
  0
ENDTAB
  0
TABLE
  2
DIMSTYLE
 70
     2
  0
DIMSTYLE
  2
ISO-25
 70
     0
  3

  4

  5

  6

  7

 40
1.0
 41
2.5
 42
0.625
 43
3.75
 44
1.25
 45
0.0
 46
0.0
 47
0.0
 48
0.0
140
2.5
141
2.5
142
0.0
143
0.03937007874016
144
1.0
145
0.0
146
1.0
147
0.625
 71
     0
 72
     0
 73
     0
 74
     0
 75
     0
 76
     0
 77
     1
 78
     8
170
     0
171
     3
172
     1
173
     0
174
     0
175
     0
176
     0
177
     0
178
     0
  0
DIMSTYLE
  2
STANDARD
 70
     0
  3

  4

  5

  6

  7

 40
1.0
 41
0.18
 42
0.0625
 43
0.38
 44
0.18
 45
0.0
 46
0.0
 47
0.0
 48
0.0
140
0.18
141
0.09
142
0.0
143
25.4
144
1.0
145
0.0
146
1.0
147
0.09
 71
     0
 72
     0
 73
     1
 74
     1
 75
     0
 76
     0
 77
     0
 78
     0
170
     0
171
     2
172
     0
173
     0
174
     0
175
     0
176
     0
177
     0
178
     0
  0
ENDTAB
  0
ENDSEC
  0
SECTION
  2
BLOCKS
  0
BLOCK
  8
0
  2
$MODEL_SPACE
 70
     0
 10
0.0
 20
0.0
 30
0.0
  3
$MODEL_SPACE
  1

  0
ENDBLK
  5
21
  8
0
  0
BLOCK
 67
     1
  8
0
  2
$PAPER_SPACE
 70
     0
 10
0.0
 20
0.0
 30
0.0
  3
$PAPER_SPACE
  1

  0
ENDBLK
  5
1D
 67
     1
  8
0
  0
ENDSEC
  0
SECTION
  2
ENTITIES
  0
LINE
  5
4BF
  8
0
 10
21.3286043120379
 20
352.5817732738653
 30
0.0
 11
21.3286043120379
 21
348.5817732738653
 31
0.0
1001
PE_URL
1000
t
  0
LINE
  5
4C0
  8
0
 10
61.32860431203778
 20
352.5817732738653
 30
0.0
 11
61.32860431203778
 21
348.5817732738653
 31
0.0
1001
PE_URL
1000
t
  0
LINE
  5
4C1
  8
0
 10
81.32860431203778
 20
352.5817732738653
 30
0.0
 11
81.32860431203778
 21
348.5817732738653
 31
0.0
1001
PE_URL
1000
t
  0
LINE
  5
4C2
  8
0
 10
121.3286043120378
 20
352.5817732738653
 30
0.0
 11
121.3286043120378
 21
348.5817732738653
 31
0.0
1001
PE_URL
1000
t
  0
LINE
  5
4C3
  8
0
 10
141.3286043120378
 20
352.5817732738653
 30
0.0
 11
141.3286043120378
 21
348.5817732738653
 31
0.0
1001
PE_URL
1000
t
  0
LINE
  5
4C4
  8
0
 10
181.3286043120378
 20
352.5817732738653
 30
0.0
 11
181.3286043120378
 21
348.5817732738653
 31
0.0
1001
PE_URL
1000
t
  0
LINE
  5
4C5
  8
0
 10
61.32860431203778
 20
348.5817732738653
 30
0.0
 11
81.32860431203778
 21
348.5817732738653
 31
0.0
1001
PE_URL
1000
t
  0
LINE
  5
4C6
  8
0
 10
121.3286043120378
 20
348.5817732738653
 30
0.0
 11
141.3286043120378
 21
348.5817732738653
 31
0.0
1001
PE_URL
1000
t
  0
LINE
  5
4C7
  8
0
 10
197.3286043120382
 20
348.5817732738653
 30
0.0
 11
197.3286043120378
 21
332.5817732738653
 31
0.0
1001
PE_URL
1000
t
  0
LINE
  5
4C8
  8
0
 10
201.3286043120378
 20
332.5817732738653
 30
0.0
 11
201.3286043120378
 21
312.5817732738653
 31
0.0
1001
PE_URL
1000
t
  0
LINE
  5
4C9
  8
0
 10
201.3286043120378
 20
312.5817732738653
 30
0.0
 11
197.3286043120378
 21
312.5817732738653
 31
0.0
1001
PE_URL
1000
t
  0
LINE
  5
4CA
  8
0
 10
201.3286043120378
 20
332.5817732738653
 30
0.0
 11
197.3286043120378
 21
332.5817732738653
 31
0.0
1001
PE_URL
1000
t
  0
LINE
  5
4CB
  8
0
 10
197.3286043120378
 20
312.5817732738653
 30
0.0
 11
197.3286043120378
 21
292.5817732738653
 31
0.0
1001
PE_URL
1000
t
  0
LINE
  5
4CC
  8
0
 10
201.3286043120378
 20
272.5817732738653
 30
0.0
 11
201.3286043120378
 21
292.5817732738653
 31
0.0
1001
PE_URL
1000
t
  0
LINE
  5
4CD
  8
0
 10
201.3286043120378
 20
272.5817732738653
 30
0.0
 11
197.3286043120378
 21
272.5817732738653
 31
0.0
1001
PE_URL
1000
t
  0
LINE
  5
4CE
  8
0
 10
201.3286043120378
 20
292.5817732738653
 30
0.0
 11
197.3286043120378
 21
292.5817732738653
 31
0.0
1001
PE_URL
1000
t
  0
LINE
  5
4CF
  8
0
 10
197.3286043120378
 20
272.5817732738653
 30
0.0
 11
197.3286043120378
 21
256.5817732738653
 31
0.0
1001
PE_URL
1000
t
  0
LINE
  5
4D0
  8
0
 10
121.3286043120378
 20
256.5817732738653
 30
0.0
 11
141.3286043120378
 21
256.5817732738653
 31
0.0
1001
PE_URL
1000
t
  0
LINE
  5
4D1
  8
0
 10
61.32860431203778
 20
256.5817732738653
 30
0.0
 11
61.32860431203778
 21
252.5817732738653
 31
0.0
1001
PE_URL
1000
t
  0
LINE
  5
4D2
  8
0
 10
21.3286043120379
 20
256.5817732738653
 30
0.0
 11
21.3286043120379
 21
252.5817732738653
 31
0.0
1001
PE_URL
1000
t
  0
LINE
  5
4D3
  8
0
 10
121.3286043120378
 20
256.5817732738653
 30
0.0
 11
121.3286043120378
 21
252.5817732738653
 31
0.0
1001
PE_URL
1000
t
  0
LINE
  5
4D4
  8
0
 10
81.32860431203778
 20
256.5817732738653
 30
0.0
 11
81.32860431203778
 21
252.5817732738653
 31
0.0
1001
PE_URL
1000
t
  0
LINE
  5
4D5
  8
0
 10
181.3286043120376
 20
252.5817732738653
 30
0.0
 11
141.3286043120378
 21
252.5817732738653
 31
0.0
1001
PE_URL
1000
t
  0
LINE
  5
4D6
  8
0
 10
181.3286043120378
 20
256.5817732738653
 30
0.0
 11
181.3286043120376
 21
252.5817732738653
 31
0.0
1001
PE_URL
1000
t
  0
LINE
  5
4D7
  8
0
 10
141.3286043120378
 20
256.5817732738653
 30
0.0
 11
141.3286043120378
 21
252.5817732738653
 31
0.0
1001
PE_URL
1000
t
  0
LINE
  5
4D8
  8
0
 10
5.328604312037783
 20
256.5817732738653
 30
0.0
 11
5.328604312037783
 21
272.5817732738653
 31
0.0
1001
PE_URL
1000
t
  0
LINE
  5
4D9
  8
0
 10
5.328604312037783
 20
312.5817732738653
 30
0.0
 11
1.328604312037783
 21
312.5817732738653
 31
0.0
1001
PE_URL
1000
t
  0
LINE
  5
4DA
  8
0
 10
5.328604312037783
 20
332.5817732738653
 30
0.0
 11
1.328604312037783
 21
332.5817732738653
 31
0.0
1001
PE_URL
1000
t
  0
LINE
  5
4DB
  8
0
 10
1.328604312037783
 20
272.5817732738653
 30
0.0
 11
1.328604312037783
 21
292.5817732738653
 31
0.0
1001
PE_URL
1000
t
  0
LINE
  5
4DC
  8
0
 10
5.328604312037783
 20
272.5817732738653
 30
0.0
 11
1.328604312037783
 21
272.5817732738653
 31
0.0
1001
PE_URL
1000
t
  0
LINE
  5
4DD
  8
0
 10
5.328604312037783
 20
292.5817732738653
 30
0.0
 11
1.328604312037783
 21
292.5817732738653
 31
0.0
1001
PE_URL
1000
t
  0
LINE
  5
4DE
  8
0
 10
151.3286043120374
 20
292.5817732738653
 30
0.0
 11
151.3286043120374
 21
332.5817732738653
 31
0.0
1001
PE_URL
1000
t
  0
LINE
  5
4DF
  8
0
 10
51.32860431203744
 20
332.5817732738653
 30
0.0
 11
51.32860431203744
 21
292.5817732738653
 31
0.0
1001
PE_URL
1000
t
  0
LINE
  5
4E0
  8
0
 10
51.32860431203744
 20
292.5817732738653
 30
0.0
 11
51.32860431203744
 21
292.04225805974
 31
0.0
1001
PE_URL
1000
t
  0
LINE
  5
4E1
  8
0
 10
21.3286043120379
 20
252.5817732738653
 30
0.0
 11
61.32860431203778
 21
252.5817732738653
 31
0.0
1001
PE_URL
1000
t
  0
LINE
  5
4E2
  8
0
 10
81.32860431203778
 20
252.5817732738653
 30
0.0
 11
121.3286043120378
 21
252.5817732738653
 31
0.0
1001
PE_URL
1000
t
  0
LINE
  5
4E3
  8
0
 10
181.3286043120378
 20
348.5817732738653
 30
0.0
 11
197.3286043120382
 21
348.5817732738653
 31
0.0
1001
PE_URL
1000
t
  0
LINE
  5
4E4
  8
0
 10
21.3286043120379
 20
256.5817732738653
 30
0.0
 11
5.328604312037783
 21
256.5817732738653
 31
0.0
1001
PE_URL
1000
t
  0
LINE
  5
4E5
  8
0
 10
51.32860431203744
 20
292.04225805974
 30
0.0
 11
151.3286043120374
 21
292.0422580597401
 31
0.0
1001
PE_URL
1000
t
  0
LINE
  5
4E6
  8
0
 10
84.32860431203744
 20
272.5817732738652
 30
0.0
 11
84.22638179090472
 21
271.8053161385576
 31
0.0
1001
PE_URL
1000
t
  0
LINE
  5
4E7
  8
0
 10
84.22638179090472
 20
271.8053161385576
 30
0.0
 11
83.92668052339081
 21
271.0817732738652
 31
0.0
1001
PE_URL
1000
t
  0
LINE
  5
4E8
  8
0
 10
83.92668052339081
 20
271.0817732738652
 30
0.0
 11
83.4499246555971
 21
270.4604529303056
 31
0.0
1001
PE_URL
1000
t
  0
LINE
  5
4E9
  8
0
 10
83.4499246555971
 20
270.4604529303056
 30
0.0
 11
82.82860431203756
 21
269.9836970625119
 31
0.0
1001
PE_URL
1000
t
  0
LINE
  5
4EA
  8
0
 10
82.82860431203756
 20
269.9836970625119
 30
0.0
 11
82.10506144734507
 21
269.683995794998
 31
0.0
1001
PE_URL
1000
t
  0
LINE
  5
4EB
  8
0
 10
82.10506144734507
 20
269.683995794998
 30
0.0
 11
81.32860431203756
 21
269.5817732738652
 31
0.0
1001
PE_URL
1000
t
  0
LINE
  5
4EC
  8
0
 10
81.32860431203756
 20
269.5817732738652
 30
0.0
 11
80.55214717672993
 21
269.683995794998
 31
0.0
1001
PE_URL
1000
t
  0
LINE
  5
4ED
  8
0
 10
80.55214717672993
 20
269.683995794998
 30
0.0
 11
79.82860431203756
 21
269.9836970625119
 31
0.0
1001
PE_URL
1000
t
  0
LINE
  5
4EE
  8
0
 10
79.82860431203756
 20
269.9836970625119
 30
0.0
 11
79.20728396847778
 21
270.4604529303056
 31
0.0
1001
PE_URL
1000
t
  0
LINE
  5
4EF
  8
0
 10
79.20728396847778
 20
270.4604529303056
 30
0.0
 11
78.73052810068418
 21
271.0817732738652
 31
0.0
1001
PE_URL
1000
t
  0
LINE
  5
4F0
  8
0
 10
78.73052810068418
 20
271.0817732738652
 30
0.0
 11
78.43082683317027
 21
271.8053161385576
 31
0.0
1001
PE_URL
1000
t
  0
LINE
  5
4F1
  8
0
 10
78.43082683317027
 20
271.8053161385576
 30
0.0
 11
78.32860431203756
 21
272.5817732738652
 31
0.0
1001
PE_URL
1000
t
  0
LINE
  5
4F2
  8
0
 10
78.32860431203756
 20
272.5817732738652
 30
0.0
 11
78.43082683317027
 21
273.3582304091727
 31
0.0
1001
PE_URL
1000
t
  0
LINE
  5
4F3
  8
0
 10
78.43082683317027
 20
273.3582304091727
 30
0.0
 11
78.73052810068418
 21
274.0817732738652
 31
0.0
1001
PE_URL
1000
t
  0
LINE
  5
4F4
  8
0
 10
78.73052810068418
 20
274.0817732738652
 30
0.0
 11
79.20728396847778
 21
274.7030936174248
 31
0.0
1001
PE_URL
1000
t
  0
LINE
  5
4F5
  8
0
 10
79.20728396847778
 20
274.7030936174248
 30
0.0
 11
79.82860431203756
 21
275.1798494852185
 31
0.0
1001
PE_URL
1000
t
  0
LINE
  5
4F6
  8
0
 10
79.82860431203756
 20
275.1798494852185
 30
0.0
 11
80.55214717672993
 21
275.4795507527324
 31
0.0
1001
PE_URL
1000
t
  0
LINE
  5
4F7
  8
0
 10
80.55214717672993
 20
275.4795507527324
 30
0.0
 11
81.32860431203756
 21
275.5817732738652
 31
0.0
1001
PE_URL
1000
t
  0
LINE
  5
4F8
  8
0
 10
81.32860431203756
 20
275.5817732738652
 30
0.0
 11
82.10506144734507
 21
275.4795507527324
 31
0.0
1001
PE_URL
1000
t
  0
LINE
  5
4F9
  8
0
 10
82.10506144734507
 20
275.4795507527324
 30
0.0
 11
82.82860431203756
 21
275.1798494852185
 31
0.0
1001
PE_URL
1000
t
  0
LINE
  5
4FA
  8
0
 10
82.82860431203756
 20
275.1798494852185
 30
0.0
 11
83.4499246555971
 21
274.7030936174248
 31
0.0
1001
PE_URL
1000
t
  0
LINE
  5
4FB
  8
0
 10
83.4499246555971
 20
274.7030936174248
 30
0.0
 11
83.92668052339081
 21
274.0817732738652
 31
0.0
1001
PE_URL
1000
t
  0
LINE
  5
4FC
  8
0
 10
83.92668052339081
 20
274.0817732738652
 30
0.0
 11
84.22638179090472
 21
273.3582304091727
 31
0.0
1001
PE_URL
1000
t
  0
LINE
  5
4FD
  8
0
 10
84.22638179090472
 20
273.3582304091727
 30
0.0
 11
84.32860431203744
 21
272.5817732738652
 31
0.0
1001
PE_URL
1000
t
  0
LINE
  5
4FE
  8
0
 10
104.3286043120376
 20
272.5817732738652
 30
0.0
 11
104.2263817909047
 21
271.8053161385577
 31
0.0
1001
PE_URL
1000
t
  0
LINE
  5
4FF
  8
0
 10
104.2263817909047
 20
271.8053161385577
 30
0.0
 11
103.9266805233908
 21
271.0817732738652
 31
0.0
1001
PE_URL
1000
t
  0
LINE
  5
500
  8
0
 10
103.9266805233908
 20
271.0817732738652
 30
0.0
 11
103.4499246555971
 21
270.4604529303056
 31
0.0
1001
PE_URL
1000
t
  0
LINE
  5
501
  8
0
 10
103.4499246555971
 20
270.4604529303056
 30
0.0
 11
102.8286043120376
 21
269.9836970625119
 31
0.0
1001
PE_URL
1000
t
  0
LINE
  5
502
  8
0
 10
102.8286043120376
 20
269.9836970625119
 30
0.0
 11
102.1050614473451
 21
269.683995794998
 31
0.0
1001
PE_URL
1000
t
  0
LINE
  5
503
  8
0
 10
102.1050614473451
 20
269.683995794998
 30
0.0
 11
101.3286043120376
 21
269.5817732738652
 31
0.0
1001
PE_URL
1000
t
  0
LINE
  5
504
  8
0
 10
101.3286043120376
 20
269.5817732738652
 30
0.0
 11
100.5521471767299
 21
269.683995794998
 31
0.0
1001
PE_URL
1000
t
  0
LINE
  5
505
  8
0
 10
100.5521471767299
 20
269.683995794998
 30
0.0
 11
99.82860431203756
 21
269.9836970625119
 31
0.0
1001
PE_URL
1000
t
  0
LINE
  5
506
  8
0
 10
99.82860431203756
 20
269.9836970625119
 30
0.0
 11
99.2072839684779
 21
270.4604529303056
 31
0.0
1001
PE_URL
1000
t
  0
LINE
  5
507
  8
0
 10
99.2072839684779
 20
270.4604529303056
 30
0.0
 11
98.73052810068418
 21
271.0817732738652
 31
0.0
1001
PE_URL
1000
t
  0
LINE
  5
508
  8
0
 10
98.73052810068418
 20
271.0817732738652
 30
0.0
 11
98.43082683317027
 21
271.8053161385577
 31
0.0
1001
PE_URL
1000
t
  0
LINE
  5
509
  8
0
 10
98.43082683317027
 20
271.8053161385577
 30
0.0
 11
98.32860431203756
 21
272.5817732738652
 31
0.0
1001
PE_URL
1000
t
  0
LINE
  5
50A
  8
0
 10
98.32860431203756
 20
272.5817732738652
 30
0.0
 11
98.43082683317027
 21
273.3582304091727
 31
0.0
1001
PE_URL
1000
t
  0
LINE
  5
50B
  8
0
 10
98.43082683317027
 20
273.3582304091727
 30
0.0
 11
98.73052810068418
 21
274.0817732738652
 31
0.0
1001
PE_URL
1000
t
  0
LINE
  5
50C
  8
0
 10
98.73052810068418
 20
274.0817732738652
 30
0.0
 11
99.2072839684779
 21
274.7030936174249
 31
0.0
1001
PE_URL
1000
t
  0
LINE
  5
50D
  8
0
 10
99.2072839684779
 20
274.7030936174249
 30
0.0
 11
99.82860431203756
 21
275.1798494852185
 31
0.0
1001
PE_URL
1000
t
  0
LINE
  5
50E
  8
0
 10
99.82860431203756
 20
275.1798494852185
 30
0.0
 11
100.5521471767299
 21
275.4795507527324
 31
0.0
1001
PE_URL
1000
t
  0
LINE
  5
50F
  8
0
 10
100.5521471767299
 20
275.4795507527324
 30
0.0
 11
101.3286043120376
 21
275.5817732738652
 31
0.0
1001
PE_URL
1000
t
  0
LINE
  5
510
  8
0
 10
101.3286043120376
 20
275.5817732738652
 30
0.0
 11
102.1050614473451
 21
275.4795507527324
 31
0.0
1001
PE_URL
1000
t
  0
LINE
  5
511
  8
0
 10
102.1050614473451
 20
275.4795507527324
 30
0.0
 11
102.8286043120376
 21
275.1798494852185
 31
0.0
1001
PE_URL
1000
t
  0
LINE
  5
512
  8
0
 10
102.8286043120376
 20
275.1798494852185
 30
0.0
 11
103.4499246555971
 21
274.7030936174249
 31
0.0
1001
PE_URL
1000
t
  0
LINE
  5
513
  8
0
 10
103.4499246555971
 20
274.7030936174249
 30
0.0
 11
103.9266805233908
 21
274.0817732738652
 31
0.0
1001
PE_URL
1000
t
  0
LINE
  5
514
  8
0
 10
103.9266805233908
 20
274.0817732738652
 30
0.0
 11
104.2263817909047
 21
273.3582304091728
 31
0.0
1001
PE_URL
1000
t
  0
LINE
  5
515
  8
0
 10
104.2263817909047
 20
273.3582304091728
 30
0.0
 11
104.3286043120376
 21
272.5817732738652
 31
0.0
1001
PE_URL
1000
t
  0
LINE
  5
516
  8
0
 10
118.3286043120376
 20
272.5817732738652
 30
0.0
 11
118.4308268331703
 21
273.3582304091727
 31
0.0
1001
PE_URL
1000
t
  0
LINE
  5
517
  8
0
 10
118.4308268331703
 20
273.3582304091727
 30
0.0
 11
118.7305281006842
 21
274.0817732738652
 31
0.0
1001
PE_URL
1000
t
  0
LINE
  5
518
  8
0
 10
118.7305281006842
 20
274.0817732738652
 30
0.0
 11
119.2072839684779
 21
274.7030936174248
 31
0.0
1001
PE_URL
1000
t
  0
LINE
  5
519
  8
0
 10
119.2072839684779
 20
274.7030936174248
 30
0.0
 11
119.8286043120376
 21
275.1798494852185
 31
0.0
1001
PE_URL
1000
t
  0
LINE
  5
51A
  8
0
 10
119.8286043120376
 20
275.1798494852185
 30
0.0
 11
120.5521471767299
 21
275.4795507527324
 31
0.0
1001
PE_URL
1000
t
  0
LINE
  5
51B
  8
0
 10
120.5521471767299
 20
275.4795507527324
 30
0.0
 11
121.3286043120376
 21
275.5817732738652
 31
0.0
1001
PE_URL
1000
t
  0
LINE
  5
51C
  8
0
 10
121.3286043120376
 20
275.5817732738652
 30
0.0
 11
122.1050614473451
 21
275.4795507527324
 31
0.0
1001
PE_URL
1000
t
  0
LINE
  5
51D
  8
0
 10
122.1050614473451
 20
275.4795507527324
 30
0.0
 11
122.8286043120376
 21
275.1798494852185
 31
0.0
1001
PE_URL
1000
t
  0
LINE
  5
51E
  8
0
 10
122.8286043120376
 20
275.1798494852185
 30
0.0
 11
123.4499246555971
 21
274.7030936174248
 31
0.0
1001
PE_URL
1000
t
  0
LINE
  5
51F
  8
0
 10
123.4499246555971
 20
274.7030936174248
 30
0.0
 11
123.9266805233908
 21
274.0817732738652
 31
0.0
1001
PE_URL
1000
t
  0
LINE
  5
520
  8
0
 10
123.9266805233908
 20
274.0817732738652
 30
0.0
 11
124.2263817909047
 21
273.3582304091727
 31
0.0
1001
PE_URL
1000
t
  0
LINE
  5
521
  8
0
 10
124.2263817909047
 20
273.3582304091727
 30
0.0
 11
124.3286043120376
 21
272.5817732738652
 31
0.0
1001
PE_URL
1000
t
  0
LINE
  5
522
  8
0
 10
124.3286043120376
 20
272.5817732738652
 30
0.0
 11
124.2263817909047
 21
271.8053161385576
 31
0.0
1001
PE_URL
1000
t
  0
LINE
  5
523
  8
0
 10
124.2263817909047
 20
271.8053161385576
 30
0.0
 11
123.9266805233908
 21
271.0817732738652
 31
0.0
1001
PE_URL
1000
t
  0
LINE
  5
524
  8
0
 10
123.9266805233908
 20
271.0817732738652
 30
0.0
 11
123.4499246555971
 21
270.4604529303056
 31
0.0
1001
PE_URL
1000
t
  0
LINE
  5
525
  8
0
 10
123.4499246555971
 20
270.4604529303056
 30
0.0
 11
122.8286043120376
 21
269.9836970625119
 31
0.0
1001
PE_URL
1000
t
  0
LINE
  5
526
  8
0
 10
122.8286043120376
 20
269.9836970625119
 30
0.0
 11
122.1050614473451
 21
269.6839957949979
 31
0.0
1001
PE_URL
1000
t
  0
LINE
  5
527
  8
0
 10
122.1050614473451
 20
269.6839957949979
 30
0.0
 11
121.3286043120376
 21
269.5817732738652
 31
0.0
1001
PE_URL
1000
t
  0
LINE
  5
528
  8
0
 10
121.3286043120376
 20
269.5817732738652
 30
0.0
 11
120.5521471767299
 21
269.6839957949979
 31
0.0
1001
PE_URL
1000
t
  0
LINE
  5
529
  8
0
 10
120.5521471767299
 20
269.6839957949979
 30
0.0
 11
119.8286043120376
 21
269.9836970625119
 31
0.0
1001
PE_URL
1000
t
  0
LINE
  5
52A
  8
0
 10
119.8286043120376
 20
269.9836970625119
 30
0.0
 11
119.2072839684779
 21
270.4604529303056
 31
0.0
1001
PE_URL
1000
t
  0
LINE
  5
52B
  8
0
 10
119.2072839684779
 20
270.4604529303056
 30
0.0
 11
118.7305281006842
 21
271.0817732738652
 31
0.0
1001
PE_URL
1000
t
  0
LINE
  5
52C
  8
0
 10
118.7305281006842
 20
271.0817732738652
 30
0.0
 11
118.4308268331703
 21
271.8053161385577
 31
0.0
1001
PE_URL
1000
t
  0
LINE
  5
52D
  8
0
 10
118.4308268331703
 20
271.8053161385577
 30
0.0
 11
118.3286043120376
 21
272.5817732738652
 31
0.0
1001
PE_URL
1000
t
  0
LINE
  5
52E
  8
0
 10
176.3286043120376
 20
282.5817732738653
 30
0.0
 11
176.4989751805923
 21
283.8758684993779
 31
0.0
1001
PE_URL
1000
t
  0
LINE
  5
52F
  8
0
 10
176.4989751805923
 20
283.8758684993779
 30
0.0
 11
176.9984772931153
 21
285.0817732738653
 31
0.0
1001
PE_URL
1000
t
  0
LINE
  5
530
  8
0
 10
176.9984772931153
 20
285.0817732738653
 30
0.0
 11
177.7930704061047
 21
286.117307179798
 31
0.0
1001
PE_URL
1000
t
  0
LINE
  5
531
  8
0
 10
177.7930704061047
 20
286.117307179798
 30
0.0
 11
178.8286043120376
 21
286.9119002927875
 31
0.0
1001
PE_URL
1000
t
  0
LINE
  5
532
  8
0
 10
178.8286043120376
 20
286.9119002927875
 30
0.0
 11
180.034509086525
 21
287.4114024053107
 31
0.0
1001
PE_URL
1000
t
  0
LINE
  5
533
  8
0
 10
180.034509086525
 20
287.4114024053107
 30
0.0
 11
181.3286043120376
 21
287.5817732738653
 31
0.0
1001
PE_URL
1000
t
  0
LINE
  5
534
  8
0
 10
181.3286043120376
 20
287.5817732738653
 30
0.0
 11
182.6226995375501
 21
287.4114024053107
 31
0.0
1001
PE_URL
1000
t
  0
LINE
  5
535
  8
0
 10
182.6226995375501
 20
287.4114024053107
 30
0.0
 11
183.8286043120376
 21
286.9119002927875
 31
0.0
1001
PE_URL
1000
t
  0
LINE
  5
536
  8
0
 10
183.8286043120376
 20
286.9119002927875
 30
0.0
 11
184.8641382179702
 21
286.117307179798
 31
0.0
1001
PE_URL
1000
t
  0
LINE
  5
537
  8
0
 10
184.8641382179702
 20
286.117307179798
 30
0.0
 11
185.6587313309598
 21
285.0817732738653
 31
0.0
1001
PE_URL
1000
t
  0
LINE
  5
538
  8
0
 10
185.6587313309598
 20
285.0817732738653
 30
0.0
 11
186.1582334434828
 21
283.8758684993779
 31
0.0
1001
PE_URL
1000
t
  0
LINE
  5
539
  8
0
 10
186.1582334434828
 20
283.8758684993779
 30
0.0
 11
186.3286043120376
 21
282.5817732738653
 31
0.0
1001
PE_URL
1000
t
  0
LINE
  5
53A
  8
0
 10
186.3286043120376
 20
282.5817732738653
 30
0.0
 11
186.1582334434828
 21
281.2876780483527
 31
0.0
1001
PE_URL
1000
t
  0
LINE
  5
53B
  8
0
 10
186.1582334434828
 20
281.2876780483527
 30
0.0
 11
185.6587313309598
 21
280.0817732738653
 31
0.0
1001
PE_URL
1000
t
  0
LINE
  5
53C
  8
0
 10
185.6587313309598
 20
280.0817732738653
 30
0.0
 11
184.8641382179702
 21
279.0462393679326
 31
0.0
1001
PE_URL
1000
t
  0
LINE
  5
53D
  8
0
 10
184.8641382179702
 20
279.0462393679326
 30
0.0
 11
183.8286043120376
 21
278.2516462549431
 31
0.0
1001
PE_URL
1000
t
  0
LINE
  5
53E
  8
0
 10
183.8286043120376
 20
278.2516462549431
 30
0.0
 11
182.6226995375501
 21
277.75214414242
 31
0.0
1001
PE_URL
1000
t
  0
LINE
  5
53F
  8
0
 10
182.6226995375501
 20
277.75214414242
 30
0.0
 11
181.3286043120376
 21
277.5817732738653
 31
0.0
1001
PE_URL
1000
t
  0
LINE
  5
540
  8
0
 10
181.3286043120376
 20
277.5817732738653
 30
0.0
 11
180.034509086525
 21
277.75214414242
 31
0.0
1001
PE_URL
1000
t
  0
LINE
  5
541
  8
0
 10
180.034509086525
 20
277.75214414242
 30
0.0
 11
178.8286043120376
 21
278.2516462549431
 31
0.0
1001
PE_URL
1000
t
  0
LINE
  5
542
  8
0
 10
178.8286043120376
 20
278.2516462549431
 30
0.0
 11
177.7930704061047
 21
279.0462393679326
 31
0.0
1001
PE_URL
1000
t
  0
LINE
  5
543
  8
0
 10
177.7930704061047
 20
279.0462393679326
 30
0.0
 11
176.9984772931153
 21
280.0817732738653
 31
0.0
1001
PE_URL
1000
t
  0
LINE
  5
544
  8
0
 10
176.9984772931153
 20
280.0817732738653
 30
0.0
 11
176.4989751805923
 21
281.2876780483527
 31
0.0
1001
PE_URL
1000
t
  0
LINE
  5
545
  8
0
 10
176.4989751805923
 20
281.2876780483527
 30
0.0
 11
176.3286043120376
 21
282.5817732738653
 31
0.0
1001
PE_URL
1000
t
  0
LINE
  5
546
  8
0
 10
26.32860431203756
 20
282.5817732738653
 30
0.0
 11
26.15823344348291
 21
281.2876780483527
 31
0.0
1001
PE_URL
1000
t
  0
LINE
  5
547
  8
0
 10
26.15823344348291
 20
281.2876780483527
 30
0.0
 11
25.65873133095977
 21
280.0817732738653
 31
0.0
1001
PE_URL
1000
t
  0
LINE
  5
548
  8
0
 10
25.65873133095977
 20
280.0817732738653
 30
0.0
 11
24.86413821797032
 21
279.0462393679326
 31
0.0
1001
PE_URL
1000
t
  0
LINE
  5
549
  8
0
 10
24.86413821797032
 20
279.0462393679326
 30
0.0
 11
23.82860431203756
 21
278.2516462549431
 31
0.0
1001
PE_URL
1000
t
  0
LINE
  5
54A
  8
0
 10
23.82860431203756
 20
278.2516462549431
 30
0.0
 11
22.62269953755015
 21
277.75214414242
 31
0.0
1001
PE_URL
1000
t
  0
LINE
  5
54B
  8
0
 10
22.62269953755015
 20
277.75214414242
 30
0.0
 11
21.32860431203756
 21
277.5817732738653
 31
0.0
1001
PE_URL
1000
t
  0
LINE
  5
54C
  8
0
 10
21.32860431203756
 20
277.5817732738653
 30
0.0
 11
20.03450908652496
 21
277.75214414242
 31
0.0
1001
PE_URL
1000
t
  0
LINE
  5
54D
  8
0
 10
20.03450908652496
 20
277.75214414242
 30
0.0
 11
18.82860431203756
 21
278.2516462549431
 31
0.0
1001
PE_URL
1000
t
  0
LINE
  5
54E
  8
0
 10
18.82860431203756
 20
278.2516462549431
 30
0.0
 11
17.79307040610479
 21
279.0462393679326
 31
0.0
1001
PE_URL
1000
t
  0
LINE
  5
54F
  8
0
 10
17.79307040610479
 20
279.0462393679326
 30
0.0
 11
16.99847729311534
 21
280.0817732738653
 31
0.0
1001
PE_URL
1000
t
  0
LINE
  5
550
  8
0
 10
16.99847729311534
 20
280.0817732738653
 30
0.0
 11
16.4989751805922
 21
281.2876780483527
 31
0.0
1001
PE_URL
1000
t
  0
LINE
  5
551
  8
0
 10
16.4989751805922
 20
281.2876780483527
 30
0.0
 11
16.32860431203756
 21
282.5817732738653
 31
0.0
1001
PE_URL
1000
t
  0
LINE
  5
552
  8
0
 10
16.32860431203756
 20
282.5817732738653
 30
0.0
 11
16.4989751805922
 21
283.8758684993779
 31
0.0
1001
PE_URL
1000
t
  0
LINE
  5
553
  8
0
 10
16.4989751805922
 20
283.8758684993779
 30
0.0
 11
16.99847729311523
 21
285.0817732738653
 31
0.0
1001
PE_URL
1000
t
  0
LINE
  5
554
  8
0
 10
16.99847729311523
 20
285.0817732738653
 30
0.0
 11
17.79307040610479
 21
286.117307179798
 31
0.0
1001
PE_URL
1000
t
  0
LINE
  5
555
  8
0
 10
17.79307040610479
 20
286.117307179798
 30
0.0
 11
18.82860431203744
 21
286.9119002927875
 31
0.0
1001
PE_URL
1000
t
  0
LINE
  5
556
  8
0
 10
18.82860431203744
 20
286.9119002927875
 30
0.0
 11
20.03450908652485
 21
287.4114024053106
 31
0.0
1001
PE_URL
1000
t
  0
LINE
  5
557
  8
0
 10
20.03450908652485
 20
287.4114024053106
 30
0.0
 11
21.32860431203756
 21
287.5817732738653
 31
0.0
1001
PE_URL
1000
t
  0
LINE
  5
558
  8
0
 10
21.32860431203756
 20
287.5817732738653
 30
0.0
 11
22.62269953755015
 21
287.4114024053106
 31
0.0
1001
PE_URL
1000
t
  0
LINE
  5
559
  8
0
 10
22.62269953755015
 20
287.4114024053106
 30
0.0
 11
23.82860431203756
 21
286.9119002927875
 31
0.0
1001
PE_URL
1000
t
  0
LINE
  5
55A
  8
0
 10
23.82860431203756
 20
286.9119002927875
 30
0.0
 11
24.86413821797032
 21
286.117307179798
 31
0.0
1001
PE_URL
1000
t
  0
LINE
  5
55B
  8
0
 10
24.86413821797032
 20
286.117307179798
 30
0.0
 11
25.65873133095977
 21
285.0817732738653
 31
0.0
1001
PE_URL
1000
t
  0
LINE
  5
55C
  8
0
 10
25.65873133095977
 20
285.0817732738653
 30
0.0
 11
26.15823344348291
 21
283.8758684993779
 31
0.0
1001
PE_URL
1000
t
  0
LINE
  5
55D
  8
0
 10
26.15823344348291
 20
283.8758684993779
 30
0.0
 11
26.32860431203756
 21
282.5817732738653
 31
0.0
1001
PE_URL
1000
t
  0
LINE
  5
55E
  8
0
 10
21.32860431203756
 20
305.5817732738653
 30
0.0
 11
20.03450908652496
 21
305.75214414242
 31
0.0
1001
PE_URL
1000
t
  0
LINE
  5
55F
  8
0
 10
20.03450908652496
 20
305.75214414242
 30
0.0
 11
18.82860431203756
 21
306.2516462549431
 31
0.0
1001
PE_URL
1000
t
  0
LINE
  5
560
  8
0
 10
18.82860431203756
 20
306.2516462549431
 30
0.0
 11
17.79307040610479
 21
307.0462393679326
 31
0.0
1001
PE_URL
1000
t
  0
LINE
  5
561
  8
0
 10
17.79307040610479
 20
307.0462393679326
 30
0.0
 11
16.99847729311523
 21
308.0817732738653
 31
0.0
1001
PE_URL
1000
t
  0
LINE
  5
562
  8
0
 10
16.99847729311523
 20
308.0817732738653
 30
0.0
 11
16.4989751805922
 21
309.2876780483527
 31
0.0
1001
PE_URL
1000
t
  0
LINE
  5
563
  8
0
 10
16.4989751805922
 20
309.2876780483527
 30
0.0
 11
16.32860431203744
 21
310.5817732738653
 31
0.0
1001
PE_URL
1000
t
  0
LINE
  5
564
  8
0
 10
16.32860431203744
 20
310.5817732738653
 30
0.0
 11
16.4989751805922
 21
311.8758684993779
 31
0.0
1001
PE_URL
1000
t
  0
LINE
  5
565
  8
0
 10
16.4989751805922
 20
311.8758684993779
 30
0.0
 11
16.99847729311523
 21
313.0817732738653
 31
0.0
1001
PE_URL
1000
t
  0
LINE
  5
566
  8
0
 10
16.99847729311523
 20
313.0817732738653
 30
0.0
 11
17.79307040610479
 21
314.117307179798
 31
0.0
1001
PE_URL
1000
t
  0
LINE
  5
567
  8
0
 10
18.82860431203744
 20
314.9119002927875
 30
0.0
 11
20.03450908652485
 21
315.4114024053106
 31
0.0
1001
PE_URL
1000
t
  0
LINE
  5
568
  8
0
 10
20.03450908652485
 20
315.4114024053106
 30
0.0
 11
21.32860431203744
 21
315.5817732738653
 31
0.0
1001
PE_URL
1000
t
  0
LINE
  5
569
  8
0
 10
21.32860431203744
 20
315.5817732738653
 30
0.0
 11
22.62269953755003
 21
315.4114024053106
 31
0.0
1001
PE_URL
1000
t
  0
LINE
  5
56A
  8
0
 10
22.62269953755003
 20
315.4114024053106
 30
0.0
 11
23.82860431203744
 21
314.9119002927875
 31
0.0
1001
PE_URL
1000
t
  0
LINE
  5
56B
  8
0
 10
24.86413821797032
 20
314.117307179798
 30
0.0
 11
25.65873133095977
 21
313.0817732738653
 31
0.0
1001
PE_URL
1000
t
  0
LINE
  5
56C
  8
0
 10
25.65873133095977
 20
313.0817732738653
 30
0.0
 11
26.15823344348291
 21
311.8758684993779
 31
0.0
1001
PE_URL
1000
t
  0
LINE
  5
56D
  8
0
 10
26.15823344348291
 20
311.8758684993779
 30
0.0
 11
26.32860431203756
 21
310.5817732738653
 31
0.0
1001
PE_URL
1000
t
  0
LINE
  5
56E
  8
0
 10
26.32860431203756
 20
310.5817732738653
 30
0.0
 11
26.15823344348291
 21
309.2876780483527
 31
0.0
1001
PE_URL
1000
t
  0
LINE
  5
56F
  8
0
 10
26.15823344348291
 20
309.2876780483527
 30
0.0
 11
25.65873133095977
 21
308.0817732738653
 31
0.0
1001
PE_URL
1000
t
  0
LINE
  5
570
  8
0
 10
25.65873133095977
 20
308.0817732738653
 30
0.0
 11
24.86413821797032
 21
307.0462393679326
 31
0.0
1001
PE_URL
1000
t
  0
LINE
  5
571
  8
0
 10
24.86413821797032
 20
307.0462393679326
 30
0.0
 11
23.82860431203756
 21
306.2516462549431
 31
0.0
1001
PE_URL
1000
t
  0
LINE
  5
572
  8
0
 10
23.82860431203756
 20
306.2516462549431
 30
0.0
 11
22.62269953755015
 21
305.75214414242
 31
0.0
1001
PE_URL
1000
t
  0
LINE
  5
573
  8
0
 10
22.62269953755015
 20
305.75214414242
 30
0.0
 11
21.32860431203756
 21
305.5817732738653
 31
0.0
1001
PE_URL
1000
t
  0
LINE
  5
574
  8
0
 10
176.3286043120376
 20
310.5817732738653
 30
0.0
 11
176.4989751805923
 21
311.8758684993779
 31
0.0
1001
PE_URL
1000
t
  0
LINE
  5
575
  8
0
 10
176.4989751805923
 20
311.8758684993779
 30
0.0
 11
176.9984772931153
 21
313.0817732738653
 31
0.0
1001
PE_URL
1000
t
  0
LINE
  5
576
  8
0
 10
176.9984772931153
 20
313.0817732738653
 30
0.0
 11
177.7930704061047
 21
314.117307179798
 31
0.0
1001
PE_URL
1000
t
  0
LINE
  5
577
  8
0
 10
177.7930704061047
 20
314.117307179798
 30
0.0
 11
178.8286043120376
 21
314.9119002927875
 31
0.0
1001
PE_URL
1000
t
  0
LINE
  5
578
  8
0
 10
178.8286043120376
 20
314.9119002927875
 30
0.0
 11
180.034509086525
 21
315.4114024053106
 31
0.0
1001
PE_URL
1000
t
  0
LINE
  5
579
  8
0
 10
182.6226995375501
 20
315.4114024053106
 30
0.0
 11
183.8286043120376
 21
314.9119002927875
 31
0.0
1001
PE_URL
1000
t
  0
LINE
  5
57A
  8
0
 10
183.8286043120376
 20
314.9119002927875
 30
0.0
 11
184.8641382179702
 21
314.117307179798
 31
0.0
1001
PE_URL
1000
t
  0
LINE
  5
57B
  8
0
 10
184.8641382179702
 20
314.117307179798
 30
0.0
 11
185.6587313309598
 21
313.0817732738653
 31
0.0
1001
PE_URL
1000
t
  0
LINE
  5
57C
  8
0
 10
185.6587313309598
 20
313.0817732738653
 30
0.0
 11
186.1582334434828
 21
311.8758684993779
 31
0.0
1001
PE_URL
1000
t
  0
LINE
  5
57D
  8
0
 10
186.1582334434828
 20
311.8758684993779
 30
0.0
 11
186.3286043120376
 21
310.5817732738653
 31
0.0
1001
PE_URL
1000
t
  0
LINE
  5
57E
  8
0
 10
186.3286043120376
 20
310.5817732738653
 30
0.0
 11
186.1582334434828
 21
309.2876780483527
 31
0.0
1001
PE_URL
1000
t
  0
LINE
  5
57F
  8
0
 10
186.1582334434828
 20
309.2876780483527
 30
0.0
 11
185.6587313309598
 21
308.0817732738653
 31
0.0
1001
PE_URL
1000
t
  0
LINE
  5
580
  8
0
 10
185.6587313309598
 20
308.0817732738653
 30
0.0
 11
184.8641382179702
 21
307.0462393679326
 31
0.0
1001
PE_URL
1000
t
  0
LINE
  5
581
  8
0
 10
184.8641382179702
 20
307.0462393679326
 30
0.0
 11
183.8286043120376
 21
306.2516462549431
 31
0.0
1001
PE_URL
1000
t
  0
LINE
  5
582
  8
0
 10
183.8286043120376
 20
306.2516462549431
 30
0.0
 11
182.6226995375501
 21
305.75214414242
 31
0.0
1001
PE_URL
1000
t
  0
LINE
  5
583
  8
0
 10
182.6226995375501
 20
305.75214414242
 30
0.0
 11
181.3286043120376
 21
305.5817732738653
 31
0.0
1001
PE_URL
1000
t
  0
LINE
  5
584
  8
0
 10
181.3286043120376
 20
305.5817732738653
 30
0.0
 11
180.034509086525
 21
305.75214414242
 31
0.0
1001
PE_URL
1000
t
  0
LINE
  5
585
  8
0
 10
180.034509086525
 20
305.75214414242
 30
0.0
 11
178.8286043120376
 21
306.2516462549431
 31
0.0
1001
PE_URL
1000
t
  0
LINE
  5
586
  8
0
 10
178.8286043120376
 20
306.2516462549431
 30
0.0
 11
177.7930704061047
 21
307.0462393679326
 31
0.0
1001
PE_URL
1000
t
  0
LINE
  5
587
  8
0
 10
177.7930704061047
 20
307.0462393679326
 30
0.0
 11
176.9984772931153
 21
308.0817732738653
 31
0.0
1001
PE_URL
1000
t
  0
LINE
  5
588
  8
0
 10
176.9984772931153
 20
308.0817732738653
 30
0.0
 11
176.4989751805923
 21
309.2876780483527
 31
0.0
1001
PE_URL
1000
t
  0
LINE
  5
589
  8
0
 10
176.4989751805923
 20
309.2876780483527
 30
0.0
 11
176.3286043120376
 21
310.5817732738653
 31
0.0
1001
PE_URL
1000
t
  0
LINE
  5
58A
  8
0
 10
21.32860431203756
 20
301.5817732738653
 30
0.0
 11
22.62269953755015
 21
301.4114024053106
 31
0.0
1001
PE_URL
1000
t
  0
LINE
  5
58B
  8
0
 10
22.62269953755015
 20
301.4114024053106
 30
0.0
 11
23.82860431203756
 21
300.9119002927875
 31
0.0
1001
PE_URL
1000
t
  0
LINE
  5
58C
  8
0
 10
23.82860431203756
 20
300.9119002927875
 30
0.0
 11
24.86413821797032
 21
300.117307179798
 31
0.0
1001
PE_URL
1000
t
  0
LINE
  5
58D
  8
0
 10
25.65873133095977
 20
299.0817732738653
 30
0.0
 11
26.15823344348291
 21
297.8758684993779
 31
0.0
1001
PE_URL
1000
t
  0
LINE
  5
58E
  8
0
 10
26.15823344348291
 20
297.8758684993779
 30
0.0
 11
26.32860431203756
 21
296.5817732738653
 31
0.0
1001
PE_URL
1000
t
  0
LINE
  5
58F
  8
0
 10
26.32860431203756
 20
296.5817732738653
 30
0.0
 11
26.15823344348291
 21
295.2876780483527
 31
0.0
1001
PE_URL
1000
t
  0
LINE
  5
590
  8
0
 10
26.15823344348291
 20
295.2876780483527
 30
0.0
 11
25.65873133095977
 21
294.0817732738653
 31
0.0
1001
PE_URL
1000
t
  0
LINE
  5
591
  8
0
 10
25.65873133095977
 20
294.0817732738653
 30
0.0
 11
24.86413821797032
 21
293.0462393679326
 31
0.0
1001
PE_URL
1000
t
  0
LINE
  5
592
  8
0
 10
24.86413821797032
 20
293.0462393679326
 30
0.0
 11
23.82860431203756
 21
292.2516462549431
 31
0.0
1001
PE_URL
1000
t
  0
LINE
  5
593
  8
0
 10
23.82860431203756
 20
292.2516462549431
 30
0.0
 11
22.62269953755015
 21
291.75214414242
 31
0.0
1001
PE_URL
1000
t
  0
LINE
  5
594
  8
0
 10
22.62269953755015
 20
291.75214414242
 30
0.0
 11
21.32860431203756
 21
291.5817732738653
 31
0.0
1001
PE_URL
1000
t
  0
LINE
  5
595
  8
0
 10
21.32860431203756
 20
291.5817732738653
 30
0.0
 11
20.03450908652496
 21
291.75214414242
 31
0.0
1001
PE_URL
1000
t
  0
LINE
  5
596
  8
0
 10
20.03450908652496
 20
291.75214414242
 30
0.0
 11
18.82860431203756
 21
292.2516462549431
 31
0.0
1001
PE_URL
1000
t
  0
LINE
  5
597
  8
0
 10
18.82860431203756
 20
292.2516462549431
 30
0.0
 11
17.79307040610479
 21
293.0462393679326
 31
0.0
1001
PE_URL
1000
t
  0
LINE
  5
598
  8
0
 10
17.79307040610479
 20
293.0462393679326
 30
0.0
 11
16.99847729311534
 21
294.0817732738653
 31
0.0
1001
PE_URL
1000
t
  0
LINE
  5
599
  8
0
 10
16.99847729311534
 20
294.0817732738653
 30
0.0
 11
16.4989751805922
 21
295.2876780483527
 31
0.0
1001
PE_URL
1000
t
  0
LINE
  5
59A
  8
0
 10
16.4989751805922
 20
295.2876780483527
 30
0.0
 11
16.32860431203756
 21
296.5817732738653
 31
0.0
1001
PE_URL
1000
t
  0
LINE
  5
59B
  8
0
 10
16.32860431203756
 20
296.5817732738653
 30
0.0
 11
16.4989751805922
 21
297.8758684993779
 31
0.0
1001
PE_URL
1000
t
  0
LINE
  5
59C
  8
0
 10
16.4989751805922
 20
297.8758684993779
 30
0.0
 11
16.99847729311534
 21
299.0817732738653
 31
0.0
1001
PE_URL
1000
t
  0
LINE
  5
59D
  8
0
 10
16.99847729311534
 20
299.0817732738653
 30
0.0
 11
17.79307040610479
 21
300.117307179798
 31
0.0
1001
PE_URL
1000
t
  0
LINE
  5
59E
  8
0
 10
17.79307040610479
 20
300.117307179798
 30
0.0
 11
18.82860431203744
 21
300.9119002927875
 31
0.0
1001
PE_URL
1000
t
  0
LINE
  5
59F
  8
0
 10
18.82860431203744
 20
300.9119002927875
 30
0.0
 11
20.03450908652496
 21
301.4114024053106
 31
0.0
1001
PE_URL
1000
t
  0
LINE
  5
5A0
  8
0
 10
20.03450908652496
 20
301.4114024053106
 30
0.0
 11
21.32860431203756
 21
301.5817732738653
 31
0.0
1001
PE_URL
1000
t
  0
LINE
  5
5A1
  8
0
 10
176.3286043120376
 20
296.5817732738653
 30
0.0
 11
176.4989751805923
 21
297.8758684993779
 31
0.0
1001
PE_URL
1000
t
  0
LINE
  5
5A2
  8
0
 10
176.4989751805923
 20
297.8758684993779
 30
0.0
 11
176.9984772931153
 21
299.0817732738653
 31
0.0
1001
PE_URL
1000
t
  0
LINE
  5
5A3
  8
0
 10
176.9984772931153
 20
299.0817732738653
 30
0.0
 11
177.7930704061047
 21
300.117307179798
 31
0.0
1001
PE_URL
1000
t
  0
LINE
  5
5A4
  8
0
 10
177.7930704061047
 20
300.117307179798
 30
0.0
 11
178.8286043120376
 21
300.9119002927875
 31
0.0
1001
PE_URL
1000
t
  0
LINE
  5
5A5
  8
0
 10
178.8286043120376
 20
300.9119002927875
 30
0.0
 11
180.034509086525
 21
301.4114024053106
 31
0.0
1001
PE_URL
1000
t
  0
LINE
  5
5A6
  8
0
 10
180.034509086525
 20
301.4114024053106
 30
0.0
 11
181.3286043120376
 21
301.5817732738653
 31
0.0
1001
PE_URL
1000
t
  0
LINE
  5
5A7
  8
0
 10
181.3286043120376
 20
301.5817732738653
 30
0.0
 11
182.6226995375501
 21
301.4114024053106
 31
0.0
1001
PE_URL
1000
t
  0
LINE
  5
5A8
  8
0
 10
182.6226995375501
 20
301.4114024053106
 30
0.0
 11
183.8286043120376
 21
300.9119002927875
 31
0.0
1001
PE_URL
1000
t
  0
LINE
  5
5A9
  8
0
 10
183.8286043120376
 20
300.9119002927875
 30
0.0
 11
184.8641382179702
 21
300.117307179798
 31
0.0
1001
PE_URL
1000
t
  0
LINE
  5
5AA
  8
0
 10
184.8641382179702
 20
300.117307179798
 30
0.0
 11
185.6587313309598
 21
299.0817732738653
 31
0.0
1001
PE_URL
1000
t
  0
LINE
  5
5AB
  8
0
 10
185.6587313309598
 20
299.0817732738653
 30
0.0
 11
186.1582334434828
 21
297.8758684993779
 31
0.0
1001
PE_URL
1000
t
  0
LINE
  5
5AC
  8
0
 10
186.1582334434828
 20
297.8758684993779
 30
0.0
 11
186.3286043120376
 21
296.5817732738653
 31
0.0
1001
PE_URL
1000
t
  0
LINE
  5
5AD
  8
0
 10
186.3286043120376
 20
296.5817732738653
 30
0.0
 11
186.1582334434828
 21
295.2876780483527
 31
0.0
1001
PE_URL
1000
t
  0
LINE
  5
5AE
  8
0
 10
186.1582334434828
 20
295.2876780483527
 30
0.0
 11
185.6587313309598
 21
294.0817732738653
 31
0.0
1001
PE_URL
1000
t
  0
LINE
  5
5AF
  8
0
 10
185.6587313309598
 20
294.0817732738653
 30
0.0
 11
184.8641382179702
 21
293.0462393679326
 31
0.0
1001
PE_URL
1000
t
  0
LINE
  5
5B0
  8
0
 10
184.8641382179702
 20
293.0462393679326
 30
0.0
 11
183.8286043120376
 21
292.2516462549431
 31
0.0
1001
PE_URL
1000
t
  0
LINE
  5
5B1
  8
0
 10
183.8286043120376
 20
292.2516462549431
 30
0.0
 11
182.6226995375501
 21
291.75214414242
 31
0.0
1001
PE_URL
1000
t
  0
LINE
  5
5B2
  8
0
 10
182.6226995375501
 20
291.75214414242
 30
0.0
 11
181.3286043120376
 21
291.5817732738653
 31
0.0
1001
PE_URL
1000
t
  0
LINE
  5
5B3
  8
0
 10
181.3286043120376
 20
291.5817732738653
 30
0.0
 11
180.034509086525
 21
291.75214414242
 31
0.0
1001
PE_URL
1000
t
  0
LINE
  5
5B4
  8
0
 10
180.034509086525
 20
291.75214414242
 30
0.0
 11
178.8286043120376
 21
292.2516462549431
 31
0.0
1001
PE_URL
1000
t
  0
LINE
  5
5B5
  8
0
 10
178.8286043120376
 20
292.2516462549431
 30
0.0
 11
177.7930704061047
 21
293.0462393679326
 31
0.0
1001
PE_URL
1000
t
  0
LINE
  5
5B6
  8
0
 10
177.7930704061047
 20
293.0462393679326
 30
0.0
 11
176.9984772931153
 21
294.0817732738653
 31
0.0
1001
PE_URL
1000
t
  0
LINE
  5
5B7
  8
0
 10
176.9984772931153
 20
294.0817732738653
 30
0.0
 11
176.4989751805923
 21
295.2876780483527
 31
0.0
1001
PE_URL
1000
t
  0
LINE
  5
5B8
  8
0
 10
176.4989751805923
 20
295.2876780483527
 30
0.0
 11
176.3286043120376
 21
296.5817732738653
 31
0.0
1001
PE_URL
1000
t
  0
LINE
  5
5B9
  8
0
 10
181.3286043120376
 20
315.5817732738653
 30
0.0
 11
182.6226995375501
 21
315.4114024053106
 31
0.0
1001
PE_URL
1000
t
  0
LINE
  5
5BA
  8
0
 10
180.034509086525
 20
315.4114024053106
 30
0.0
 11
181.3286043120376
 21
315.5817732738653
 31
0.0
1001
PE_URL
1000
t
  0
LINE
  5
5BB
  8
0
 10
181.3286043120376
 20
320.5817732738653
 30
0.0
 11
180.034509086525
 21
320.75214414242
 31
0.0
1001
PE_URL
1000
t
  0
LINE
  5
5BC
  8
0
 10
180.034509086525
 20
320.75214414242
 30
0.0
 11
178.8286043120376
 21
321.2516462549431
 31
0.0
1001
PE_URL
1000
t
  0
LINE
  5
5BD
  8
0
 10
178.8286043120376
 20
321.2516462549431
 30
0.0
 11
177.7930704061047
 21
322.0462393679326
 31
0.0
1001
PE_URL
1000
t
  0
LINE
  5
5BE
  8
0
 10
177.7930704061047
 20
322.0462393679326
 30
0.0
 11
176.9984772931153
 21
323.0817732738653
 31
0.0
1001
PE_URL
1000
t
  0
LINE
  5
5BF
  8
0
 10
176.9984772931153
 20
323.0817732738653
 30
0.0
 11
176.4989751805923
 21
324.2876780483527
 31
0.0
1001
PE_URL
1000
t
  0
LINE
  5
5C0
  8
0
 10
176.4989751805923
 20
324.2876780483527
 30
0.0
 11
176.3286043120376
 21
325.5817732738653
 31
0.0
1001
PE_URL
1000
t
  0
LINE
  5
5C1
  8
0
 10
176.3286043120376
 20
325.5817732738653
 30
0.0
 11
176.4989751805923
 21
326.8758684993779
 31
0.0
1001
PE_URL
1000
t
  0
LINE
  5
5C2
  8
0
 10
176.4989751805923
 20
326.8758684993779
 30
0.0
 11
176.9984772931153
 21
328.0817732738653
 31
0.0
1001
PE_URL
1000
t
  0
LINE
  5
5C3
  8
0
 10
176.9984772931153
 20
328.0817732738653
 30
0.0
 11
177.7930704061047
 21
329.117307179798
 31
0.0
1001
PE_URL
1000
t
  0
LINE
  5
5C4
  8
0
 10
177.7930704061047
 20
329.117307179798
 30
0.0
 11
178.8286043120376
 21
329.9119002927875
 31
0.0
1001
PE_URL
1000
t
  0
LINE
  5
5C5
  8
0
 10
178.8286043120376
 20
329.9119002927875
 30
0.0
 11
180.034509086525
 21
330.4114024053106
 31
0.0
1001
PE_URL
1000
t
  0
LINE
  5
5C6
  8
0
 10
180.034509086525
 20
330.4114024053106
 30
0.0
 11
181.3286043120376
 21
330.5817732738653
 31
0.0
1001
PE_URL
1000
t
  0
LINE
  5
5C7
  8
0
 10
181.3286043120376
 20
330.5817732738653
 30
0.0
 11
182.6226995375501
 21
330.4114024053106
 31
0.0
1001
PE_URL
1000
t
  0
LINE
  5
5C8
  8
0
 10
182.6226995375501
 20
330.4114024053106
 30
0.0
 11
183.8286043120376
 21
329.9119002927875
 31
0.0
1001
PE_URL
1000
t
  0
LINE
  5
5C9
  8
0
 10
183.8286043120376
 20
329.9119002927875
 30
0.0
 11
184.8641382179702
 21
329.117307179798
 31
0.0
1001
PE_URL
1000
t
  0
LINE
  5
5CA
  8
0
 10
184.8641382179702
 20
329.117307179798
 30
0.0
 11
185.6587313309598
 21
328.0817732738653
 31
0.0
1001
PE_URL
1000
t
  0
LINE
  5
5CB
  8
0
 10
185.6587313309598
 20
328.0817732738653
 30
0.0
 11
186.1582334434828
 21
326.8758684993779
 31
0.0
1001
PE_URL
1000
t
  0
LINE
  5
5CC
  8
0
 10
186.1582334434828
 20
326.8758684993779
 30
0.0
 11
186.3286043120376
 21
325.5817732738653
 31
0.0
1001
PE_URL
1000
t
  0
LINE
  5
5CD
  8
0
 10
186.3286043120376
 20
325.5817732738653
 30
0.0
 11
186.1582334434828
 21
324.2876780483527
 31
0.0
1001
PE_URL
1000
t
  0
LINE
  5
5CE
  8
0
 10
186.1582334434828
 20
324.2876780483527
 30
0.0
 11
185.6587313309598
 21
323.0817732738653
 31
0.0
1001
PE_URL
1000
t
  0
LINE
  5
5CF
  8
0
 10
185.6587313309598
 20
323.0817732738653
 30
0.0
 11
184.8641382179702
 21
322.0462393679326
 31
0.0
1001
PE_URL
1000
t
  0
LINE
  5
5D0
  8
0
 10
184.8641382179702
 20
322.0462393679326
 30
0.0
 11
183.8286043120376
 21
321.2516462549431
 31
0.0
1001
PE_URL
1000
t
  0
LINE
  5
5D1
  8
0
 10
183.8286043120376
 20
321.2516462549431
 30
0.0
 11
182.6226995375501
 21
320.75214414242
 31
0.0
1001
PE_URL
1000
t
  0
LINE
  5
5D2
  8
0
 10
182.6226995375501
 20
320.75214414242
 30
0.0
 11
181.3286043120376
 21
320.5817732738653
 31
0.0
1001
PE_URL
1000
t
  0
LINE
  5
5D3
  8
0
 10
21.32860431203744
 20
320.5817732738653
 30
0.0
 11
20.03450908652485
 21
320.75214414242
 31
0.0
1001
PE_URL
1000
t
  0
LINE
  5
5D4
  8
0
 10
20.03450908652485
 20
320.75214414242
 30
0.0
 11
18.82860431203744
 21
321.2516462549431
 31
0.0
1001
PE_URL
1000
t
  0
LINE
  5
5D5
  8
0
 10
18.82860431203744
 20
321.2516462549431
 30
0.0
 11
17.79307040610479
 21
322.0462393679326
 31
0.0
1001
PE_URL
1000
t
  0
LINE
  5
5D6
  8
0
 10
17.79307040610479
 20
322.0462393679326
 30
0.0
 11
16.99847729311523
 21
323.0817732738653
 31
0.0
1001
PE_URL
1000
t
  0
LINE
  5
5D7
  8
0
 10
16.99847729311523
 20
323.0817732738653
 30
0.0
 11
16.4989751805922
 21
324.2876780483527
 31
0.0
1001
PE_URL
1000
t
  0
LINE
  5
5D8
  8
0
 10
16.4989751805922
 20
324.2876780483527
 30
0.0
 11
16.32860431203756
 21
325.5817732738653
 31
0.0
1001
PE_URL
1000
t
  0
LINE
  5
5D9
  8
0
 10
16.32860431203756
 20
325.5817732738653
 30
0.0
 11
16.4989751805922
 21
326.8758684993779
 31
0.0
1001
PE_URL
1000
t
  0
LINE
  5
5DA
  8
0
 10
16.4989751805922
 20
326.8758684993779
 30
0.0
 11
16.99847729311523
 21
328.0817732738653
 31
0.0
1001
PE_URL
1000
t
  0
LINE
  5
5DB
  8
0
 10
17.79307040610479
 20
329.117307179798
 30
0.0
 11
18.82860431203744
 21
329.9119002927875
 31
0.0
1001
PE_URL
1000
t
  0
LINE
  5
5DC
  8
0
 10
18.82860431203744
 20
329.9119002927875
 30
0.0
 11
20.03450908652485
 21
330.4114024053106
 31
0.0
1001
PE_URL
1000
t
  0
LINE
  5
5DD
  8
0
 10
20.03450908652485
 20
330.4114024053106
 30
0.0
 11
21.32860431203744
 21
330.5817732738653
 31
0.0
1001
PE_URL
1000
t
  0
LINE
  5
5DE
  8
0
 10
21.32860431203744
 20
330.5817732738653
 30
0.0
 11
22.62269953755003
 21
330.4114024053106
 31
0.0
1001
PE_URL
1000
t
  0
LINE
  5
5DF
  8
0
 10
22.62269953755003
 20
330.4114024053106
 30
0.0
 11
23.82860431203744
 21
329.9119002927875
 31
0.0
1001
PE_URL
1000
t
  0
LINE
  5
5E0
  8
0
 10
23.82860431203744
 20
329.9119002927875
 30
0.0
 11
24.86413821797032
 21
329.117307179798
 31
0.0
1001
PE_URL
1000
t
  0
LINE
  5
5E1
  8
0
 10
25.65873133095965
 20
328.0817732738653
 30
0.0
 11
26.15823344348291
 21
326.8758684993779
 31
0.0
1001
PE_URL
1000
t
  0
LINE
  5
5E2
  8
0
 10
26.15823344348291
 20
326.8758684993779
 30
0.0
 11
26.32860431203756
 21
325.5817732738653
 31
0.0
1001
PE_URL
1000
t
  0
LINE
  5
5E3
  8
0
 10
26.32860431203756
 20
325.5817732738653
 30
0.0
 11
26.15823344348291
 21
324.2876780483527
 31
0.0
1001
PE_URL
1000
t
  0
LINE
  5
5E4
  8
0
 10
26.15823344348291
 20
324.2876780483527
 30
0.0
 11
25.65873133095965
 21
323.0817732738653
 31
0.0
1001
PE_URL
1000
t
  0
LINE
  5
5E5
  8
0
 10
25.65873133095965
 20
323.0817732738653
 30
0.0
 11
24.86413821797032
 21
322.0462393679326
 31
0.0
1001
PE_URL
1000
t
  0
LINE
  5
5E6
  8
0
 10
24.86413821797032
 20
322.0462393679326
 30
0.0
 11
23.82860431203756
 21
321.2516462549431
 31
0.0
1001
PE_URL
1000
t
  0
LINE
  5
5E7
  8
0
 10
23.82860431203756
 20
321.2516462549431
 30
0.0
 11
22.62269953755003
 21
320.75214414242
 31
0.0
1001
PE_URL
1000
t
  0
LINE
  5
5E8
  8
0
 10
22.62269953755003
 20
320.75214414242
 30
0.0
 11
21.32860431203744
 21
320.5817732738653
 31
0.0
1001
PE_URL
1000
t
  0
LINE
  5
5E9
  8
0
 10
41.32860431203778
 20
352.5817732738653
 30
0.0
 11
61.32860431203778
 21
352.5817732738653
 31
0.0
1001
PE_URL
1000
t
  0
LINE
  5
5EA
  8
0
 10
1.328604312037783
 20
312.5817732738653
 30
0.0
 11
1.328604312037783
 21
318.208230479598
 31
0.0
1001
PE_URL
1000
t
  0
LINE
  5
5EB
  8
0
 10
151.3286043120374
 20
292.0422580597401
 30
0.0
 11
151.3286043120374
 21
292.5817732738653
 31
0.0
1001
PE_URL
1000
t
  0
LINE
  5
5EC
  8
0
 10
181.3286043120378
 20
352.5817732738653
 30
0.0
 11
161.3286043120378
 21
352.5817732738653
 31
0.0
1001
PE_URL
1000
t
  0
LINE
  5
5ED
  8
0
 10
161.3286043120378
 20
352.5817732738653
 30
0.0
 11
141.3286043120378
 21
352.5817732738653
 31
0.0
1001
PE_URL
1000
t
  0
LINE
  5
5EE
  8
0
 10
17.79307040610479
 20
314.117307179798
 30
0.0
 11
17.91156395738665
 21
314.2082304795981
 31
0.0
1001
PE_URL
1000
t
  0
LINE
  5
5EF
  8
0
 10
17.91156395738665
 20
314.2082304795981
 30
0.0
 11
18.82860431203744
 21
314.9119002927875
 31
0.0
1001
PE_URL
1000
t
  0
LINE
  5
5F0
  8
0
 10
23.82860431203744
 20
314.9119002927875
 30
0.0
 11
24.74564466668824
 21
314.2082304795981
 31
0.0
1001
PE_URL
1000
t
  0
LINE
  5
5F1
  8
0
 10
24.74564466668824
 20
314.2082304795981
 30
0.0
 11
24.86413821797032
 21
314.117307179798
 31
0.0
1001
PE_URL
1000
t
  0
LINE
  5
5F2
  8
0
 10
24.86413821797032
 20
300.117307179798
 30
0.0
 11
25.3286043120379
 21
299.5120031811846
 31
0.0
1001
PE_URL
1000
t
  0
LINE
  5
5F3
  8
0
 10
25.3286043120379
 20
299.5120031811846
 30
0.0
 11
25.65873133095977
 21
299.0817732738653
 31
0.0
1001
PE_URL
1000
t
  0
LINE
  5
5F4
  8
0
 10
16.99847729311523
 20
328.0817732738653
 30
0.0
 11
17.09551131989861
 21
328.2082304795981
 31
0.0
1001
PE_URL
1000
t
  0
LINE
  5
5F5
  8
0
 10
17.09551131989861
 20
328.2082304795981
 30
0.0
 11
17.79307040610479
 21
329.117307179798
 31
0.0
1001
PE_URL
1000
t
  0
LINE
  5
5F6
  8
0
 10
24.86413821797032
 20
329.117307179798
 30
0.0
 11
25.5616973041765
 21
328.2082304795981
 31
0.0
1001
PE_URL
1000
t
  0
LINE
  5
5F7
  8
0
 10
25.5616973041765
 20
328.2082304795981
 30
0.0
 11
25.65873133095965
 21
328.0817732738653
 31
0.0
1001
PE_URL
1000
t
  0
LINE
  5
5F8
  8
0
 10
1.328604312037783
 20
318.208230479598
 30
0.0
 11
1.328604312037783
 21
324.208230479598
 31
0.0
1001
PE_URL
1000
t
  0
LINE
  5
5F9
  8
0
 10
98.18609170801938
 20
352.5817732738653
 30
0.0
 11
104.1860917080194
 21
352.5817732738653
 31
0.0
1001
PE_URL
1000
t
  0
LINE
  5
5FA
  8
0
 10
98.18609170801938
 20
352.5817732738653
 30
0.0
 11
81.32860431203778
 21
352.5817732738653
 31
0.0
1001
PE_URL
1000
t
  0
LINE
  5
5FB
  8
0
 10
121.3286043120378
 20
352.5817732738653
 30
0.0
 11
104.1860917080194
 21
352.5817732738653
 31
0.0
1001
PE_URL
1000
t
  0
LINE
  5
5FC
  8
0
 10
1.328604312037783
 20
332.5817732738653
 30
0.0
 11
1.328604312037783
 21
324.208230479598
 31
0.0
1001
PE_URL
1000
t
  0
LINE
  5
5FD
  8
0
 10
151.3286043120374
 20
292.5817732738653
 30
0.0
 11
51.32860431203744
 21
292.5817732738653
 31
0.0
1001
PE_URL
1000
t
  0
LINE
  5
5FE
  8
0
 10
51.32860431203744
 20
332.5817732738653
 30
0.0
 11
151.3286043120374
 21
332.5817732738653
 31
0.0
1001
PE_URL
1000
t
  0
LINE
  5
5FF
  8
0
 10
21.3286043120379
 20
352.5817732738653
 30
0.0
 11
41.32860431203778
 21
352.5817732738653
 31
0.0
1001
PE_URL
1000
t
  0
LINE
  5
600
  8
0
 10
197.3286043120378
 20
256.5817732738653
 30
0.0
 11
181.3286043120378
 21
256.5817732738653
 31
0.0
1001
PE_URL
1000
t
  0
LINE
  5
601
  8
0
 10
21.3286043120379
 20
348.5817732738653
 30
0.0
 11
5.328604312037783
 21
348.5817732738653
 31
0.0
1001
PE_URL
1000
t
  0
LINE
  5
602
  8
0
 10
5.328604312037783
 20
348.5817732738653
 30
0.0
 11
5.328604312037783
 21
332.5817732738653
 31
0.0
1001
PE_URL
1000
t
  0
LINE
  5
603
  8
0
 10
5.328604312037783
 20
312.5817732738653
 30
0.0
 11
5.328604312037783
 21
292.5817732738653
 31
0.0
1001
PE_URL
1000
t
  0
LINE
  5
604
  8
0
 10
81.32860431203778
 20
256.5817732738653
 30
0.0
 11
61.32860431203778
 21
256.5817732738653
 31
0.0
1001
PE_URL
1000
t
  0
LINE
  5
605
  8
0
 10
21.23954888731339
 20
248.3281545126264
 30
0.0
 11
21.23954888731339
 21
244.3281545126264
 31
0.0
1001
PE_URL
1000
t
  0
LINE
  5
606
  8
0
 10
181.2395488873134
 20
248.3281545126264
 30
0.0
 11
181.2395488873134
 21
244.3281545126264
 31
0.0
1001
PE_URL
1000
t
  0
LINE
  5
607
  8
0
 10
61.23954888731339
 20
248.3281545126264
 30
0.0
 11
61.23954888731339
 21
244.3281545126264
 31
0.0
1001
PE_URL
1000
t
  0
LINE
  5
608
  8
0
 10
141.2395488873133
 20
248.3281545126264
 30
0.0
 11
141.2395488873133
 21
244.3281545126264
 31
0.0
1001
PE_URL
1000
t
  0
LINE
  5
609
  8
0
 10
21.23954888731339
 20
248.3281545126264
 30
0.0
 11
61.23954888731339
 21
248.3281545126264
 31
0.0
1001
PE_URL
1000
t
  0
LINE
  5
60A
  8
0
 10
201.2395488873134
 20
244.3281545126264
 30
0.0
 11
201.2395488873132
 21
228.3281545126264
 31
0.0
1001
PE_URL
1000
t
  0
LINE
  5
60B
  8
0
 10
141.2395488873133
 20
248.3281545126264
 30
0.0
 11
181.2395488873134
 21
248.3281545126264
 31
0.0
1001
PE_URL
1000
t
  0
LINE
  5
60C
  8
0
 10
1.239548887313163
 20
152.3281545126264
 30
0.0
 11
1.23954888731339
 21
244.3281545126264
 31
0.0
1001
PE_URL
1000
t
  0
LINE
  5
60D
  8
0
 10
61.23954888731328
 20
148.3281545126264
 30
0.0
 11
21.23954888731339
 21
148.3281545126264
 31
0.0
1001
PE_URL
1000
t
  0
LINE
  5
60E
  8
0
 10
181.2395488873132
 20
148.3281545126264
 30
0.0
 11
141.2395488873133
 21
148.3281545126264
 31
0.0
1001
PE_URL
1000
t
  0
LINE
  5
60F
  8
0
 10
141.2395488873133
 20
152.3281545126264
 30
0.0
 11
61.23954888731339
 21
152.3281545126264
 31
0.0
1001
PE_URL
1000
t
  0
LINE
  5
610
  8
0
 10
181.2395488873134
 20
152.3281545126264
 30
0.0
 11
181.2395488873132
 21
148.3281545126264
 31
0.0
1001
PE_URL
1000
t
  0
LINE
  5
611
  8
0
 10
61.23954888731339
 20
152.3281545126264
 30
0.0
 11
61.23954888731328
 21
148.3281545126264
 31
0.0
1001
PE_URL
1000
t
  0
LINE
  5
612
  8
0
 10
21.23954888731339
 20
152.3281545126264
 30
0.0
 11
21.23954888731339
 21
148.3281545126264
 31
0.0
1001
PE_URL
1000
t
  0
LINE
  5
613
  8
0
 10
141.2395488873133
 20
152.3281545126264
 30
0.0
 11
141.2395488873133
 21
148.3281545126264
 31
0.0
1001
PE_URL
1000
t
  0
LINE
  5
614
  8
0
 10
201.2395488873132
 20
228.3281545126264
 30
0.0
 11
197.2395488873136
 21
228.3281545126264
 31
0.0
1001
PE_URL
1000
t
  0
LINE
  5
615
  8
0
 10
197.2395488873136
 20
228.3281545126264
 30
0.0
 11
197.2395488873136
 21
208.3281545126264
 31
0.0
1001
PE_URL
1000
t
  0
LINE
  5
616
  8
0
 10
197.2395488873136
 20
208.3281545126264
 30
0.0
 11
201.2395488873132
 21
208.3281545126264
 31
0.0
1001
PE_URL
1000
t
  0
LINE
  5
617
  8
0
 10
197.2395488873136
 20
168.3281545126264
 30
0.0
 11
197.2395488873136
 21
188.3281545126264
 31
0.0
1001
PE_URL
1000
t
  0
LINE
  5
618
  8
0
 10
197.2395488873136
 20
188.3281545126264
 30
0.0
 11
201.2395488873134
 21
188.3281545126264
 31
0.0
1001
PE_URL
1000
t
  0
LINE
  5
619
  8
0
 10
201.2395488873132
 20
168.3281545126263
 30
0.0
 11
197.2395488873136
 21
168.3281545126264
 31
0.0
1001
PE_URL
1000
t
  0
LINE
  5
61A
  8
0
 10
61.23954888731339
 20
208.3281545126264
 30
0.0
 11
121.2395488873134
 21
208.3281545126264
 31
0.0
1001
PE_URL
1000
t
  0
LINE
  5
61B
  8
0
 10
121.2395488873134
 20
208.3281545126264
 30
0.0
 11
121.2395488873134
 21
228.3281545126264
 31
0.0
1001
PE_URL
1000
t
  0
LINE
  5
61C
  8
0
 10
121.2395488873134
 20
228.3281545126264
 30
0.0
 11
61.23954888731339
 21
228.3281545126264
 31
0.0
1001
PE_URL
1000
t
  0
LINE
  5
61D
  8
0
 10
61.23954888731339
 20
228.3281545126264
 30
0.0
 11
61.23954888731339
 21
208.3281545126264
 31
0.0
1001
PE_URL
1000
t
  0
LINE
  5
61E
  8
0
 10
158.4211345355994
 20
203.9232583623473
 30
0.0
 11
158.8184310920943
 21
203.405491409381
 31
0.0
1001
PE_URL
1000
t
  0
LINE
  5
61F
  8
0
 10
158.8184310920943
 20
203.405491409381
 30
0.0
 11
159.0681821483557
 21
202.8025390221374
 31
0.0
1001
PE_URL
1000
t
  0
LINE
  5
620
  8
0
 10
159.0681821483557
 20
202.8025390221374
 30
0.0
 11
159.1533675826332
 21
202.1554914093813
 31
0.0
1001
PE_URL
1000
t
  0
LINE
  5
621
  8
0
 10
159.1533675826332
 20
202.1554914093813
 30
0.0
 11
159.0681821483562
 21
201.508443796625
 31
0.0
1001
PE_URL
1000
t
  0
LINE
  5
622
  8
0
 10
159.0681821483562
 20
201.508443796625
 30
0.0
 11
158.8184310920941
 21
200.9054914093809
 31
0.0
1001
PE_URL
1000
t
  0
LINE
  5
623
  8
0
 10
158.8184310920941
 20
200.9054914093809
 30
0.0
 11
158.4211345356001
 21
200.3877244564161
 31
0.0
1001
PE_URL
1000
t
  0
LINE
  5
624
  8
0
 10
158.4211345356001
 20
200.3877244564161
 30
0.0
 11
157.9033675826332
 21
199.9904278999201
 31
0.0
1001
PE_URL
1000
t
  0
LINE
  5
625
  8
0
 10
157.9033675826332
 20
199.9904278999201
 30
0.0
 11
157.3004151953893
 21
199.7406768436585
 31
0.0
1001
PE_URL
1000
t
  0
LINE
  5
626
  8
0
 10
157.3004151953893
 20
199.7406768436585
 30
0.0
 11
156.6533675826335
 21
199.6554914093813
 31
0.0
1001
PE_URL
1000
t
  0
LINE
  5
627
  8
0
 10
156.6533675826335
 20
199.6554914093813
 30
0.0
 11
156.006319969877
 21
199.7406768436586
 31
0.0
1001
PE_URL
1000
t
  0
LINE
  5
628
  8
0
 10
156.006319969877
 20
199.7406768436586
 30
0.0
 11
155.4033675826328
 21
199.9904278999198
 31
0.0
1001
PE_URL
1000
t
  0
LINE
  5
629
  8
0
 10
155.4033675826328
 20
199.9904278999198
 30
0.0
 11
154.8856006296668
 21
200.3877244564148
 31
0.0
1001
PE_URL
1000
t
  0
LINE
  5
62A
  8
0
 10
154.8856006296668
 20
200.3877244564148
 30
0.0
 11
133.6723971940703
 21
221.6009278920113
 31
0.0
1001
PE_URL
1000
t
  0
LINE
  5
62B
  8
0
 10
137.2079311000033
 20
225.136461797944
 30
0.0
 11
158.4211345355994
 21
203.9232583623473
 31
0.0
1001
PE_URL
1000
t
  0
LINE
  5
62C
  8
0
 10
133.6723971940703
 20
221.6009278920113
 30
0.0
 11
133.2751006375755
 21
222.1186948449775
 31
0.0
1001
PE_URL
1000
t
  0
LINE
  5
62D
  8
0
 10
133.2751006375755
 20
222.1186948449775
 30
0.0
 11
133.0253495813142
 21
222.7216472322212
 31
0.0
1001
PE_URL
1000
t
  0
LINE
  5
62E
  8
0
 10
133.0253495813142
 20
222.7216472322212
 30
0.0
 11
132.9401641470369
 21
223.3686948449775
 31
0.0
1001
PE_URL
1000
t
  0
LINE
  5
62F
  8
0
 10
132.9401641470369
 20
223.3686948449775
 30
0.0
 11
133.0253495813142
 21
224.0157424577339
 31
0.0
1001
PE_URL
1000
t
  0
LINE
  5
630
  8
0
 10
133.0253495813142
 20
224.0157424577339
 30
0.0
 11
133.2751006375755
 21
224.6186948449775
 31
0.0
1001
PE_URL
1000
t
  0
LINE
  5
631
  8
0
 10
133.2751006375755
 20
224.6186948449775
 30
0.0
 11
133.6723971940705
 21
225.136461797944
 31
0.0
1001
PE_URL
1000
t
  0
LINE
  5
632
  8
0
 10
133.6723971940705
 20
225.136461797944
 30
0.0
 11
134.1901641470367
 21
225.5337583544386
 31
0.0
1001
PE_URL
1000
t
  0
LINE
  5
633
  8
0
 10
134.1901641470367
 20
225.5337583544386
 30
0.0
 11
134.7931165342804
 21
225.7835094107003
 31
0.0
1001
PE_URL
1000
t
  0
LINE
  5
634
  8
0
 10
134.7931165342804
 20
225.7835094107003
 30
0.0
 11
135.4401641470369
 21
225.8686948449775
 31
0.0
1001
PE_URL
1000
t
  0
LINE
  5
635
  8
0
 10
135.4401641470369
 20
225.8686948449775
 30
0.0
 11
136.0872117597934
 21
225.7835094107003
 31
0.0
1001
PE_URL
1000
t
  0
LINE
  5
636
  8
0
 10
136.0872117597934
 20
225.7835094107003
 30
0.0
 11
136.6901641470366
 21
225.5337583544386
 31
0.0
1001
PE_URL
1000
t
  0
LINE
  5
637
  8
0
 10
136.6901641470366
 20
225.5337583544386
 30
0.0
 11
137.2079311000033
 21
225.136461797944
 31
0.0
1001
PE_URL
1000
t
  0
LINE
  5
638
  8
0
 10
170.2293473835231
 20
225.7835094107
 30
0.0
 11
170.8322997707668
 21
225.5337583544385
 31
0.0
1001
PE_URL
1000
t
  0
LINE
  5
639
  8
0
 10
169.582299770767
 20
225.8686948449775
 30
0.0
 11
170.2293473835231
 21
225.7835094107
 31
0.0
1001
PE_URL
1000
t
  0
LINE
  5
63A
  8
0
 10
167.8145328178006
 20
225.1364617979439
 30
0.0
 11
168.3322997707668
 21
225.5337583544385
 31
0.0
1001
PE_URL
1000
t
  0
LINE
  5
63B
  8
0
 10
167.8145328178003
 20
221.600927892011
 30
0.0
 11
167.4172362613059
 21
222.1186948449775
 31
0.0
1001
PE_URL
1000
t
  0
LINE
  5
63C
  8
0
 10
168.9352521580105
 20
225.7835094107002
 30
0.0
 11
169.582299770767
 21
225.8686948449775
 31
0.0
1001
PE_URL
1000
t
  0
LINE
  5
63D
  8
0
 10
168.3322997707668
 20
225.5337583544385
 30
0.0
 11
168.9352521580105
 21
225.7835094107002
 31
0.0
1001
PE_URL
1000
t
  0
LINE
  5
63E
  8
0
 10
167.4172362613059
 20
222.1186948449775
 30
0.0
 11
167.167485205044
 21
222.7216472322211
 31
0.0
1001
PE_URL
1000
t
  0
LINE
  5
63F
  8
0
 10
167.082299770767
 20
223.3686948449775
 30
0.0
 11
167.1674852050443
 21
224.0157424577338
 31
0.0
1001
PE_URL
1000
t
  0
LINE
  5
640
  8
0
 10
167.167485205044
 20
222.7216472322211
 30
0.0
 11
167.082299770767
 21
223.3686948449775
 31
0.0
1001
PE_URL
1000
t
  0
LINE
  5
641
  8
0
 10
167.1674852050443
 20
224.0157424577338
 30
0.0
 11
167.4172362613059
 21
224.6186948449775
 31
0.0
1001
PE_URL
1000
t
  0
LINE
  5
642
  8
0
 10
167.4172362613059
 20
224.6186948449775
 30
0.0
 11
167.8145328178006
 21
225.1364617979439
 31
0.0
1001
PE_URL
1000
t
  0
LINE
  5
643
  8
0
 10
193.2955032063629
 20
202.1554914093811
 30
0.0
 11
193.2103177720861
 21
201.5084437966249
 31
0.0
1001
PE_URL
1000
t
  0
LINE
  5
644
  8
0
 10
193.2103177720861
 20
201.5084437966249
 30
0.0
 11
192.960566715824
 21
200.9054914093807
 31
0.0
1001
PE_URL
1000
t
  0
LINE
  5
645
  8
0
 10
192.960566715824
 20
200.9054914093807
 30
0.0
 11
192.5632701593294
 21
200.3877244564148
 31
0.0
1001
PE_URL
1000
t
  0
LINE
  5
646
  8
0
 10
192.5632701593294
 20
200.3877244564148
 30
0.0
 11
192.0455032063632
 21
199.9904278999199
 31
0.0
1001
PE_URL
1000
t
  0
LINE
  5
647
  8
0
 10
170.8322997707668
 20
225.5337583544385
 30
0.0
 11
171.3500667237332
 21
225.1364617979439
 31
0.0
1001
PE_URL
1000
t
  0
LINE
  5
648
  8
0
 10
192.960566715824
 20
203.4054914093808
 30
0.0
 11
193.2103177720857
 21
202.8025390221372
 31
0.0
1001
PE_URL
1000
t
  0
LINE
  5
649
  8
0
 10
192.0455032063632
 20
199.9904278999199
 30
0.0
 11
191.4425508191194
 21
199.7406768436583
 31
0.0
1001
PE_URL
1000
t
  0
LINE
  5
64A
  8
0
 10
193.2103177720857
 20
202.8025390221372
 30
0.0
 11
193.2955032063629
 21
202.1554914093811
 31
0.0
1001
PE_URL
1000
t
  0
LINE
  5
64B
  8
0
 10
191.4425508191194
 20
199.7406768436583
 30
0.0
 11
190.7955032063634
 21
199.6554914093812
 31
0.0
1001
PE_URL
1000
t
  0
LINE
  5
64C
  8
0
 10
190.7955032063634
 20
199.6554914093812
 30
0.0
 11
190.1484555936069
 21
199.7406768436585
 31
0.0
1001
PE_URL
1000
t
  0
LINE
  5
64D
  8
0
 10
190.1484555936069
 20
199.7406768436585
 30
0.0
 11
189.5455032063625
 21
199.9904278999195
 31
0.0
1001
PE_URL
1000
t
  0
LINE
  5
64E
  8
0
 10
189.5455032063625
 20
199.9904278999195
 30
0.0
 11
189.0277362533967
 21
200.3877244564147
 31
0.0
1001
PE_URL
1000
t
  0
LINE
  5
64F
  8
0
 10
192.5632701593296
 20
203.9232583623473
 30
0.0
 11
192.960566715824
 21
203.4054914093808
 31
0.0
1001
PE_URL
1000
t
  0
LINE
  5
650
  8
0
 10
176.1392499602206
 20
202.8025390221372
 30
0.0
 11
176.2244353944981
 21
202.1554914093811
 31
0.0
1001
PE_URL
1000
t
  0
LINE
  5
651
  8
0
 10
174.3714830072546
 20
199.7406768436584
 30
0.0
 11
173.7244353944981
 21
199.6554914093812
 31
0.0
1001
PE_URL
1000
t
  0
LINE
  5
652
  8
0
 10
175.4922023474643
 20
203.9232583623473
 30
0.0
 11
175.889498903959
 21
203.4054914093809
 31
0.0
1001
PE_URL
1000
t
  0
LINE
  5
653
  8
0
 10
174.9744353944981
 20
199.99042789992
 30
0.0
 11
174.3714830072546
 21
199.7406768436584
 31
0.0
1001
PE_URL
1000
t
  0
LINE
  5
654
  8
0
 10
171.9566684415319
 20
200.3877244564148
 30
0.0
 11
150.7434650059355
 21
221.6009278920112
 31
0.0
1001
PE_URL
1000
t
  0
LINE
  5
655
  8
0
 10
154.278998911868
 20
225.136461797944
 30
0.0
 11
175.4922023474643
 21
203.9232583623473
 31
0.0
1001
PE_URL
1000
t
  0
LINE
  5
656
  8
0
 10
150.0112319589017
 20
223.3686948449776
 30
0.0
 11
150.0964173931789
 21
224.0157424577338
 31
0.0
1001
PE_URL
1000
t
  0
LINE
  5
657
  8
0
 10
175.4922023474643
 20
200.3877244564149
 30
0.0
 11
174.9744353944981
 21
199.99042789992
 31
0.0
1001
PE_URL
1000
t
  0
LINE
  5
658
  8
0
 10
153.7612319589017
 20
225.5337583544386
 30
0.0
 11
154.278998911868
 21
225.136461797944
 31
0.0
1001
PE_URL
1000
t
  0
LINE
  5
659
  8
0
 10
173.0773877817418
 20
199.7406768436586
 30
0.0
 11
172.4744353944978
 21
199.9904278999196
 31
0.0
1001
PE_URL
1000
t
  0
LINE
  5
65A
  8
0
 10
176.2244353944981
 20
202.1554914093811
 30
0.0
 11
176.1392499602208
 21
201.508443796625
 31
0.0
1001
PE_URL
1000
t
  0
LINE
  5
65B
  8
0
 10
175.8894989039587
 20
200.9054914093809
 30
0.0
 11
175.4922023474643
 21
200.3877244564149
 31
0.0
1001
PE_URL
1000
t
  0
LINE
  5
65C
  8
0
 10
173.7244353944981
 20
199.6554914093812
 30
0.0
 11
173.0773877817418
 21
199.7406768436586
 31
0.0
1001
PE_URL
1000
t
  0
LINE
  5
65D
  8
0
 10
176.1392499602208
 20
201.508443796625
 30
0.0
 11
175.8894989039587
 21
200.9054914093809
 31
0.0
1001
PE_URL
1000
t
  0
LINE
  5
65E
  8
0
 10
151.2612319589014
 20
225.5337583544386
 30
0.0
 11
151.8641843461453
 21
225.7835094107002
 31
0.0
1001
PE_URL
1000
t
  0
LINE
  5
65F
  8
0
 10
151.8641843461453
 20
225.7835094107002
 30
0.0
 11
152.5112319589018
 21
225.8686948449775
 31
0.0
1001
PE_URL
1000
t
  0
LINE
  5
660
  8
0
 10
150.7434650059355
 20
221.6009278920112
 30
0.0
 11
150.3461684494406
 21
222.1186948449775
 31
0.0
1001
PE_URL
1000
t
  0
LINE
  5
661
  8
0
 10
150.7434650059354
 20
225.1364617979439
 30
0.0
 11
151.2612319589014
 21
225.5337583544386
 31
0.0
1001
PE_URL
1000
t
  0
LINE
  5
662
  8
0
 10
150.3461684494405
 20
224.6186948449775
 30
0.0
 11
150.7434650059354
 21
225.1364617979439
 31
0.0
1001
PE_URL
1000
t
  0
LINE
  5
663
  8
0
 10
150.0964173931791
 20
222.7216472322212
 30
0.0
 11
150.0112319589017
 21
223.3686948449776
 31
0.0
1001
PE_URL
1000
t
  0
LINE
  5
664
  8
0
 10
150.0964173931789
 20
224.0157424577338
 30
0.0
 11
150.3461684494405
 21
224.6186948449775
 31
0.0
1001
PE_URL
1000
t
  0
LINE
  5
665
  8
0
 10
172.4744353944978
 20
199.9904278999196
 30
0.0
 11
171.9566684415319
 21
200.3877244564148
 31
0.0
1001
PE_URL
1000
t
  0
LINE
  5
666
  8
0
 10
175.889498903959
 20
203.4054914093809
 30
0.0
 11
176.1392499602206
 21
202.8025390221372
 31
0.0
1001
PE_URL
1000
t
  0
LINE
  5
667
  8
0
 10
153.1582795716579
 20
225.7835094107002
 30
0.0
 11
153.7612319589017
 21
225.5337583544386
 31
0.0
1001
PE_URL
1000
t
  0
LINE
  5
668
  8
0
 10
152.5112319589018
 20
225.8686948449775
 30
0.0
 11
153.1582795716579
 21
225.7835094107002
 31
0.0
1001
PE_URL
1000
t
  0
LINE
  5
669
  8
0
 10
150.3461684494406
 20
222.1186948449775
 30
0.0
 11
150.0964173931791
 21
222.7216472322212
 31
0.0
1001
PE_URL
1000
t
  0
LINE
  5
66A
  8
0
 10
189.0277362533967
 20
200.3877244564147
 30
0.0
 11
185.0395488873138
 21
204.3759118224979
 31
0.0
1001
PE_URL
1000
t
  0
LINE
  5
66B
  8
0
 10
185.0395488873138
 20
204.3759118224979
 30
0.0
 11
167.8145328178003
 21
221.600927892011
 31
0.0
1001
PE_URL
1000
t
  0
LINE
  5
66C
  8
0
 10
171.3500667237332
 20
225.1364617979439
 30
0.0
 11
185.0395488873136
 21
211.4469796343633
 31
0.0
1001
PE_URL
1000
t
  0
LINE
  5
66D
  8
0
 10
185.0395488873136
 20
211.4469796343633
 30
0.0
 11
192.5632701593296
 21
203.9232583623473
 31
0.0
1001
PE_URL
1000
t
  0
LINE
  5
66E
  8
0
 10
201.2395488873132
 20
152.3281545126264
 30
0.0
 11
181.2395488873134
 21
152.3281545126264
 31
0.0
1001
PE_URL
1000
t
  0
LINE
  5
66F
  8
0
 10
141.2395488873133
 20
244.3281545126264
 30
0.0
 11
61.23954888731339
 21
244.3281545126264
 31
0.0
1001
PE_URL
1000
t
  0
LINE
  5
670
  8
0
 10
201.2395488873134
 20
244.3281545126264
 30
0.0
 11
181.2395488873134
 21
244.3281545126264
 31
0.0
1001
PE_URL
1000
t
  0
LINE
  5
671
  8
0
 10
201.2395488873132
 20
152.3281545126264
 30
0.0
 11
201.2395488873132
 21
168.3281545126263
 31
0.0
1001
PE_URL
1000
t
  0
LINE
  5
672
  8
0
 10
201.2395488873134
 20
188.3281545126264
 30
0.0
 11
201.2395488873132
 21
208.3281545126264
 31
0.0
1001
PE_URL
1000
t
  0
LINE
  5
673
  8
0
 10
21.23954888731339
 20
152.3281545126264
 30
0.0
 11
1.239548887313163
 21
152.3281545126264
 31
0.0
1001
PE_URL
1000
t
  0
LINE
  5
674
  8
0
 10
21.23954888731339
 20
244.3281545126264
 30
0.0
 11
1.23954888731339
 21
244.3281545126264
 31
0.0
1001
PE_URL
1000
t
  0
LINE
  5
675
  8
0
 10
207.8388531352695
 20
156.4906156603113
 30
0.0
 11
207.8899643958358
 21
156.8788442279651
 31
0.0
  0
LINE
  5
676
  8
0
 10
207.8899643958358
 20
156.8788442279651
 30
0.0
 11
208.0398150295927
 21
157.2406156603114
 31
0.0
  0
LINE
  5
677
  8
0
 10
208.0398150295927
 20
157.2406156603114
 30
0.0
 11
208.2781929634895
 21
157.5512758320912
 31
0.0
  0
LINE
  5
678
  8
0
 10
208.2781929634895
 20
157.5512758320912
 30
0.0
 11
208.5888531352695
 21
157.7896537659881
 31
0.0
  0
LINE
  5
679
  8
0
 10
208.5888531352695
 20
157.7896537659881
 30
0.0
 11
208.9506245676156
 21
157.9395043997449
 31
0.0
  0
LINE
  5
67A
  8
0
 10
208.9506245676156
 20
157.9395043997449
 30
0.0
 11
209.3388531352695
 21
157.9906156603114
 31
0.0
  0
LINE
  5
67B
  8
0
 10
209.3388531352695
 20
157.9906156603114
 30
0.0
 11
209.7270817029231
 21
157.9395043997449
 31
0.0
  0
LINE
  5
67C
  8
0
 10
209.7270817029231
 20
157.9395043997449
 30
0.0
 11
210.0888531352695
 21
157.7896537659881
 31
0.0
  0
LINE
  5
67D
  8
0
 10
210.0888531352695
 20
157.7896537659881
 30
0.0
 11
210.3995133070492
 21
157.5512758320912
 31
0.0
  0
LINE
  5
67E
  8
0
 10
210.3995133070492
 20
157.5512758320912
 30
0.0
 11
210.637891240946
 21
157.2406156603114
 31
0.0
  0
LINE
  5
67F
  8
0
 10
210.637891240946
 20
157.2406156603114
 30
0.0
 11
210.7877418747031
 21
156.8788442279651
 31
0.0
  0
LINE
  5
680
  8
0
 10
210.7877418747031
 20
156.8788442279651
 30
0.0
 11
210.8388531352695
 21
156.4906156603113
 31
0.0
  0
LINE
  5
681
  8
0
 10
210.8388531352695
 20
156.4906156603113
 30
0.0
 11
210.7877418747031
 21
156.1023870926576
 31
0.0
  0
LINE
  5
682
  8
0
 10
210.7877418747031
 20
156.1023870926576
 30
0.0
 11
210.637891240946
 21
155.7406156603113
 31
0.0
  0
LINE
  5
683
  8
0
 10
210.637891240946
 20
155.7406156603113
 30
0.0
 11
210.3995133070492
 21
155.4299554885315
 31
0.0
  0
LINE
  5
684
  8
0
 10
210.3995133070492
 20
155.4299554885315
 30
0.0
 11
210.0888531352695
 21
155.1915775546347
 31
0.0
  0
LINE
  5
685
  8
0
 10
210.0888531352695
 20
155.1915775546347
 30
0.0
 11
209.7270817029231
 21
155.0417269208777
 31
0.0
  0
LINE
  5
686
  8
0
 10
209.7270817029231
 20
155.0417269208777
 30
0.0
 11
209.3388531352695
 21
154.9906156603114
 31
0.0
  0
LINE
  5
687
  8
0
 10
209.3388531352695
 20
154.9906156603114
 30
0.0
 11
208.9506245676156
 21
155.0417269208777
 31
0.0
  0
LINE
  5
688
  8
0
 10
208.9506245676156
 20
155.0417269208777
 30
0.0
 11
208.5888531352695
 21
155.1915775546347
 31
0.0
  0
LINE
  5
689
  8
0
 10
208.5888531352695
 20
155.1915775546347
 30
0.0
 11
208.2781929634895
 21
155.4299554885315
 31
0.0
  0
LINE
  5
68A
  8
0
 10
208.2781929634895
 20
155.4299554885315
 30
0.0
 11
208.0398150295927
 21
155.7406156603113
 31
0.0
  0
LINE
  5
68B
  8
0
 10
208.0398150295927
 20
155.7406156603113
 30
0.0
 11
207.8899643958358
 21
156.1023870926576
 31
0.0
  0
LINE
  5
68C
  8
0
 10
207.8899643958358
 20
156.1023870926576
 30
0.0
 11
207.8388531352695
 21
156.4906156603113
 31
0.0
  0
LINE
  5
68D
  8
0
 10
207.8480504583659
 20
338.3553010068518
 30
0.0
 11
207.8991617189323
 21
338.7435295745057
 31
0.0
  0
LINE
  5
68E
  8
0
 10
207.8991617189323
 20
338.7435295745057
 30
0.0
 11
208.0490123526894
 21
339.1053010068518
 31
0.0
  0
LINE
  5
68F
  8
0
 10
208.0490123526894
 20
339.1053010068518
 30
0.0
 11
208.2873902865859
 21
339.4159611786317
 31
0.0
  0
LINE
  5
690
  8
0
 10
208.2873902865859
 20
339.4159611786317
 30
0.0
 11
208.5980504583659
 21
339.6543391125285
 31
0.0
  0
LINE
  5
691
  8
0
 10
208.5980504583659
 20
339.6543391125285
 30
0.0
 11
208.9598218907121
 21
339.8041897462855
 31
0.0
  0
LINE
  5
692
  8
0
 10
208.9598218907121
 20
339.8041897462855
 30
0.0
 11
209.3480504583659
 21
339.8553010068518
 31
0.0
  0
LINE
  5
693
  8
0
 10
209.3480504583659
 20
339.8553010068518
 30
0.0
 11
209.7362790260196
 21
339.8041897462855
 31
0.0
  0
LINE
  5
694
  8
0
 10
209.7362790260196
 20
339.8041897462855
 30
0.0
 11
210.0980504583659
 21
339.6543391125285
 31
0.0
  0
LINE
  5
695
  8
0
 10
210.0980504583659
 20
339.6543391125285
 30
0.0
 11
210.4087106301457
 21
339.4159611786317
 31
0.0
  0
LINE
  5
696
  8
0
 10
210.4087106301457
 20
339.4159611786317
 30
0.0
 11
210.6470885640425
 21
339.1053010068518
 31
0.0
  0
LINE
  5
697
  8
0
 10
210.6470885640425
 20
339.1053010068518
 30
0.0
 11
210.7969391977996
 21
338.7435295745057
 31
0.0
  0
LINE
  5
698
  8
0
 10
210.7969391977996
 20
338.7435295745057
 30
0.0
 11
210.8480504583659
 21
338.3553010068518
 31
0.0
  0
LINE
  5
699
  8
0
 10
210.8480504583659
 20
338.3553010068518
 30
0.0
 11
210.7969391977996
 21
337.9670724391981
 31
0.0
  0
LINE
  5
69A
  8
0
 10
210.7969391977996
 20
337.9670724391981
 30
0.0
 11
210.6470885640425
 21
337.6053010068518
 31
0.0
  0
LINE
  5
69B
  8
0
 10
210.6470885640425
 20
337.6053010068518
 30
0.0
 11
210.4087106301457
 21
337.2946408350721
 31
0.0
  0
LINE
  5
69C
  8
0
 10
210.4087106301457
 20
337.2946408350721
 30
0.0
 11
210.0980504583659
 21
337.0562629011752
 31
0.0
  0
LINE
  5
69D
  8
0
 10
210.0980504583659
 20
337.0562629011752
 30
0.0
 11
209.7362790260196
 21
336.9064122674183
 31
0.0
  0
LINE
  5
69E
  8
0
 10
209.7362790260196
 20
336.9064122674183
 30
0.0
 11
209.3480504583659
 21
336.8553010068518
 31
0.0
  0
LINE
  5
69F
  8
0
 10
209.3480504583659
 20
336.8553010068518
 30
0.0
 11
208.9598218907121
 21
336.9064122674183
 31
0.0
  0
LINE
  5
6A0
  8
0
 10
208.9598218907121
 20
336.9064122674183
 30
0.0
 11
208.5980504583659
 21
337.0562629011752
 31
0.0
  0
LINE
  5
6A1
  8
0
 10
208.5980504583659
 20
337.0562629011752
 30
0.0
 11
208.2873902865859
 21
337.2946408350721
 31
0.0
  0
LINE
  5
6A2
  8
0
 10
208.2873902865859
 20
337.2946408350721
 30
0.0
 11
208.0490123526894
 21
337.6053010068518
 31
0.0
  0
LINE
  5
6A3
  8
0
 10
208.0490123526894
 20
337.6053010068518
 30
0.0
 11
207.8991617189323
 21
337.9670724391981
 31
0.0
  0
LINE
  5
6A4
  8
0
 10
207.8991617189323
 20
337.9670724391981
 30
0.0
 11
207.8480504583659
 21
338.3553010068518
 31
0.0
  0
LINE
  5
6A5
  8
0
 10
292.8388531352695
 20
156.4906156603113
 30
0.0
 11
292.7877418747029
 21
156.1023870926576
 31
0.0
  0
LINE
  5
6A6
  8
0
 10
292.7877418747029
 20
156.1023870926576
 30
0.0
 11
292.637891240946
 21
155.7406156603113
 31
0.0
  0
LINE
  5
6A7
  8
0
 10
292.637891240946
 20
155.7406156603113
 30
0.0
 11
292.3995133070492
 21
155.4299554885315
 31
0.0
  0
LINE
  5
6A8
  8
0
 10
292.3995133070492
 20
155.4299554885315
 30
0.0
 11
292.0888531352695
 21
155.1915775546347
 31
0.0
  0
LINE
  5
6A9
  8
0
 10
292.0888531352695
 20
155.1915775546347
 30
0.0
 11
291.7270817029231
 21
155.0417269208777
 31
0.0
  0
LINE
  5
6AA
  8
0
 10
291.7270817029231
 20
155.0417269208777
 30
0.0
 11
291.3388531352695
 21
154.9906156603114
 31
0.0
  0
LINE
  5
6AB
  8
0
 10
291.3388531352695
 20
154.9906156603114
 30
0.0
 11
290.9506245676156
 21
155.0417269208777
 31
0.0
  0
LINE
  5
6AC
  8
0
 10
290.9506245676156
 20
155.0417269208777
 30
0.0
 11
290.5888531352695
 21
155.1915775546347
 31
0.0
  0
LINE
  5
6AD
  8
0
 10
290.5888531352695
 20
155.1915775546347
 30
0.0
 11
290.2781929634895
 21
155.4299554885315
 31
0.0
  0
LINE
  5
6AE
  8
0
 10
290.2781929634895
 20
155.4299554885315
 30
0.0
 11
290.0398150295927
 21
155.7406156603113
 31
0.0
  0
LINE
  5
6AF
  8
0
 10
290.0398150295927
 20
155.7406156603113
 30
0.0
 11
289.8899643958358
 21
156.1023870926576
 31
0.0
  0
LINE
  5
6B0
  8
0
 10
289.8899643958358
 20
156.1023870926576
 30
0.0
 11
289.8388531352695
 21
156.4906156603113
 31
0.0
  0
LINE
  5
6B1
  8
0
 10
289.8388531352695
 20
156.4906156603113
 30
0.0
 11
289.8899643958358
 21
156.8788442279651
 31
0.0
  0
LINE
  5
6B2
  8
0
 10
289.8899643958358
 20
156.8788442279651
 30
0.0
 11
290.0398150295927
 21
157.2406156603114
 31
0.0
  0
LINE
  5
6B3
  8
0
 10
290.0398150295927
 20
157.2406156603114
 30
0.0
 11
290.2781929634895
 21
157.5512758320912
 31
0.0
  0
LINE
  5
6B4
  8
0
 10
290.2781929634895
 20
157.5512758320912
 30
0.0
 11
290.5888531352695
 21
157.7896537659881
 31
0.0
  0
LINE
  5
6B5
  8
0
 10
290.5888531352695
 20
157.7896537659881
 30
0.0
 11
290.9506245676156
 21
157.9395043997449
 31
0.0
  0
LINE
  5
6B6
  8
0
 10
290.9506245676156
 20
157.9395043997449
 30
0.0
 11
291.3388531352695
 21
157.9906156603114
 31
0.0
  0
LINE
  5
6B7
  8
0
 10
291.3388531352695
 20
157.9906156603114
 30
0.0
 11
291.7270817029231
 21
157.9395043997449
 31
0.0
  0
LINE
  5
6B8
  8
0
 10
291.7270817029231
 20
157.9395043997449
 30
0.0
 11
292.0888531352695
 21
157.7896537659881
 31
0.0
  0
LINE
  5
6B9
  8
0
 10
292.0888531352695
 20
157.7896537659881
 30
0.0
 11
292.3995133070492
 21
157.5512758320912
 31
0.0
  0
LINE
  5
6BA
  8
0
 10
292.3995133070492
 20
157.5512758320912
 30
0.0
 11
292.637891240946
 21
157.2406156603114
 31
0.0
  0
LINE
  5
6BB
  8
0
 10
292.637891240946
 20
157.2406156603114
 30
0.0
 11
292.7877418747029
 21
156.8788442279651
 31
0.0
  0
LINE
  5
6BC
  8
0
 10
292.7877418747029
 20
156.8788442279651
 30
0.0
 11
292.8388531352695
 21
156.4906156603113
 31
0.0
  0
LINE
  5
6BD
  8
0
 10
246.8193165386543
 20
338.3989836321102
 30
0.0
 11
246.768205278088
 21
338.0107550644566
 31
0.0
  0
LINE
  5
6BE
  8
0
 10
246.768205278088
 20
338.0107550644566
 30
0.0
 11
246.6183546443309
 21
337.6489836321102
 31
0.0
  0
LINE
  5
6BF
  8
0
 10
246.6183546443309
 20
337.6489836321102
 30
0.0
 11
246.3799767104341
 21
337.3383234603305
 31
0.0
  0
LINE
  5
6C0
  8
0
 10
246.3799767104341
 20
337.3383234603305
 30
0.0
 11
246.0693165386543
 21
337.0999455264337
 31
0.0
  0
LINE
  5
6C1
  8
0
 10
246.0693165386543
 20
337.0999455264337
 30
0.0
 11
245.707545106308
 21
336.9500948926767
 31
0.0
  0
LINE
  5
6C2
  8
0
 10
245.707545106308
 20
336.9500948926767
 30
0.0
 11
245.3193165386543
 21
336.8989836321103
 31
0.0
  0
LINE
  5
6C3
  8
0
 10
245.3193165386543
 20
336.8989836321103
 30
0.0
 11
244.9310879710005
 21
336.9500948926767
 31
0.0
  0
LINE
  5
6C4
  8
0
 10
244.9310879710005
 20
336.9500948926767
 30
0.0
 11
244.5693165386543
 21
337.0999455264337
 31
0.0
  0
LINE
  5
6C5
  8
0
 10
244.5693165386543
 20
337.0999455264337
 30
0.0
 11
244.2586563668743
 21
337.3383234603305
 31
0.0
  0
LINE
  5
6C6
  8
0
 10
244.2586563668743
 20
337.3383234603305
 30
0.0
 11
244.0202784329775
 21
337.6489836321102
 31
0.0
  0
LINE
  5
6C7
  8
0
 10
244.0202784329775
 20
337.6489836321102
 30
0.0
 11
243.8704277992207
 21
338.0107550644566
 31
0.0
  0
LINE
  5
6C8
  8
0
 10
243.8704277992207
 20
338.0107550644566
 30
0.0
 11
243.8193165386543
 21
338.3989836321102
 31
0.0
  0
LINE
  5
6C9
  8
0
 10
243.8193165386543
 20
338.3989836321102
 30
0.0
 11
243.8704277992207
 21
338.7872121997641
 31
0.0
  0
LINE
  5
6CA
  8
0
 10
243.8704277992207
 20
338.7872121997641
 30
0.0
 11
244.0202784329775
 21
339.1489836321102
 31
0.0
  0
LINE
  5
6CB
  8
0
 10
244.0202784329775
 20
339.1489836321102
 30
0.0
 11
244.2586563668743
 21
339.4596438038902
 31
0.0
  0
LINE
  5
6CC
  8
0
 10
244.2586563668743
 20
339.4596438038902
 30
0.0
 11
244.5693165386543
 21
339.698021737787
 31
0.0
  0
LINE
  5
6CD
  8
0
 10
244.5693165386543
 20
339.698021737787
 30
0.0
 11
244.9310879710005
 21
339.8478723715439
 31
0.0
  0
LINE
  5
6CE
  8
0
 10
244.9310879710005
 20
339.8478723715439
 30
0.0
 11
245.3193165386543
 21
339.8989836321102
 31
0.0
  0
LINE
  5
6CF
  8
0
 10
245.3193165386543
 20
339.8989836321102
 30
0.0
 11
245.707545106308
 21
339.8478723715439
 31
0.0
  0
LINE
  5
6D0
  8
0
 10
245.707545106308
 20
339.8478723715439
 30
0.0
 11
246.0693165386543
 21
339.698021737787
 31
0.0
  0
LINE
  5
6D1
  8
0
 10
246.0693165386543
 20
339.698021737787
 30
0.0
 11
246.3799767104341
 21
339.4596438038902
 31
0.0
  0
LINE
  5
6D2
  8
0
 10
246.3799767104341
 20
339.4596438038902
 30
0.0
 11
246.6183546443309
 21
339.1489836321102
 31
0.0
  0
LINE
  5
6D3
  8
0
 10
246.6183546443309
 20
339.1489836321102
 30
0.0
 11
246.768205278088
 21
338.7872121997641
 31
0.0
  0
LINE
  5
6D4
  8
0
 10
246.768205278088
 20
338.7872121997641
 30
0.0
 11
246.8193165386543
 21
338.3989836321102
 31
0.0
  0
LINE
  5
6D5
  8
0
 10
292.8388531352695
 20
273.4906156603114
 30
0.0
 11
292.7877418747029
 21
273.1023870926576
 31
0.0
  0
LINE
  5
6D6
  8
0
 10
292.7877418747029
 20
273.1023870926576
 30
0.0
 11
292.637891240946
 21
272.7406156603114
 31
0.0
  0
LINE
  5
6D7
  8
0
 10
292.637891240946
 20
272.7406156603114
 30
0.0
 11
292.3995133070492
 21
272.4299554885316
 31
0.0
  0
LINE
  5
6D8
  8
0
 10
292.3995133070492
 20
272.4299554885316
 30
0.0
 11
292.0888531352695
 21
272.1915775546347
 31
0.0
  0
LINE
  5
6D9
  8
0
 10
292.0888531352695
 20
272.1915775546347
 30
0.0
 11
291.7270817029231
 21
272.0417269208779
 31
0.0
  0
LINE
  5
6DA
  8
0
 10
291.7270817029231
 20
272.0417269208779
 30
0.0
 11
291.3388531352695
 21
271.9906156603114
 31
0.0
  0
LINE
  5
6DB
  8
0
 10
291.3388531352695
 20
271.9906156603114
 30
0.0
 11
290.9506245676156
 21
272.0417269208779
 31
0.0
  0
LINE
  5
6DC
  8
0
 10
290.9506245676156
 20
272.0417269208779
 30
0.0
 11
290.5888531352695
 21
272.1915775546347
 31
0.0
  0
LINE
  5
6DD
  8
0
 10
290.5888531352695
 20
272.1915775546347
 30
0.0
 11
290.2781929634895
 21
272.4299554885316
 31
0.0
  0
LINE
  5
6DE
  8
0
 10
290.2781929634895
 20
272.4299554885316
 30
0.0
 11
290.0398150295927
 21
272.7406156603114
 31
0.0
  0
LINE
  5
6DF
  8
0
 10
290.0398150295927
 20
272.7406156603114
 30
0.0
 11
289.8899643958358
 21
273.1023870926576
 31
0.0
  0
LINE
  5
6E0
  8
0
 10
289.8899643958358
 20
273.1023870926576
 30
0.0
 11
289.8388531352695
 21
273.4906156603114
 31
0.0
  0
LINE
  5
6E1
  8
0
 10
289.8388531352695
 20
273.4906156603114
 30
0.0
 11
289.8899643958358
 21
273.8788442279651
 31
0.0
  0
LINE
  5
6E2
  8
0
 10
289.8899643958358
 20
273.8788442279651
 30
0.0
 11
290.0398150295927
 21
274.2406156603114
 31
0.0
  0
LINE
  5
6E3
  8
0
 10
290.0398150295927
 20
274.2406156603114
 30
0.0
 11
290.2781929634895
 21
274.5512758320913
 31
0.0
  0
LINE
  5
6E4
  8
0
 10
290.2781929634895
 20
274.5512758320913
 30
0.0
 11
290.5888531352695
 21
274.7896537659881
 31
0.0
  0
LINE
  5
6E5
  8
0
 10
290.5888531352695
 20
274.7896537659881
 30
0.0
 11
290.9506245676156
 21
274.939504399745
 31
0.0
  0
LINE
  5
6E6
  8
0
 10
290.9506245676156
 20
274.939504399745
 30
0.0
 11
291.3388531352695
 21
274.9906156603115
 31
0.0
  0
LINE
  5
6E7
  8
0
 10
291.3388531352695
 20
274.9906156603115
 30
0.0
 11
291.7270817029231
 21
274.939504399745
 31
0.0
  0
LINE
  5
6E8
  8
0
 10
291.7270817029231
 20
274.939504399745
 30
0.0
 11
292.0888531352695
 21
274.7896537659881
 31
0.0
  0
LINE
  5
6E9
  8
0
 10
292.0888531352695
 20
274.7896537659881
 30
0.0
 11
292.3995133070492
 21
274.5512758320913
 31
0.0
  0
LINE
  5
6EA
  8
0
 10
292.3995133070492
 20
274.5512758320913
 30
0.0
 11
292.637891240946
 21
274.2406156603114
 31
0.0
  0
LINE
  5
6EB
  8
0
 10
292.637891240946
 20
274.2406156603114
 30
0.0
 11
292.7877418747029
 21
273.8788442279651
 31
0.0
  0
LINE
  5
6EC
  8
0
 10
292.7877418747029
 20
273.8788442279651
 30
0.0
 11
292.8388531352695
 21
273.4906156603114
 31
0.0
  0
LINE
  5
6ED
  8
0
 10
255.3388531352695
 20
172.4906156603114
 30
0.0
 11
250.1624722332191
 21
173.17209913453
 31
0.0
  0
LINE
  5
6EE
  8
0
 10
245.3388531352695
 20
175.1701075846225
 30
0.0
 11
241.1967175115384
 21
178.3484800365804
 31
0.0
  0
LINE
  5
6EF
  8
0
 10
241.1967175115384
 20
178.3484800365804
 30
0.0
 11
238.0183450595806
 21
182.4906156603113
 31
0.0
  0
LINE
  5
6F0
  8
0
 10
238.0183450595806
 20
182.4906156603113
 30
0.0
 11
236.020336609488
 21
187.3142347582609
 31
0.0
  0
LINE
  5
6F1
  8
0
 10
236.020336609488
 20
187.3142347582609
 30
0.0
 11
235.3388531352695
 21
192.4906156603113
 31
0.0
  0
LINE
  5
6F2
  8
0
 10
236.020336609488
 20
197.6669965623618
 30
0.0
 11
238.0183450595806
 21
202.4906156603114
 31
0.0
  0
LINE
  5
6F3
  8
0
 10
238.0183450595806
 20
202.4906156603114
 30
0.0
 11
241.1967175115384
 21
206.6327512840423
 31
0.0
  0
LINE
  5
6F4
  8
0
 10
241.1967175115384
 20
206.6327512840423
 30
0.0
 11
245.3388531352695
 21
209.8111237360001
 31
0.0
  0
LINE
  5
6F5
  8
0
 10
245.3388531352695
 20
209.8111237360001
 30
0.0
 11
250.1624722332191
 21
211.8091321860927
 31
0.0
  0
LINE
  5
6F6
  8
0
 10
250.1624722332191
 20
211.8091321860927
 30
0.0
 11
255.3388531352695
 21
212.4906156603114
 31
0.0
  0
LINE
  5
6F7
  8
0
 10
255.3388531352695
 20
212.4906156603114
 30
0.0
 11
260.5152340373198
 21
211.8091321860927
 31
0.0
  0
LINE
  5
6F8
  8
0
 10
260.5152340373198
 20
211.8091321860927
 30
0.0
 11
265.3388531352695
 21
209.8111237360001
 31
0.0
  0
LINE
  5
6F9
  8
0
 10
265.3388531352695
 20
209.8111237360001
 30
0.0
 11
269.4809887590003
 21
206.6327512840423
 31
0.0
  0
LINE
  5
6FA
  8
0
 10
272.6593612109581
 20
202.4906156603114
 30
0.0
 11
274.6573696610507
 21
197.6669965623618
 31
0.0
  0
LINE
  5
6FB
  8
0
 10
274.6573696610507
 20
197.6669965623618
 30
0.0
 11
275.3388531352695
 21
192.4906156603113
 31
0.0
  0
LINE
  5
6FC
  8
0
 10
275.3388531352695
 20
192.4906156603113
 30
0.0
 11
274.6573696610507
 21
187.3142347582609
 31
0.0
  0
LINE
  5
6FD
  8
0
 10
274.6573696610507
 20
187.3142347582609
 30
0.0
 11
272.6593612109581
 21
182.4906156603114
 31
0.0
  0
LINE
  5
6FE
  8
0
 10
272.6593612109581
 20
182.4906156603114
 30
0.0
 11
269.4809887590003
 21
178.3484800365804
 31
0.0
  0
LINE
  5
6FF
  8
0
 10
269.4809887590003
 20
178.3484800365804
 30
0.0
 11
265.3388531352695
 21
175.1701075846227
 31
0.0
  0
LINE
  5
700
  8
0
 10
260.5152340373198
 20
173.17209913453
 30
0.0
 11
255.3388531352695
 21
172.4906156603114
 31
0.0
  0
LINE
  5
701
  8
0
 10
250.1624722332191
 20
173.17209913453
 30
0.0
 11
249.3935053168376
 21
173.4906156603114
 31
0.0
  0
LINE
  5
702
  8
0
 10
249.3935053168376
 20
173.4906156603114
 30
0.0
 11
245.3388531352695
 21
175.1701075846225
 31
0.0
  0
LINE
  5
703
  8
0
 10
235.3388531352695
 20
192.4906156603113
 30
0.0
 11
235.9971156232065
 21
197.4906156603116
 31
0.0
  0
LINE
  5
704
  8
0
 10
235.9971156232065
 20
197.4906156603116
 30
0.0
 11
236.020336609488
 21
197.6669965623618
 31
0.0
  0
LINE
  5
705
  8
0
 10
269.4809887590003
 20
206.6327512840423
 30
0.0
 11
270.3388531352692
 21
205.5147606624319
 31
0.0
  0
LINE
  5
706
  8
0
 10
270.3388531352692
 20
205.5147606624319
 30
0.0
 11
272.6593612109581
 21
202.4906156603114
 31
0.0
  0
LINE
  5
707
  8
0
 10
265.3388531352695
 20
175.1701075846227
 30
0.0
 11
261.2842009537011
 21
173.4906156603113
 31
0.0
  0
LINE
  5
708
  8
0
 10
261.2842009537011
 20
173.4906156603113
 30
0.0
 11
260.5152340373198
 21
173.17209913453
 31
0.0
  0
LINE
  5
709
  8
0
 10
296.3388531352695
 20
151.4906156603114
 30
0.0
 11
204.3388531352695
 21
151.4906156603108
 31
0.0
  0
LINE
  5
70A
  8
0
 10
296.3388531352695
 20
283.4906156603113
 30
0.0
 11
256.3388531352695
 21
283.4906156603113
 31
0.0
  0
LINE
  5
70B
  8
0
 10
256.3388531352695
 20
343.4906156603112
 30
0.0
 11
256.3388531352695
 21
283.4906156603113
 31
0.0
  0
LINE
  5
70C
  8
0
 10
256.3388531352695
 20
343.4906156603112
 30
0.0
 11
204.3388531352695
 21
343.4906156603114
 31
0.0
  0
LINE
  5
70D
  8
0
 10
296.3388531352695
 20
283.4906156603113
 30
0.0
 11
296.3388531352695
 21
151.4906156603114
 31
0.0
  0
LINE
  5
70E
  8
0
 10
204.3388531352695
 20
151.4906156603108
 30
0.0
 11
204.3388531352695
 21
343.4906156603114
 31
0.0
  0
LINE
  5
70F
  8
0
 10
371.3126810846956
 20
468.4641488339732
 30
0.0
 11
367.3126810846956
 21
468.4641488339732
 31
0.0
1001
PE_URL
1000
t
  0
LINE
  5
710
  8
0
 10
371.3126810846951
 20
308.4641488339732
 30
0.0
 11
367.3126810846951
 21
308.4641488339732
 31
0.0
1001
PE_URL
1000
t
  0
LINE
  5
711
  8
0
 10
371.3126810846953
 20
428.4641488339732
 30
0.0
 11
367.3126810846953
 21
428.4641488339732
 31
0.0
1001
PE_URL
1000
t
  0
LINE
  5
712
  8
0
 10
371.3126810846951
 20
348.4641488339733
 30
0.0
 11
367.3126810846951
 21
348.4641488339733
 31
0.0
1001
PE_URL
1000
t
  0
LINE
  5
713
  8
0
 10
371.3126810846956
 20
468.4641488339732
 30
0.0
 11
371.3126810846953
 21
428.4641488339732
 31
0.0
1001
PE_URL
1000
t
  0
LINE
  5
714
  8
0
 10
367.3126810846949
 20
288.4641488339732
 30
0.0
 11
351.3126810846951
 21
288.4641488339734
 31
0.0
1001
PE_URL
1000
t
  0
LINE
  5
715
  8
0
 10
371.3126810846951
 20
348.4641488339733
 30
0.0
 11
371.3126810846951
 21
308.4641488339732
 31
0.0
1001
PE_URL
1000
t
  0
LINE
  5
716
  8
0
 10
275.3126810846956
 20
488.4641488339737
 30
0.0
 11
367.3126810846956
 21
488.4641488339731
 31
0.0
1001
PE_URL
1000
t
  0
LINE
  5
717
  8
0
 10
271.3126810846953
 20
428.4641488339736
 30
0.0
 11
271.3126810846956
 21
468.4641488339735
 31
0.0
1001
PE_URL
1000
t
  0
LINE
  5
718
  8
0
 10
271.3126810846951
 20
308.4641488339737
 30
0.0
 11
271.3126810846951
 21
348.4641488339736
 31
0.0
1001
PE_URL
1000
t
  0
LINE
  5
719
  8
0
 10
275.3126810846951
 20
348.4641488339735
 30
0.0
 11
275.3126810846953
 21
428.4641488339734
 31
0.0
1001
PE_URL
1000
t
  0
LINE
  5
71A
  8
0
 10
275.3126810846951
 20
308.4641488339734
 30
0.0
 11
271.3126810846951
 21
308.4641488339737
 31
0.0
1001
PE_URL
1000
t
  0
LINE
  5
71B
  8
0
 10
275.3126810846953
 20
428.4641488339734
 30
0.0
 11
271.3126810846953
 21
428.4641488339736
 31
0.0
1001
PE_URL
1000
t
  0
LINE
  5
71C
  8
0
 10
275.3126810846956
 20
468.4641488339735
 30
0.0
 11
271.3126810846956
 21
468.4641488339735
 31
0.0
1001
PE_URL
1000
t
  0
LINE
  5
71D
  8
0
 10
275.3126810846951
 20
348.4641488339735
 30
0.0
 11
271.3126810846951
 21
348.4641488339736
 31
0.0
1001
PE_URL
1000
t
  0
LINE
  5
71E
  8
0
 10
351.3126810846951
 20
288.4641488339734
 30
0.0
 11
351.3126810846951
 21
292.464148833973
 31
0.0
1001
PE_URL
1000
t
  0
LINE
  5
71F
  8
0
 10
351.3126810846951
 20
292.464148833973
 30
0.0
 11
331.3126810846951
 21
292.4641488339731
 31
0.0
1001
PE_URL
1000
t
  0
LINE
  5
720
  8
0
 10
331.3126810846951
 20
292.4641488339731
 30
0.0
 11
331.3126810846951
 21
288.4641488339734
 31
0.0
1001
PE_URL
1000
t
  0
LINE
  5
721
  8
0
 10
291.3126810846951
 20
292.4641488339733
 30
0.0
 11
311.3126810846951
 21
292.4641488339732
 31
0.0
1001
PE_URL
1000
t
  0
LINE
  5
722
  8
0
 10
311.3126810846951
 20
292.4641488339732
 30
0.0
 11
311.3126810846951
 21
288.4641488339734
 31
0.0
1001
PE_URL
1000
t
  0
LINE
  5
723
  8
0
 10
291.3126810846949
 20
288.4641488339735
 30
0.0
 11
291.3126810846951
 21
292.4641488339733
 31
0.0
1001
PE_URL
1000
t
  0
LINE
  5
724
  8
0
 10
275.3126810846951
 20
288.4641488339736
 30
0.0
 11
275.3126810846951
 21
308.4641488339734
 31
0.0
1001
PE_URL
1000
t
  0
LINE
  5
725
  8
0
 10
367.3126810846951
 20
348.4641488339733
 30
0.0
 11
367.3126810846953
 21
428.4641488339732
 31
0.0
1001
PE_URL
1000
t
  0
LINE
  5
726
  8
0
 10
367.3126810846949
 20
288.4641488339732
 30
0.0
 11
367.3126810846951
 21
308.4641488339732
 31
0.0
1001
PE_URL
1000
t
  0
LINE
  5
727
  8
0
 10
275.3126810846951
 20
288.4641488339736
 30
0.0
 11
291.3126810846949
 21
288.4641488339735
 31
0.0
1001
PE_URL
1000
t
  0
LINE
  5
728
  8
0
 10
311.3126810846951
 20
288.4641488339734
 30
0.0
 11
331.3126810846951
 21
288.4641488339734
 31
0.0
1001
PE_URL
1000
t
  0
LINE
  5
729
  8
0
 10
275.3126810846956
 20
468.4641488339735
 30
0.0
 11
275.3126810846956
 21
488.4641488339737
 31
0.0
1001
PE_URL
1000
t
  0
LINE
  5
72A
  8
0
 10
367.3126810846956
 20
468.4641488339732
 30
0.0
 11
367.3126810846956
 21
488.4641488339731
 31
0.0
1001
PE_URL
1000
t
  0
LINE
  5
72B
  8
0
 10
0.0
 20
0.0
 30
0.0
 11
379.9999999999999
 21
0.0
 31
0.0
  0
LINE
  5
72C
  8
0
 10
0.0
 20
560.0
 30
0.0
 11
379.9999999999999
 21
560.0
 31
0.0
  0
LINE
  5
72D
  8
0
 10
358.9382969536388
 20
243.8201970284844
 30
0.0
 11
358.9382969536388
 21
247.8201970284844
 31
0.0
1001
PE_URL
1000
t
  0
LINE
  5
72E
  8
0
 10
338.9382969536388
 20
243.8201970284844
 30
0.0
 11
338.9382969536388
 21
247.8201970284844
 31
0.0
1001
PE_URL
1000
t
  0
LINE
  5
72F
  8
0
 10
358.9382969536388
 20
247.8201970284844
 30
0.0
 11
338.9382969536388
 21
247.8201970284844
 31
0.0
1001
PE_URL
1000
t
  0
LINE
  5
730
  8
0
 10
338.9382969536388
 20
243.8201970284844
 30
0.0
 11
302.9382969536388
 21
243.8201970284844
 31
0.0
1001
PE_URL
1000
t
  0
LINE
  5
731
  8
0
 10
378.9382969536388
 20
243.8201970284844
 30
0.0
 11
358.9382969536388
 21
243.8201970284844
 31
0.0
1001
PE_URL
1000
t
  0
LINE
  5
732
  8
0
 10
378.9382969536388
 20
283.8201970284844
 30
0.0
 11
302.9382969536388
 21
283.8201970284844
 31
0.0
1001
PE_URL
1000
t
  0
LINE
  5
733
  8
0
 10
378.9382969536388
 20
243.8201970284844
 30
0.0
 11
378.9382969536388
 21
283.8201970284844
 31
0.0
1001
PE_URL
1000
t
  0
LINE
  5
734
  8
0
 10
303.7717004257407
 20
283.8201970284844
 30
0.0
 11
318.6282137971406
 21
283.8201970284844
 31
0.0
1001
PE_URL
1000
t
  0
LINE
  5
735
  8
0
 10
302.9382969536388
 20
253.8201970284844
 30
0.0
 11
298.9382969536388
 21
253.8201970284844
 31
0.0
  0
LINE
  5
736
  8
0
 10
298.9382969536388
 20
263.8201970284844
 30
0.0
 11
298.9382969536388
 21
273.8201970284844
 31
0.0
  0
LINE
  5
737
  8
0
 10
302.9382969536388
 20
243.8201970284844
 30
0.0
 11
298.9382969536388
 21
243.8201970284844
 31
0.0
  0
LINE
  5
738
  8
0
 10
302.9382969536388
 20
263.8201970284844
 30
0.0
 11
298.9382969536388
 21
263.8201970284844
 31
0.0
  0
LINE
  5
739
  8
0
 10
302.9382969536388
 20
273.8201970284844
 30
0.0
 11
298.9382969536388
 21
273.8201970284844
 31
0.0
  0
LINE
  5
73A
  8
0
 10
298.9382969536388
 20
243.8201970284844
 30
0.0
 11
298.9382969536388
 21
253.8201970284844
 31
0.0
  0
LINE
  5
73B
  8
0
 10
302.9382969536388
 20
273.8201970284844
 30
0.0
 11
302.9382969536388
 21
283.8201970284844
 31
0.0
  0
LINE
  5
73C
  8
0
 10
302.9382969536388
 20
253.8201970284844
 30
0.0
 11
302.9382969536388
 21
263.8201970284844
 31
0.0
  0
LINE
  5
73D
  8
0
 10
358.9382969536388
 20
191.5007956538594
 30
0.0
 11
358.9382969536388
 21
195.5007956538594
 31
0.0
1001
PE_URL
1000
t
  0
LINE
  5
73E
  8
0
 10
338.9382969536388
 20
191.5007956538594
 30
0.0
 11
338.9382969536388
 21
195.5007956538594
 31
0.0
1001
PE_URL
1000
t
  0
LINE
  5
73F
  8
0
 10
358.9382969536388
 20
195.5007956538594
 30
0.0
 11
338.9382969536388
 21
195.5007956538594
 31
0.0
1001
PE_URL
1000
t
  0
LINE
  5
740
  8
0
 10
338.9382969536388
 20
191.5007956538594
 30
0.0
 11
302.9382969536388
 21
191.5007956538594
 31
0.0
1001
PE_URL
1000
t
  0
LINE
  5
741
  8
0
 10
378.9382969536388
 20
191.5007956538594
 30
0.0
 11
358.9382969536388
 21
191.5007956538594
 31
0.0
1001
PE_URL
1000
t
  0
LINE
  5
742
  8
0
 10
378.9382969536388
 20
231.5007956538594
 30
0.0
 11
302.9382969536388
 21
231.5007956538594
 31
0.0
1001
PE_URL
1000
t
  0
LINE
  5
743
  8
0
 10
378.9382969536388
 20
191.5007956538594
 30
0.0
 11
378.9382969536388
 21
231.5007956538594
 31
0.0
1001
PE_URL
1000
t
  0
LINE
  5
744
  8
0
 10
303.7717004257407
 20
231.5007956538594
 30
0.0
 11
318.6282137971406
 21
231.5007956538594
 31
0.0
1001
PE_URL
1000
t
  0
LINE
  5
745
  8
0
 10
302.9382969536388
 20
201.5007956538594
 30
0.0
 11
298.9382969536388
 21
201.5007956538594
 31
0.0
  0
LINE
  5
746
  8
0
 10
298.9382969536388
 20
211.5007956538594
 30
0.0
 11
298.9382969536388
 21
221.5007956538594
 31
0.0
  0
LINE
  5
747
  8
0
 10
302.9382969536388
 20
191.5007956538594
 30
0.0
 11
298.9382969536388
 21
191.5007956538594
 31
0.0
  0
LINE
  5
748
  8
0
 10
302.9382969536388
 20
211.5007956538594
 30
0.0
 11
298.9382969536388
 21
211.5007956538594
 31
0.0
  0
LINE
  5
749
  8
0
 10
302.9382969536388
 20
221.5007956538594
 30
0.0
 11
298.9382969536388
 21
221.5007956538594
 31
0.0
  0
LINE
  5
74A
  8
0
 10
298.9382969536388
 20
191.5007956538594
 30
0.0
 11
298.9382969536388
 21
201.5007956538594
 31
0.0
  0
LINE
  5
74B
  8
0
 10
302.9382969536388
 20
221.5007956538594
 30
0.0
 11
302.9382969536388
 21
231.5007956538594
 31
0.0
  0
LINE
  5
74C
  8
0
 10
302.9382969536388
 20
201.5007956538594
 30
0.0
 11
302.9382969536388
 21
211.5007956538594
 31
0.0
  0
LINE
  5
74D
  8
0
 10
358.9382969536388
 20
133.5183460801238
 30
0.0
 11
358.9382969536388
 21
137.5183460801238
 31
0.0
1001
PE_URL
1000
t
  0
LINE
  5
74E
  8
0
 10
338.9382969536388
 20
133.5183460801238
 30
0.0
 11
338.9382969536388
 21
137.5183460801238
 31
0.0
1001
PE_URL
1000
t
  0
LINE
  5
74F
  8
0
 10
358.9382969536388
 20
137.5183460801238
 30
0.0
 11
338.9382969536388
 21
137.5183460801238
 31
0.0
1001
PE_URL
1000
t
  0
LINE
  5
750
  8
0
 10
338.9382969536388
 20
133.5183460801238
 30
0.0
 11
302.9382969536388
 21
133.5183460801238
 31
0.0
1001
PE_URL
1000
t
  0
LINE
  5
751
  8
0
 10
378.9382969536388
 20
133.5183460801238
 30
0.0
 11
358.9382969536388
 21
133.5183460801238
 31
0.0
1001
PE_URL
1000
t
  0
LINE
  5
752
  8
0
 10
378.9382969536388
 20
173.5183460801238
 30
0.0
 11
302.9382969536388
 21
173.5183460801238
 31
0.0
1001
PE_URL
1000
t
  0
LINE
  5
753
  8
0
 10
378.9382969536388
 20
133.5183460801238
 30
0.0
 11
378.9382969536388
 21
173.5183460801238
 31
0.0
1001
PE_URL
1000
t
  0
LINE
  5
754
  8
0
 10
303.7717004257407
 20
173.5183460801238
 30
0.0
 11
318.6282137971406
 21
173.5183460801238
 31
0.0
1001
PE_URL
1000
t
  0
LINE
  5
755
  8
0
 10
302.9382969536388
 20
143.5183460801238
 30
0.0
 11
298.9382969536388
 21
143.5183460801238
 31
0.0
  0
LINE
  5
756
  8
0
 10
298.9382969536388
 20
153.5183460801238
 30
0.0
 11
298.9382969536388
 21
163.5183460801238
 31
0.0
  0
LINE
  5
757
  8
0
 10
302.9382969536388
 20
133.5183460801238
 30
0.0
 11
298.9382969536388
 21
133.5183460801238
 31
0.0
  0
LINE
  5
758
  8
0
 10
302.9382969536388
 20
153.5183460801238
 30
0.0
 11
298.9382969536388
 21
153.5183460801238
 31
0.0
  0
LINE
  5
759
  8
0
 10
302.9382969536388
 20
163.5183460801238
 30
0.0
 11
298.9382969536388
 21
163.5183460801238
 31
0.0
  0
LINE
  5
75A
  8
0
 10
298.9382969536388
 20
133.5183460801238
 30
0.0
 11
298.9382969536388
 21
143.5183460801238
 31
0.0
  0
LINE
  5
75B
  8
0
 10
302.9382969536388
 20
163.5183460801238
 30
0.0
 11
302.9382969536388
 21
173.5183460801238
 31
0.0
  0
LINE
  5
75C
  8
0
 10
302.9382969536388
 20
143.5183460801238
 30
0.0
 11
302.9382969536388
 21
153.5183460801238
 31
0.0
  0
LINE
  5
75D
  8
0
 10
81.50972907441508
 20
378.8205869368416
 30
0.0
 11
81.50972907441508
 21
368.8205869368416
 31
0.0
  0
LINE
  5
75E
  8
0
 10
85.50972907441508
 20
378.8205869368416
 30
0.0
 11
81.50972907441508
 21
378.8205869368416
 31
0.0
  0
LINE
  5
75F
  8
0
 10
85.50972907441508
 20
368.8205869368416
 30
0.0
 11
85.50972907441508
 21
378.8205869368416
 31
0.0
  0
LINE
  5
760
  8
0
 10
81.50972907441508
 20
368.8205869368416
 30
0.0
 11
85.50972907441508
 21
368.8205869368416
 31
0.0
  0
LINE
  5
761
  8
0
 10
85.50972907441508
 20
388.8205869368416
 30
0.0
 11
81.50972907441508
 21
388.8205869368416
 31
0.0
  0
LINE
  5
762
  8
0
 10
81.50972907441508
 20
388.8205869368416
 30
0.0
 11
81.50972907441508
 21
398.8205869368416
 31
0.0
  0
LINE
  5
763
  8
0
 10
81.50972907441508
 20
398.8205869368416
 30
0.0
 11
96.50972907441508
 21
398.8205869368416
 31
0.0
  0
LINE
  5
764
  8
0
 10
106.5097290744151
 20
398.8205869368416
 30
0.0
 11
121.5097290744151
 21
398.8205869368416
 31
0.0
  0
LINE
  5
765
  8
0
 10
121.5097290744151
 20
388.8205869368416
 30
0.0
 11
121.5097290744151
 21
398.8205869368416
 31
0.0
  0
LINE
  5
766
  8
0
 10
121.5097290744151
 20
368.8205869368413
 30
0.0
 11
121.5097290744151
 21
378.8205869368414
 31
0.0
  0
LINE
  5
767
  8
0
 10
117.5097290744151
 20
368.8205869368413
 30
0.0
 11
121.5097290744151
 21
368.8205869368413
 31
0.0
  0
LINE
  5
768
  8
0
 10
117.5097290744151
 20
378.8205869368414
 30
0.0
 11
117.5097290744151
 21
368.8205869368413
 31
0.0
  0
LINE
  5
769
  8
0
 10
121.5097290744151
 20
378.8205869368414
 30
0.0
 11
117.5097290744151
 21
378.8205869368414
 31
0.0
  0
LINE
  5
76A
  8
0
 10
121.5097290744151
 20
388.8205869368416
 30
0.0
 11
117.5097290744151
 21
388.8205869368416
 31
0.0
  0
LINE
  5
76B
  8
0
 10
117.5097290744151
 20
388.8205869368416
 30
0.0
 11
117.5097290744151
 21
394.8205869368416
 31
0.0
  0
LINE
  5
76C
  8
0
 10
106.5097290744151
 20
394.8205869368416
 30
0.0
 11
117.5097290744151
 21
394.8205869368416
 31
0.0
  0
LINE
  5
76D
  8
0
 10
106.5097290744151
 20
398.8205869368416
 30
0.0
 11
106.5097290744151
 21
394.8205869368416
 31
0.0
  0
LINE
  5
76E
  8
0
 10
96.50972907441508
 20
398.8205869368416
 30
0.0
 11
96.50972907441508
 21
394.8205869368416
 31
0.0
  0
LINE
  5
76F
  8
0
 10
96.50972907441508
 20
394.8205869368416
 30
0.0
 11
85.50972907441508
 21
394.8205869368416
 31
0.0
  0
LINE
  5
770
  8
0
 10
85.50972907441508
 20
394.8205869368416
 30
0.0
 11
85.50972907441508
 21
388.8205869368416
 31
0.0
  0
LINE
  5
771
  8
0
 10
201.5097290744151
 20
558.8205869368417
 30
0.0
 11
181.5097290744151
 21
558.8205869368417
 31
0.0
  0
LINE
  5
772
  8
0
 10
81.50972907441508
 20
528.8205869368417
 30
0.0
 11
85.50972907441508
 21
528.8205869368417
 31
0.0
  0
LINE
  5
773
  8
0
 10
81.50972907441508
 20
518.8205869368417
 30
0.0
 11
81.50972907441508
 21
528.8205869368417
 31
0.0
  0
LINE
  5
774
  8
0
 10
85.50972907441508
 20
528.8205869368417
 30
0.0
 11
85.50972907441508
 21
522.8205869368417
 31
0.0
  0
LINE
  5
775
  8
0
 10
121.5097290744151
 20
528.8205869368417
 30
0.0
 11
121.5097290744151
 21
518.8205869368417
 31
0.0
  0
LINE
  5
776
  8
0
 10
96.50972907441508
 20
522.8205869368417
 30
0.0
 11
96.50972907441508
 21
518.8205869368417
 31
0.0
  0
LINE
  5
777
  8
0
 10
121.5097290744151
 20
518.8205869368417
 30
0.0
 11
106.5097290744151
 21
518.8205869368417
 31
0.0
  0
LINE
  5
778
  8
0
 10
81.50972907441508
 20
538.8205869368417
 30
0.0
 11
81.50972907441508
 21
548.8205869368417
 31
0.0
  0
LINE
  5
779
  8
0
 10
85.50972907441508
 20
538.8205869368417
 30
0.0
 11
81.50972907441508
 21
538.8205869368417
 31
0.0
  0
LINE
  5
77A
  8
0
 10
85.50972907441508
 20
548.8205869368417
 30
0.0
 11
85.50972907441508
 21
538.8205869368417
 31
0.0
  0
LINE
  5
77B
  8
0
 10
81.50972907441508
 20
548.8205869368417
 30
0.0
 11
85.50972907441508
 21
548.8205869368417
 31
0.0
  0
LINE
  5
77C
  8
0
 10
1.509729074415304
 20
538.8205869368417
 30
0.0
 11
5.509729074414849
 21
538.8205869368417
 31
0.0
  0
LINE
  5
77D
  8
0
 10
1.509729074415304
 20
498.8205869368417
 30
0.0
 11
1.509729074415304
 21
478.8205869368417
 31
0.0
  0
LINE
  5
77E
  8
0
 10
5.509729074414849
 20
498.8205869368417
 30
0.0
 11
1.509729074415304
 21
498.8205869368417
 31
0.0
  0
LINE
  5
77F
  8
0
 10
1.509729074415304
 20
378.8205869368417
 30
0.0
 11
5.509729074414849
 21
378.8205869368417
 31
0.0
  0
LINE
  5
780
  8
0
 10
5.509729074414849
 20
418.8205869368417
 30
0.0
 11
1.509729074415304
 21
418.8205869368417
 31
0.0
  0
LINE
  5
781
  8
0
 10
1.509729074415304
 20
478.8205869368417
 30
0.0
 11
5.509729074414849
 21
478.8205869368417
 31
0.0
  0
LINE
  5
782
  8
0
 10
5.509729074414849
 20
478.8205869368417
 30
0.0
 11
5.509729074414849
 21
438.8205869368416
 31
0.0
  0
LINE
  5
783
  8
0
 10
1.509729074415304
 20
438.8205869368416
 30
0.0
 11
1.509729074415304
 21
418.8205869368417
 31
0.0
  0
LINE
  5
784
  8
0
 10
5.509729074414849
 20
438.8205869368416
 30
0.0
 11
1.509729074415304
 21
438.8205869368416
 31
0.0
  0
LINE
  5
785
  8
0
 10
21.5097290744153
 20
358.8205869368417
 30
0.0
 11
21.5097290744153
 21
362.8205869368417
 31
0.0
  0
LINE
  5
786
  8
0
 10
21.5097290744153
 20
362.8205869368417
 30
0.0
 11
61.5097290744153
 21
362.8205869368417
 31
0.0
  0
LINE
  5
787
  8
0
 10
61.5097290744153
 20
358.8205869368417
 30
0.0
 11
141.5097290744151
 21
358.8205869368417
 31
0.0
  0
LINE
  5
788
  8
0
 10
61.5097290744153
 20
362.8205869368417
 30
0.0
 11
61.5097290744153
 21
358.8205869368417
 31
0.0
  0
LINE
  5
789
  8
0
 10
181.5097290744151
 20
358.8205869368417
 30
0.0
 11
201.5097290744151
 21
358.8205869368417
 31
0.0
  0
LINE
  5
78A
  8
0
 10
181.5097290744151
 20
358.8205869368417
 30
0.0
 11
181.5097290744151
 21
362.8205869368412
 31
0.0
  0
LINE
  5
78B
  8
0
 10
181.5097290744151
 20
362.8205869368412
 30
0.0
 11
141.5097290744151
 21
362.8205869368412
 31
0.0
  0
LINE
  5
78C
  8
0
 10
141.5097290744151
 20
362.8205869368412
 30
0.0
 11
141.5097290744151
 21
358.8205869368417
 31
0.0
  0
LINE
  5
78D
  8
0
 10
21.5097290744153
 20
558.8205869368417
 30
0.0
 11
21.5097290744153
 21
554.8205869368417
 31
0.0
  0
LINE
  5
78E
  8
0
 10
61.5097290744153
 20
554.8205869368417
 30
0.0
 11
61.5097290744153
 21
558.8205869368417
 31
0.0
  0
LINE
  5
78F
  8
0
 10
181.5097290744151
 20
558.8205869368417
 30
0.0
 11
181.5097290744151
 21
554.8205869368417
 31
0.0
  0
LINE
  5
790
  8
0
 10
141.5097290744151
 20
554.8205869368417
 30
0.0
 11
141.5097290744151
 21
558.8205869368417
 31
0.0
  0
LINE
  5
791
  8
0
 10
106.6861099764657
 20
478.139103462623
 30
0.0
 11
111.5097290744151
 21
476.1410950125304
 31
0.0
  0
LINE
  5
792
  8
0
 10
111.5097290744151
 20
476.1410950125304
 30
0.0
 11
115.6518646981461
 21
472.9627225605725
 31
0.0
  0
LINE
  5
793
  8
0
 10
115.6518646981461
 20
472.9627225605725
 30
0.0
 11
118.8302371501039
 21
468.8205869368416
 31
0.0
  0
LINE
  5
794
  8
0
 10
118.8302371501039
 20
468.8205869368416
 30
0.0
 11
120.8282456001965
 21
463.996967838892
 31
0.0
  0
LINE
  5
795
  8
0
 10
120.8282456001965
 20
463.996967838892
 30
0.0
 11
121.5097290744151
 21
458.8205869368416
 31
0.0
  0
LINE
  5
796
  8
0
 10
121.5097290744151
 20
458.8205869368416
 30
0.0
 11
120.8282456001965
 21
453.6442060347912
 31
0.0
  0
LINE
  5
797
  8
0
 10
120.8282456001965
 20
453.6442060347912
 30
0.0
 11
118.8302371501039
 21
448.8205869368416
 31
0.0
  0
LINE
  5
798
  8
0
 10
118.8302371501039
 20
448.8205869368416
 30
0.0
 11
115.6518646981461
 21
444.6784513131107
 31
0.0
  0
LINE
  5
799
  8
0
 10
115.6518646981461
 20
444.6784513131107
 30
0.0
 11
111.5097290744151
 21
441.5000788611528
 31
0.0
  0
LINE
  5
79A
  8
0
 10
111.5097290744151
 20
441.5000788611528
 30
0.0
 11
106.6861099764657
 21
439.5020704110602
 31
0.0
  0
LINE
  5
79B
  8
0
 10
106.6861099764657
 20
439.5020704110602
 30
0.0
 11
101.5097290744151
 21
438.8205869368416
 31
0.0
  0
LINE
  5
79C
  8
0
 10
101.5097290744151
 20
438.8205869368416
 30
0.0
 11
96.33334817236471
 21
439.5020704110602
 31
0.0
  0
LINE
  5
79D
  8
0
 10
96.33334817236471
 20
439.5020704110602
 30
0.0
 11
91.50972907441508
 21
441.5000788611528
 31
0.0
  0
LINE
  5
79E
  8
0
 10
91.50972907441508
 20
441.5000788611528
 30
0.0
 11
87.36759345068424
 21
444.6784513131107
 31
0.0
  0
LINE
  5
79F
  8
0
 10
87.36759345068424
 20
444.6784513131107
 30
0.0
 11
84.18922099872646
 21
448.8205869368417
 31
0.0
  0
LINE
  5
7A0
  8
0
 10
84.18922099872646
 20
448.8205869368417
 30
0.0
 11
82.19121254863387
 21
453.6442060347912
 31
0.0
  0
LINE
  5
7A1
  8
0
 10
82.19121254863387
 20
453.6442060347912
 30
0.0
 11
81.50972907441508
 21
458.8205869368416
 31
0.0
  0
LINE
  5
7A2
  8
0
 10
81.50972907441508
 20
458.8205869368416
 30
0.0
 11
82.19121254863387
 21
463.996967838892
 31
0.0
  0
LINE
  5
7A3
  8
0
 10
82.19121254863387
 20
463.996967838892
 30
0.0
 11
84.18922099872646
 21
468.8205869368416
 31
0.0
  0
LINE
  5
7A4
  8
0
 10
84.18922099872646
 20
468.8205869368416
 30
0.0
 11
87.36759345068424
 21
472.9627225605726
 31
0.0
  0
LINE
  5
7A5
  8
0
 10
87.36759345068424
 20
472.9627225605726
 30
0.0
 11
91.5097290744153
 21
476.1410950125304
 31
0.0
  0
LINE
  5
7A6
  8
0
 10
91.5097290744153
 20
476.1410950125304
 30
0.0
 11
96.33334817236471
 21
478.139103462623
 31
0.0
  0
LINE
  5
7A7
  8
0
 10
96.33334817236471
 20
478.139103462623
 30
0.0
 11
101.5097290744153
 21
478.8205869368417
 31
0.0
  0
LINE
  5
7A8
  8
0
 10
101.5097290744153
 20
478.8205869368417
 30
0.0
 11
106.6861099764657
 21
478.139103462623
 31
0.0
  0
LINE
  5
7A9
  8
0
 10
109.0097290744151
 20
535.8205869368417
 30
0.0
 11
109.0097290744151
 21
543.8205869368417
 31
0.0
  0
LINE
  5
7AA
  8
0
 10
94.0097290744153
 20
543.8205869368417
 30
0.0
 11
94.0097290744153
 21
535.8205869368417
 31
0.0
  0
LINE
  5
7AB
  8
0
 10
117.5097290744151
 20
528.8205869368417
 30
0.0
 11
121.5097290744151
 21
528.8205869368417
 31
0.0
  0
LINE
  5
7AC
  8
0
 10
121.5097290744151
 20
538.8205869368417
 30
0.0
 11
117.5097290744151
 21
538.8205869368417
 31
0.0
  0
LINE
  5
7AD
  8
0
 10
117.5097290744151
 20
548.8205869368417
 30
0.0
 11
121.5097290744151
 21
548.8205869368417
 31
0.0
  0
LINE
  5
7AE
  8
0
 10
121.5097290744151
 20
548.8205869368417
 30
0.0
 11
121.5097290744151
 21
538.8205869368417
 31
0.0
  0
LINE
  5
7AF
  8
0
 10
106.5097290744151
 20
522.8205869368417
 30
0.0
 11
106.5097290744151
 21
518.8205869368417
 31
0.0
  0
LINE
  5
7B0
  8
0
 10
117.5097290744151
 20
522.8205869368417
 30
0.0
 11
106.5097290744151
 21
522.8205869368417
 31
0.0
  0
LINE
  5
7B1
  8
0
 10
117.5097290744151
 20
528.8205869368417
 30
0.0
 11
117.5097290744151
 21
522.8205869368417
 31
0.0
  0
LINE
  5
7B2
  8
0
 10
117.5097290744151
 20
538.8205869368417
 30
0.0
 11
117.5097290744151
 21
548.8205869368417
 31
0.0
  0
LINE
  5
7B3
  8
0
 10
141.5097290744151
 20
558.8205869368417
 30
0.0
 11
137.1486905751213
 21
558.8205869368417
 31
0.0
  0
LINE
  5
7B4
  8
0
 10
85.50972907441508
 20
522.8205869368417
 30
0.0
 11
95.64869057512135
 21
522.8205869368417
 31
0.0
  0
LINE
  5
7B5
  8
0
 10
95.64869057512135
 20
522.8205869368417
 30
0.0
 11
96.50972907441508
 21
522.8205869368417
 31
0.0
  0
LINE
  5
7B6
  8
0
 10
96.50972907441508
 20
518.8205869368417
 30
0.0
 11
95.64869057512135
 21
518.8205869368417
 31
0.0
  0
LINE
  5
7B7
  8
0
 10
95.64869057512135
 20
518.8205869368417
 30
0.0
 11
81.50972907441508
 21
518.8205869368417
 31
0.0
  0
LINE
  5
7B8
  8
0
 10
109.0097290744151
 20
543.8205869368417
 30
0.0
 11
95.64869057512135
 21
543.8205869368417
 31
0.0
  0
LINE
  5
7B9
  8
0
 10
95.64869057512135
 20
543.8205869368417
 30
0.0
 11
94.0097290744153
 21
543.8205869368417
 31
0.0
  0
LINE
  5
7BA
  8
0
 10
94.0097290744153
 20
535.8205869368417
 30
0.0
 11
95.64869057512135
 21
535.8205869368417
 31
0.0
  0
LINE
  5
7BB
  8
0
 10
95.64869057512135
 20
535.8205869368417
 30
0.0
 11
109.0097290744151
 21
535.8205869368417
 31
0.0
  0
LINE
  5
7BC
  8
0
 10
131.1486905751213
 20
558.8205869368417
 30
0.0
 11
137.1486905751213
 21
558.8205869368417
 31
0.0
  0
LINE
  5
7BD
  8
0
 10
1.509729074415304
 20
358.8205869368417
 30
0.0
 11
21.5097290744153
 21
358.8205869368417
 31
0.0
  0
LINE
  5
7BE
  8
0
 10
5.509729074414849
 20
418.8205869368417
 30
0.0
 11
5.509729074414849
 21
378.8205869368417
 31
0.0
  0
LINE
  5
7BF
  8
0
 10
201.5097290744151
 20
558.8205869368417
 30
0.0
 11
201.5097290744151
 21
358.8205869368417
 31
0.0
  0
LINE
  5
7C0
  8
0
 10
61.5097290744153
 20
558.8205869368417
 30
0.0
 11
131.1486905751213
 21
558.8205869368417
 31
0.0
  0
LINE
  5
7C1
  8
0
 10
21.5097290744153
 20
558.8205869368417
 30
0.0
 11
1.509729074415304
 21
558.8205869368417
 31
0.0
  0
LINE
  5
7C2
  8
0
 10
1.509729074415304
 20
358.8205869368417
 30
0.0
 11
1.509729074415304
 21
378.8205869368417
 31
0.0
  0
LINE
  5
7C3
  8
0
 10
1.509729074415304
 20
558.8205869368417
 30
0.0
 11
1.509729074415304
 21
538.8205869368417
 31
0.0
  0
LINE
  5
7C4
  8
0
 10
5.509729074414849
 20
498.8205869368417
 30
0.0
 11
5.509729074414849
 21
538.8205869368417
 31
0.0
  0
LINE
  5
7C5
  8
0
 10
61.5097290744153
 20
554.8205869368417
 30
0.0
 11
21.5097290744153
 21
554.8205869368417
 31
0.0
  0
LINE
  5
7C6
  8
0
 10
181.5097290744151
 20
554.8205869368417
 30
0.0
 11
141.5097290744151
 21
554.8205869368417
 31
0.0
  0
LINE
  5
7C7
  8
0
 10
358.9382969536388
 20
504.6888382460404
 30
0.0
 11
358.9382969536388
 21
508.6888382460404
 31
0.0
1001
PE_URL
1000
t
  0
LINE
  5
7C8
  8
0
 10
338.9382969536388
 20
504.6888382460404
 30
0.0
 11
338.9382969536388
 21
508.6888382460404
 31
0.0
1001
PE_URL
1000
t
  0
LINE
  5
7C9
  8
0
 10
358.9382969536388
 20
508.6888382460404
 30
0.0
 11
338.9382969536388
 21
508.6888382460404
 31
0.0
1001
PE_URL
1000
t
  0
LINE
  5
7CA
  8
0
 10
338.9382969536388
 20
504.6888382460404
 30
0.0
 11
302.9382969536388
 21
504.6888382460404
 31
0.0
1001
PE_URL
1000
t
  0
LINE
  5
7CB
  8
0
 10
378.9382969536388
 20
504.6888382460404
 30
0.0
 11
358.9382969536388
 21
504.6888382460404
 31
0.0
1001
PE_URL
1000
t
  0
LINE
  5
7CC
  8
0
 10
378.9382969536388
 20
544.6888382460404
 30
0.0
 11
302.9382969536388
 21
544.6888382460404
 31
0.0
1001
PE_URL
1000
t
  0
LINE
  5
7CD
  8
0
 10
378.9382969536388
 20
504.6888382460404
 30
0.0
 11
378.9382969536388
 21
544.6888382460404
 31
0.0
1001
PE_URL
1000
t
  0
LINE
  5
7CE
  8
0
 10
303.7717004257407
 20
544.6888382460404
 30
0.0
 11
318.6282137971406
 21
544.6888382460404
 31
0.0
1001
PE_URL
1000
t
  0
LINE
  5
7CF
  8
0
 10
302.9382969536388
 20
514.6888382460404
 30
0.0
 11
298.9382969536388
 21
514.6888382460404
 31
0.0
  0
LINE
  5
7D0
  8
0
 10
298.9382969536388
 20
524.6888382460404
 30
0.0
 11
298.9382969536388
 21
534.6888382460404
 31
0.0
  0
LINE
  5
7D1
  8
0
 10
302.9382969536388
 20
504.6888382460404
 30
0.0
 11
298.9382969536388
 21
504.6888382460404
 31
0.0
  0
LINE
  5
7D2
  8
0
 10
302.9382969536388
 20
524.6888382460404
 30
0.0
 11
298.9382969536388
 21
524.6888382460404
 31
0.0
  0
LINE
  5
7D3
  8
0
 10
302.9382969536388
 20
534.6888382460404
 30
0.0
 11
298.9382969536388
 21
534.6888382460404
 31
0.0
  0
LINE
  5
7D4
  8
0
 10
298.9382969536388
 20
504.6888382460404
 30
0.0
 11
298.9382969536388
 21
514.6888382460404
 31
0.0
  0
LINE
  5
7D5
  8
0
 10
302.9382969536388
 20
534.6888382460404
 30
0.0
 11
302.9382969536388
 21
544.6888382460404
 31
0.0
  0
LINE
  5
7D6
  8
0
 10
302.9382969536388
 20
514.6888382460404
 30
0.0
 11
302.9382969536388
 21
524.6888382460404
 31
0.0
  0
LINE
  5
7D7
  8
0
 10
255.1879822252698
 20
411.9598655917765
 30
0.0
 11
251.1879822252698
 21
411.9598655917765
 31
0.0
1001
PE_URL
1000
t
  0
LINE
  5
7D8
  8
0
 10
255.1879822252698
 20
391.9598655917765
 30
0.0
 11
251.1879822252698
 21
391.9598655917765
 31
0.0
1001
PE_URL
1000
t
  0
LINE
  5
7D9
  8
0
 10
219.1879822252698
 20
411.9598655917765
 30
0.0
 11
215.1879822252698
 21
411.9598655917765
 31
0.0
1001
PE_URL
1000
t
  0
LINE
  5
7DA
  8
0
 10
219.1879822252698
 20
391.9598655917765
 30
0.0
 11
215.1879822252698
 21
391.9598655917765
 31
0.0
1001
PE_URL
1000
t
  0
LINE
  5
7DB
  8
0
 10
219.1879822252698
 20
431.9598655917765
 30
0.0
 11
251.1879822252698
 21
431.9598655917765
 31
0.0
  0
LINE
  5
7DC
  8
0
 10
215.1879822252698
 20
411.9598655917765
 30
0.0
 11
215.1879822252698
 21
391.9598655917765
 31
0.0
  0
LINE
  5
7DD
  8
0
 10
251.1879822252698
 20
431.9598655917765
 30
0.0
 11
251.1879822252698
 21
411.9598655917765
 31
0.0
  0
LINE
  5
7DE
  8
0
 10
219.1879822252698
 20
431.9598655917765
 30
0.0
 11
219.1879822252698
 21
411.9598655917765
 31
0.0
  0
LINE
  5
7DF
  8
0
 10
251.1879822252698
 20
391.9598655917765
 30
0.0
 11
251.1879822252698
 21
351.9598655917765
 31
0.0
  0
LINE
  5
7E0
  8
0
 10
230.1879822252698
 20
355.9598655917765
 30
0.0
 11
240.1879822252698
 21
355.9598655917765
 31
0.0
  0
LINE
  5
7E1
  8
0
 10
230.1879822252698
 20
355.9598655917765
 30
0.0
 11
230.1879822252698
 21
351.9598655917765
 31
0.0
  0
LINE
  5
7E2
  8
0
 10
219.1879822252698
 20
391.9598655917765
 30
0.0
 11
219.1879822252698
 21
351.9598655917765
 31
0.0
  0
LINE
  5
7E3
  8
0
 10
240.1879822252698
 20
355.9598655917765
 30
0.0
 11
240.1879822252698
 21
351.9598655917765
 31
0.0
  0
LINE
  5
7E4
  8
0
 10
240.1879822252698
 20
351.9598655917765
 30
0.0
 11
251.1879822252698
 21
351.9598655917765
 31
0.0
  0
LINE
  5
7E5
  8
0
 10
219.1879822252698
 20
351.9598655917765
 30
0.0
 11
230.1879822252698
 21
351.9598655917765
 31
0.0
  0
LINE
  5
7E6
  8
0
 10
255.1879822252698
 20
411.9598655917765
 30
0.0
 11
255.1879822252698
 21
391.9598655917765
 31
0.0
  0
LINE
  5
7E7
  8
0
 10
254.1949869755819
 20
516.224366809027
 30
0.0
 11
250.1949869755821
 21
516.224366809027
 31
0.0
1001
PE_URL
1000
t
  0
LINE
  5
7E8
  8
0
 10
254.1949869755819
 20
496.2243668090269
 30
0.0
 11
250.1949869755821
 21
496.2243668090269
 31
0.0
1001
PE_URL
1000
t
  0
LINE
  5
7E9
  8
0
 10
218.1949869755819
 20
516.224366809027
 30
0.0
 11
214.1949869755821
 21
516.224366809027
 31
0.0
1001
PE_URL
1000
t
  0
LINE
  5
7EA
  8
0
 10
218.1949869755819
 20
496.2243668090269
 30
0.0
 11
214.1949869755821
 21
496.2243668090269
 31
0.0
1001
PE_URL
1000
t
  0
LINE
  5
7EB
  8
0
 10
218.1949869755819
 20
536.224366809027
 30
0.0
 11
250.1949869755819
 21
536.224366809027
 31
0.0
  0
LINE
  5
7EC
  8
0
 10
214.1949869755819
 20
516.224366809027
 30
0.0
 11
214.1949869755819
 21
496.2243668090269
 31
0.0
  0
LINE
  5
7ED
  8
0
 10
250.1949869755819
 20
536.224366809027
 30
0.0
 11
250.1949869755819
 21
516.224366809027
 31
0.0
  0
LINE
  5
7EE
  8
0
 10
218.1949869755819
 20
536.224366809027
 30
0.0
 11
218.1949869755819
 21
516.224366809027
 31
0.0
  0
LINE
  5
7EF
  8
0
 10
250.1949869755819
 20
496.2243668090269
 30
0.0
 11
250.1949869755819
 21
456.2243668090269
 31
0.0
  0
LINE
  5
7F0
  8
0
 10
229.1949869755819
 20
460.2243668090269
 30
0.0
 11
239.1949869755819
 21
460.2243668090269
 31
0.0
  0
LINE
  5
7F1
  8
0
 10
229.1949869755819
 20
460.2243668090269
 30
0.0
 11
229.1949869755819
 21
456.2243668090269
 31
0.0
  0
LINE
  5
7F2
  8
0
 10
218.1949869755819
 20
496.2243668090269
 30
0.0
 11
218.1949869755819
 21
456.2243668090269
 31
0.0
  0
LINE
  5
7F3
  8
0
 10
239.1949869755819
 20
460.2243668090269
 30
0.0
 11
239.1949869755819
 21
456.2243668090269
 31
0.0
  0
LINE
  5
7F4
  8
0
 10
239.1949869755819
 20
456.2243668090269
 30
0.0
 11
250.1949869755819
 21
456.2243668090269
 31
0.0
  0
LINE
  5
7F5
  8
0
 10
218.1949869755819
 20
456.2243668090269
 30
0.0
 11
229.1949869755819
 21
456.2243668090269
 31
0.0
  0
LINE
  5
7F6
  8
0
 10
254.1949869755819
 20
516.224366809027
 30
0.0
 11
254.1949869755819
 21
496.2243668090269
 31
0.0
  0
LINE
  5
7F7
  8
0
 10
33.10611582412525
 20
55.82925295805967
 30
0.0
 11
33.10611582412537
 21
20.82925295805966
 31
0.0
  0
LINE
  5
7F8
  8
0
 10
33.10611582412525
 20
55.82925295805967
 30
0.0
 11
64.45862371315002
 21
55.82925295805993
 31
0.0
  0
LINE
  5
7F9
  8
0
 10
64.45862371315002
 20
55.82925295805993
 30
0.0
 11
81.45862371315002
 21
55.82925295806005
 31
0.0
  0
LINE
  5
7FA
  8
0
 10
81.45862371315002
 20
55.82925295806005
 30
0.0
 11
83.10611582412491
 21
55.82925295806007
 31
0.0
  0
LINE
  5
7FB
  8
0
 10
83.10611582412514
 20
62.43511655592887
 30
0.0
 11
83.10611582412514
 21
58.43511901462877
 31
0.0
  0
LINE
  5
7FC
  8
0
 10
83.10611582412514
 20
58.43511901462877
 30
0.0
 11
83.10611582412514
 21
57.42989366070479
 31
0.0
  0
LINE
  5
7FD
  8
0
 10
83.10611582412514
 20
57.42989366070479
 30
0.0
 11
83.10611582412491
 21
55.82925295806007
 31
0.0
  0
LINE
  5
7FE
  8
0
 10
83.10611582412491
 20
88.99624165299667
 30
0.0
 11
83.10611582412514
 21
62.43511655592887
 31
0.0
  0
LINE
  5
7FF
  8
0
 10
33.10611582412469
 20
95.82925295805964
 30
0.0
 11
83.10611582412469
 21
95.82925295806004
 31
0.0
  0
LINE
  5
800
  8
0
 10
83.10611582412469
 20
95.82925295806004
 30
0.0
 11
83.10611582412491
 21
88.99624165299667
 31
0.0
  0
LINE
  5
801
  8
0
 10
3.106115824125823
 20
130.8292529580593
 30
0.0
 11
13.10611582412434
 21
130.8292529580595
 31
0.0
  0
LINE
  5
802
  8
0
 10
23.10611582412446
 20
130.8292529580596
 30
0.0
 11
33.10611582412469
 21
130.8292529580596
 31
0.0
  0
LINE
  5
803
  8
0
 10
23.10611582412446
 20
126.8292529580596
 30
0.0
 11
23.10611582412446
 21
130.8292529580596
 31
0.0
  0
LINE
  5
804
  8
0
 10
13.10611582412446
 20
126.8292529580595
 30
0.0
 11
13.10611582412434
 21
130.8292529580595
 31
0.0
  0
LINE
  5
805
  8
0
 10
13.10611582412446
 20
126.8292529580595
 30
0.0
 11
23.10611582412446
 21
126.8292529580596
 31
0.0
  0
LINE
  5
806
  8
0
 10
33.10611582412469
 20
130.8292529580596
 30
0.0
 11
33.10611582412469
 21
95.82925295805964
 31
0.0
  0
LINE
  5
807
  8
0
 10
3.106115824125823
 20
130.8292529580593
 30
0.0
 11
3.106115824124799
 21
89.13310807071076
 31
0.0
  0
LINE
  5
808
  8
0
 10
3.106115824125027
 20
62.52539784540964
 30
0.0
 11
3.106115824124799
 21
89.13310807071076
 31
0.0
  0
LINE
  5
809
  8
0
 10
3.106115824125595
 20
20.82925295805931
 30
0.0
 11
3.106115824125027
 21
62.52539784540964
 31
0.0
  0
LINE
  5
80A
  8
0
 10
13.10611582412525
 20
20.82925295805948
 30
0.0
 11
13.10611582412514
 21
24.82925295805953
 31
0.0
  0
LINE
  5
80B
  8
0
 10
13.10611582412514
 20
24.82925295805953
 30
0.0
 11
23.10611582412525
 21
24.82925295805943
 31
0.0
  0
LINE
  5
80C
  8
0
 10
23.10611582412525
 20
24.82925295805943
 30
0.0
 11
23.10611582412537
 21
20.82925295805943
 31
0.0
  0
LINE
  5
80D
  8
0
 10
3.106115824125595
 20
20.82925295805931
 30
0.0
 11
13.10611582412525
 21
20.82925295805948
 31
0.0
  0
LINE
  5
80E
  8
0
 10
23.10611582412537
 20
20.82925295805943
 30
0.0
 11
33.10611582412537
 21
20.82925295805966
 31
0.0
  0
LINE
  5
80F
  8
0
 10
76.49797985937039
 20
15.96691639260247
 30
0.0
 11
76.4897442625911
 21
31.96691427306925
 31
0.0
  0
LINE
  5
810
  8
0
 10
66.49798163605669
 20
15.96176914514173
 30
0.0
 11
66.50004053525151
 21
11.96176967502505
 31
0.0
  0
LINE
  5
811
  8
0
 10
66.49798163605669
 20
15.96176914514173
 30
0.0
 11
76.49797985937039
 21
15.96691639260247
 31
0.0
  0
LINE
  5
812
  8
0
 10
46.49798518942919
 20
15.95147465022026
 30
0.0
 11
56.49798341274288
 21
15.95662189768102
 31
0.0
  0
LINE
  5
813
  8
0
 10
56.49798341274288
 20
15.95662189768102
 30
0.0
 11
56.5000423119377
 21
11.95662242756429
 31
0.0
  0
LINE
  5
814
  8
0
 10
68.98305912383114
 20
44.9534331733939
 30
0.0
 11
65.36457412475033
 21
46.45007718536849
 31
0.0
  0
LINE
  5
815
  8
0
 10
74.47626524041357
 20
39.46587887893783
 30
0.0
 11
72.09088728002416
 21
42.57125319498712
 31
0.0
  0
LINE
  5
816
  8
0
 10
50.87768761334837
 20
42.56033423423533
 30
0.0
 11
48.4955077428466
 21
39.45250593775617
 31
0.0
  0
LINE
  5
817
  8
0
 10
53.98306178886048
 20
44.94571230220274
 30
0.0
 11
50.87768761334837
 21
42.56033423423533
 31
0.0
  0
LINE
  5
818
  8
0
 10
46.48974959264979
 20
31.95147253068714
 30
0.0
 11
46.49798518942919
 21
15.95147465022026
 31
0.0
  0
LINE
  5
819
  8
0
 10
46.99886379879172
 20
35.83402077524158
 30
0.0
 11
46.48974959264979
 21
31.95147253068714
 31
0.0
  0
LINE
  5
81A
  8
0
 10
48.4955077428466
 20
39.45250593775617
 30
0.0
 11
46.99886379879172
 21
35.83402077524158
 31
0.0
  0
LINE
  5
81B
  8
0
 10
76.4897442625911
 20
31.96691427306925
 30
0.0
 11
75.97663343902241
 21
35.84893635301137
 31
0.0
  0
LINE
  5
81C
  8
0
 10
75.97663343902241
 20
35.84893635301137
 30
0.0
 11
74.47626524041357
 21
39.46587887893783
 31
0.0
  0
LINE
  5
81D
  8
0
 10
72.09088728002416
 20
42.57125319498712
 30
0.0
 11
68.98305912383114
 21
44.9534331733939
 31
0.0
  0
LINE
  5
81E
  8
0
 10
65.36457412475033
 20
46.45007718536849
 30
0.0
 11
61.48202605563984
 21
46.95919141481585
 31
0.0
  0
LINE
  5
81F
  8
0
 10
61.48202605563984
 20
46.95919141481585
 30
0.0
 11
57.60000415119544
 21
46.44608056835037
 31
0.0
  0
LINE
  5
820
  8
0
 10
57.60000415119544
 20
46.44608056835037
 30
0.0
 11
53.98306178886048
 21
44.94571230220274
 31
0.0
  0
LINE
  5
821
  8
0
 10
58.99232099578558
 20
26.95790725236718
 30
0.0
 11
63.99232010744242
 21
26.96048087609755
 31
0.0
  0
LINE
  5
822
  8
0
 10
63.99232010744242
 20
26.96048087609755
 30
0.0
 11
63.98717285945531
 21
36.9604795513893
 31
0.0
  0
LINE
  5
823
  8
0
 10
63.98717285945531
 20
36.9604795513893
 30
0.0
 11
58.98717374779847
 21
36.95790592765886
 31
0.0
  0
LINE
  5
824
  8
0
 10
58.98717374779847
 20
36.95790592765886
 30
0.0
 11
58.99232099578558
 21
26.95790725236718
 31
0.0
  0
LINE
  5
825
  8
0
 10
56.5000423119377
 20
11.95662242756429
 30
0.0
 11
66.50004053525151
 21
11.96176967502505
 31
0.0
  0
LINE
  5
826
  8
0
 10
40.68067644133464
 20
134.4683772827091
 30
0.0
 11
40.68067644133328
 21
127.5164445176169
 31
0.0
  0
LINE
  5
827
  8
0
 10
40.68067644133328
 20
127.5164445176169
 30
0.0
 11
40.68067644133362
 21
118.4683772827094
 31
0.0
  0
LINE
  5
828
  8
0
 10
59.56296211787037
 20
103.979489888372
 30
0.0
 11
63.18067644133271
 21
105.4779962259413
 31
0.0
  0
LINE
  5
829
  8
0
 10
63.18067644133271
 20
105.4779962259413
 30
0.0
 11
66.287278159131
 21
107.8617755649094
 31
0.0
  0
LINE
  5
82A
  8
0
 10
66.287278159131
 20
107.8617755649094
 30
0.0
 11
68.67105749809957
 21
110.9683772827075
 31
0.0
  0
LINE
  5
82B
  8
0
 10
68.67105749809957
 20
110.9683772827075
 30
0.0
 11
70.16956383566935
 21
114.5860916061696
 31
0.0
  0
LINE
  5
82C
  8
0
 10
70.16956383566935
 20
114.5860916061696
 30
0.0
 11
70.68067644133362
 21
118.4683772827073
 31
0.0
  0
LINE
  5
82D
  8
0
 10
40.68067644133362
 20
118.4683772827094
 30
0.0
 11
41.19178904699731
 21
114.5860916061716
 31
0.0
  0
LINE
  5
82E
  8
0
 10
41.19178904699731
 20
114.5860916061716
 30
0.0
 11
42.69029538456653
 21
110.9683772827093
 31
0.0
  0
LINE
  5
82F
  8
0
 10
42.69029538456653
 20
110.9683772827093
 30
0.0
 11
45.07407472353464
 21
107.8617755649109
 31
0.0
  0
LINE
  5
830
  8
0
 10
45.07407472353464
 20
107.8617755649109
 30
0.0
 11
48.18067644133271
 21
105.4779962259423
 31
0.0
  0
LINE
  5
831
  8
0
 10
48.18067644133271
 20
105.4779962259423
 30
0.0
 11
51.79839076479482
 21
103.9794898883726
 31
0.0
  0
LINE
  5
832
  8
0
 10
51.79839076479482
 20
103.9794898883726
 30
0.0
 11
55.68067644133248
 21
103.4683772827084
 31
0.0
  0
LINE
  5
833
  8
0
 10
55.68067644133248
 20
103.4683772827084
 30
0.0
 11
59.56296211787037
 21
103.979489888372
 31
0.0
  0
LINE
  5
834
  8
0
 10
70.68067644133362
 20
118.4683772827073
 30
0.0
 11
70.68067644133419
 21
127.5164445176168
 31
0.0
  0
LINE
  5
835
  8
0
 10
70.68067644133419
 20
127.5164445176168
 30
0.0
 11
70.68067644133475
 21
134.4683772827069
 31
0.0
  0
LINE
  5
836
  8
0
 10
70.68067644133475
 20
134.4683772827069
 30
0.0
 11
60.68067644133475
 21
134.4683772827076
 31
0.0
  0
LINE
  5
837
  8
0
 10
60.68067644133475
 20
134.4683772827076
 30
0.0
 11
60.68067644133498
 21
138.468377282708
 31
0.0
  0
LINE
  5
838
  8
0
 10
50.68067644133498
 20
138.4683772827087
 30
0.0
 11
50.68067644133464
 21
134.4683772827084
 31
0.0
  0
LINE
  5
839
  8
0
 10
50.68067644133464
 20
134.4683772827084
 30
0.0
 11
40.68067644133464
 21
134.4683772827091
 31
0.0
  0
LINE
  5
83A
  8
0
 10
60.68067644133498
 20
138.468377282708
 30
0.0
 11
50.68067644133498
 21
138.4683772827087
 31
0.0
  0
LINE
  5
83B
  8
0
 10
76.5268122682163
 20
134.1645964706169
 30
0.0
 11
76.52681226821494
 21
127.2126637055247
 31
0.0
  0
LINE
  5
83C
  8
0
 10
76.52681226821494
 20
127.2126637055247
 30
0.0
 11
76.52681226821528
 21
118.1645964706172
 31
0.0
  0
LINE
  5
83D
  8
0
 10
95.40909794475203
 20
103.6757090762798
 30
0.0
 11
99.02681226821437
 21
105.1742154138491
 31
0.0
  0
LINE
  5
83E
  8
0
 10
99.02681226821437
 20
105.1742154138491
 30
0.0
 11
102.1334139860127
 21
107.5579947528172
 31
0.0
  0
LINE
  5
83F
  8
0
 10
102.1334139860127
 20
107.5579947528172
 30
0.0
 11
104.5171933249812
 21
110.6645964706153
 31
0.0
  0
LINE
  5
840
  8
0
 10
104.5171933249812
 20
110.6645964706153
 30
0.0
 11
106.015699662551
 21
114.2823107940773
 31
0.0
  0
LINE
  5
841
  8
0
 10
106.015699662551
 20
114.2823107940773
 30
0.0
 11
106.5268122682153
 21
118.1645964706151
 31
0.0
  0
LINE
  5
842
  8
0
 10
76.52681226821528
 20
118.1645964706172
 30
0.0
 11
77.03792487387898
 21
114.2823107940794
 31
0.0
  0
LINE
  5
843
  8
0
 10
77.03792487387898
 20
114.2823107940794
 30
0.0
 11
78.53643121144819
 21
110.6645964706171
 31
0.0
  0
LINE
  5
844
  8
0
 10
78.53643121144819
 20
110.6645964706171
 30
0.0
 11
80.9202105504163
 21
107.5579947528187
 31
0.0
  0
LINE
  5
845
  8
0
 10
80.9202105504163
 20
107.5579947528187
 30
0.0
 11
84.02681226821437
 21
105.1742154138501
 31
0.0
  0
LINE
  5
846
  8
0
 10
84.02681226821437
 20
105.1742154138501
 30
0.0
 11
87.64452659167648
 21
103.6757090762804
 31
0.0
  0
LINE
  5
847
  8
0
 10
87.64452659167648
 20
103.6757090762804
 30
0.0
 11
91.52681226821414
 21
103.1645964706162
 31
0.0
  0
LINE
  5
848
  8
0
 10
91.52681226821414
 20
103.1645964706162
 30
0.0
 11
95.40909794475203
 21
103.6757090762798
 31
0.0
  0
LINE
  5
849
  8
0
 10
106.5268122682153
 20
118.1645964706151
 30
0.0
 11
106.5268122682158
 21
127.2126637055246
 31
0.0
  0
LINE
  5
84A
  8
0
 10
106.5268122682158
 20
127.2126637055246
 30
0.0
 11
106.5268122682164
 21
134.1645964706146
 31
0.0
  0
LINE
  5
84B
  8
0
 10
106.5268122682164
 20
134.1645964706146
 30
0.0
 11
96.52681226821642
 21
134.1645964706154
 31
0.0
  0
LINE
  5
84C
  8
0
 10
96.52681226821642
 20
134.1645964706154
 30
0.0
 11
96.52681226821664
 21
138.1645964706158
 31
0.0
  0
LINE
  5
84D
  8
0
 10
86.52681226821664
 20
138.1645964706165
 30
0.0
 11
86.5268122682163
 21
134.1645964706162
 31
0.0
  0
LINE
  5
84E
  8
0
 10
86.5268122682163
 20
134.1645964706162
 30
0.0
 11
76.5268122682163
 21
134.1645964706169
 31
0.0
  0
LINE
  5
84F
  8
0
 10
96.52681226821664
 20
138.1645964706158
 30
0.0
 11
86.52681226821664
 21
138.1645964706165
 31
0.0
  0
LINE
  5
850
  8
0
 10
592.4075807077076
 20
553.5714897482171
 30
0.0
 11
572.4075807077076
 21
553.5714897482171
 31
0.0
  0
LINE
  5
851
  8
0
 10
392.4075807077078
 20
533.5714897482171
 30
0.0
 11
396.4075807077073
 21
533.5714897482171
 31
0.0
  0
LINE
  5
852
  8
0
 10
392.4075807077078
 20
493.5714897482171
 30
0.0
 11
392.4075807077078
 21
473.5714897482171
 31
0.0
  0
LINE
  5
853
  8
0
 10
396.4075807077073
 20
493.5714897482171
 30
0.0
 11
392.4075807077078
 21
493.5714897482171
 31
0.0
  0
LINE
  5
854
  8
0
 10
392.4075807077078
 20
373.5714897482171
 30
0.0
 11
396.4075807077073
 21
373.5714897482171
 31
0.0
  0
LINE
  5
855
  8
0
 10
396.4075807077073
 20
413.5714897482171
 30
0.0
 11
392.4075807077078
 21
413.5714897482171
 31
0.0
  0
LINE
  5
856
  8
0
 10
392.4075807077078
 20
473.5714897482171
 30
0.0
 11
396.4075807077073
 21
473.5714897482171
 31
0.0
  0
LINE
  5
857
  8
0
 10
396.4075807077073
 20
473.5714897482171
 30
0.0
 11
396.4075807077073
 21
433.5714897482171
 31
0.0
  0
LINE
  5
858
  8
0
 10
392.4075807077078
 20
433.5714897482171
 30
0.0
 11
392.4075807077078
 21
413.5714897482171
 31
0.0
  0
LINE
  5
859
  8
0
 10
396.4075807077073
 20
433.5714897482171
 30
0.0
 11
392.4075807077078
 21
433.5714897482171
 31
0.0
  0
LINE
  5
85A
  8
0
 10
412.4075807077078
 20
353.5714897482171
 30
0.0
 11
412.4075807077078
 21
357.5714897482172
 31
0.0
  0
LINE
  5
85B
  8
0
 10
412.4075807077078
 20
357.5714897482172
 30
0.0
 11
452.4075807077078
 21
357.5714897482172
 31
0.0
  0
LINE
  5
85C
  8
0
 10
452.4075807077078
 20
353.5714897482171
 30
0.0
 11
532.4075807077076
 21
353.5714897482171
 31
0.0
  0
LINE
  5
85D
  8
0
 10
452.4075807077078
 20
357.5714897482172
 30
0.0
 11
452.4075807077078
 21
353.5714897482171
 31
0.0
  0
LINE
  5
85E
  8
0
 10
572.4075807077076
 20
353.5714897482171
 30
0.0
 11
592.4075807077076
 21
353.5714897482171
 31
0.0
  0
LINE
  5
85F
  8
0
 10
572.4075807077076
 20
353.5714897482171
 30
0.0
 11
572.4075807077076
 21
357.5714897482166
 31
0.0
  0
LINE
  5
860
  8
0
 10
572.4075807077076
 20
357.5714897482166
 30
0.0
 11
532.4075807077076
 21
357.5714897482166
 31
0.0
  0
LINE
  5
861
  8
0
 10
532.4075807077076
 20
357.5714897482166
 30
0.0
 11
532.4075807077076
 21
353.5714897482171
 31
0.0
  0
LINE
  5
862
  8
0
 10
412.4075807077078
 20
553.5714897482171
 30
0.0
 11
412.4075807077078
 21
549.5714897482171
 31
0.0
  0
LINE
  5
863
  8
0
 10
452.4075807077078
 20
549.5714897482171
 30
0.0
 11
452.4075807077078
 21
553.5714897482171
 31
0.0
  0
LINE
  5
864
  8
0
 10
572.4075807077076
 20
553.5714897482171
 30
0.0
 11
572.4075807077076
 21
549.5714897482171
 31
0.0
  0
LINE
  5
865
  8
0
 10
532.4075807077076
 20
549.5714897482171
 30
0.0
 11
532.4075807077076
 21
553.5714897482171
 31
0.0
  0
LINE
  5
866
  8
0
 10
532.4075807077076
 20
553.5714897482171
 30
0.0
 11
528.0465422084138
 21
553.5714897482171
 31
0.0
  0
LINE
  5
867
  8
0
 10
522.0465422084138
 20
553.5714897482171
 30
0.0
 11
528.0465422084138
 21
553.5714897482171
 31
0.0
  0
LINE
  5
868
  8
0
 10
392.4075807077078
 20
353.5714897482171
 30
0.0
 11
412.4075807077078
 21
353.5714897482171
 31
0.0
  0
LINE
  5
869
  8
0
 10
396.4075807077073
 20
413.5714897482171
 30
0.0
 11
396.4075807077073
 21
373.5714897482171
 31
0.0
  0
LINE
  5
86A
  8
0
 10
592.4075807077076
 20
553.5714897482171
 30
0.0
 11
592.4075807077076
 21
353.5714897482171
 31
0.0
  0
LINE
  5
86B
  8
0
 10
452.4075807077078
 20
553.5714897482171
 30
0.0
 11
522.0465422084138
 21
553.5714897482171
 31
0.0
  0
LINE
  5
86C
  8
0
 10
412.4075807077078
 20
553.5714897482171
 30
0.0
 11
392.4075807077078
 21
553.5714897482171
 31
0.0
  0
LINE
  5
86D
  8
0
 10
392.4075807077078
 20
353.5714897482171
 30
0.0
 11
392.4075807077078
 21
373.5714897482171
 31
0.0
  0
LINE
  5
86E
  8
0
 10
392.4075807077078
 20
553.5714897482171
 30
0.0
 11
392.4075807077078
 21
533.5714897482171
 31
0.0
  0
LINE
  5
86F
  8
0
 10
396.4075807077073
 20
493.5714897482171
 30
0.0
 11
396.4075807077073
 21
533.5714897482171
 31
0.0
  0
LINE
  5
870
  8
0
 10
452.4075807077078
 20
549.5714897482171
 30
0.0
 11
412.4075807077078
 21
549.5714897482171
 31
0.0
  0
LINE
  5
871
  8
0
 10
572.4075807077076
 20
549.5714897482171
 30
0.0
 11
532.4075807077076
 21
549.5714897482171
 31
0.0
  0
LINE
  5
872
  8
0
 10
0.0
 20
560.0
 30
0.0
 11
0.0
 21
0.0
 31
0.0
  0
LINE
  5
873
  8
0
 10
379.9999999999999
 20
560.0
 30
0.0
 11
379.9999999999999
 21
0.0
 31
0.0
  0
LINE
  5
874
  8
0
 10
387.4022547343906
 20
0.0
 30
0.0
 11
767.4022547343906
 21
0.0
 31
0.0
  0
LINE
  5
875
  8
0
 10
767.4022547343906
 20
560.0
 30
0.0
 11
767.4022547343906
 21
0.0
 31
0.0
  0
LINE
  5
876
  8
0
 10
387.4022547343906
 20
560.0
 30
0.0
 11
767.4022547343906
 21
560.0
 31
0.0
  0
LINE
  5
877
  8
0
 10
387.4022547343906
 20
560.0
 30
0.0
 11
387.4022547343906
 21
0.0
 31
0.0
  0
LINE
  5
878
  8
0
 10
116.2042074776638
 20
15.73056979963644
 30
0.0
 11
116.1959718808845
 21
31.73056768010322
 31
0.0
  0
LINE
  5
879
  8
0
 10
116.2062663758521
 20
11.73057228772153
 30
0.0
 11
116.2042074776638
 21
15.73056979963644
 31
0.0
  0
LINE
  5
87A
  8
0
 10
86.20627170691739
 20
11.71512858713753
 30
0.0
 11
86.20421280772257
 21
15.71512805725423
 31
0.0
  0
LINE
  5
87B
  8
0
 10
108.6892867421245
 20
44.71708658042787
 30
0.0
 11
105.0708017430437
 21
46.21373059240246
 31
0.0
  0
LINE
  5
87C
  8
0
 10
114.182492858707
 20
39.2295322859718
 30
0.0
 11
111.7971148983175
 21
42.33490660202109
 31
0.0
  0
LINE
  5
87D
  8
0
 10
90.58391523164175
 20
42.3239876412693
 30
0.0
 11
88.20173536113998
 21
39.21615934479014
 31
0.0
  0
LINE
  5
87E
  8
0
 10
93.68928940715386
 20
44.70936570923671
 30
0.0
 11
90.58391523164175
 21
42.3239876412693
 31
0.0
  0
LINE
  5
87F
  8
0
 10
86.19597721094317
 20
31.71512593772111
 30
0.0
 11
86.20421280772257
 21
15.71512805725423
 31
0.0
  0
LINE
  5
880
  8
0
 10
86.7050914170851
 20
35.59767418227555
 30
0.0
 11
86.19597721094317
 21
31.71512593772111
 31
0.0
  0
LINE
  5
881
  8
0
 10
88.20173536113998
 20
39.21615934479014
 30
0.0
 11
86.7050914170851
 21
35.59767418227555
 31
0.0
  0
LINE
  5
882
  8
0
 10
116.1959718808845
 20
31.73056768010322
 30
0.0
 11
115.6828610573158
 21
35.61258976004534
 31
0.0
  0
LINE
  5
883
  8
0
 10
115.6828610573158
 20
35.61258976004534
 30
0.0
 11
114.182492858707
 21
39.2295322859718
 31
0.0
  0
LINE
  5
884
  8
0
 10
111.7971148983175
 20
42.33490660202109
 30
0.0
 11
108.6892867421245
 21
44.71708658042787
 31
0.0
  0
LINE
  5
885
  8
0
 10
105.0708017430437
 20
46.21373059240246
 30
0.0
 11
101.1882536739332
 21
46.72284482184982
 31
0.0
  0
LINE
  5
886
  8
0
 10
101.1882536739332
 20
46.72284482184982
 30
0.0
 11
97.30623176948882
 21
46.20973397538434
 31
0.0
  0
LINE
  5
887
  8
0
 10
97.30623176948882
 20
46.20973397538434
 30
0.0
 11
93.68928940715386
 21
44.70936570923671
 31
0.0
  0
LINE
  5
888
  8
0
 10
98.69854861407896
 20
26.72156065940115
 30
0.0
 11
103.6985477257358
 21
26.72413428313152
 31
0.0
  0
LINE
  5
889
  8
0
 10
103.6985477257358
 20
26.72413428313152
 30
0.0
 11
103.6934004777487
 21
36.72413295842327
 31
0.0
  0
LINE
  5
88A
  8
0
 10
103.6934004777487
 20
36.72413295842327
 30
0.0
 11
98.69340136609185
 21
36.72155933469283
 31
0.0
  0
LINE
  5
88B
  8
0
 10
98.69340136609185
 20
36.72155933469283
 30
0.0
 11
98.69854861407896
 21
26.72156065940115
 31
0.0
  0
LINE
  5
88C
  8
0
 10
106.2062681525384
 20
15.725425570144
 30
0.0
 11
106.2083270517332
 21
11.72542610002732
 31
0.0
  0
LINE
  5
88D
  8
0
 10
96.20626992922462
 20
15.72027832268328
 30
0.0
 11
96.20832882841944
 21
11.72027885256656
 31
0.0
  0
LINE
  5
88E
  8
0
 10
106.2083270517332
 20
11.72542610002732
 30
0.0
 11
116.2062663758521
 21
11.73057228772153
 31
0.0
  0
LINE
  5
88F
  8
0
 10
86.20627170691739
 20
11.71513054533976
 30
0.0
 11
96.20832882841944
 21
11.72027885256656
 31
0.0
  0
LINE
  5
890
  8
0
 10
96.20626992922462
 20
15.72027832268328
 30
0.0
 11
106.2062681525384
 21
15.725425570144
 31
0.0
  0
LINE
  5
891
  8
0
 10
86.20627170691739
 20
15.71512911702074
 30
0.0
 11
86.20627170691739
 21
11.71513054533976
 31
0.0
  0
LINE
  5
892
  8
0
 10
116.2062663758521
 20
15.73057281760474
 30
0.0
 11
116.2062663758521
 21
11.73057228772153
 31
0.0
  0
LINE
  5
893
  8
0
 10
104.2522285714724
 20
79.79890711754888
 30
0.0
 11
104.2496547687736
 21
80.80387647084522
 31
0.0
1001
PE_URL
1000
t
  0
LINE
  5
894
  8
0
 10
104.2522285714724
 20
79.79890711754888
 30
0.0
 11
124.2522208731965
 21
59.79890606777559
 31
0.0
1001
PE_URL
1000
t
  0
LINE
  5
895
  8
0
 10
124.2522208731965
 20
59.79890606777559
 30
0.0
 11
125.2437155013048
 21
59.79890597091993
 31
0.0
1001
PE_URL
1000
t
  0
LINE
  5
896
  8
0
 10
104.2496547687736
 20
80.80387647084522
 30
0.0
 11
104.2496547687736
 21
84.80387647084522
 31
0.0
  0
LINE
  5
897
  8
0
 10
114.2496547687736
 20
80.80387647084522
 30
0.0
 11
114.2496547687736
 21
84.80387647084522
 31
0.0
  0
LINE
  5
898
  8
0
 10
125.2437155013048
 20
59.79890597091993
 30
0.0
 11
129.2437155013048
 21
59.79890597091993
 31
0.0
  0
LINE
  5
899
  8
0
 10
125.2437155013048
 20
69.79890597091993
 30
0.0
 11
129.2437155013048
 21
69.79890597091993
 31
0.0
  0
LINE
  5
89A
  8
0
 10
129.2437155013048
 20
59.79890597091993
 30
0.0
 11
129.2437155013048
 21
69.79890597091993
 31
0.0
  0
LINE
  5
89B
  8
0
 10
104.2496547687736
 20
84.80387647084522
 30
0.0
 11
114.2496547687736
 21
84.80387647084522
 31
0.0
  0
LINE
  5
89C
  8
0
 10
125.2437155013048
 20
69.79890597091993
 30
0.0
 11
125.2437155013048
 21
80.80387647084522
 31
0.0
  0
LINE
  5
89D
  8
0
 10
114.2496547687736
 20
80.80387647084522
 30
0.0
 11
125.2437155013048
 21
80.80387647084522
 31
0.0
  0
ENDSEC
  0
EOF
